<svg width="35" height="35" viewBox="0 0 35 35" fill="none" xmlns="http://www.w3.org/2000/svg">
<path fill-rule="evenodd" clip-rule="evenodd" d="M0.0743408 17.0361C0.0743408 7.6415 7.71797 0 17.1115 0C26.5051 0 34.1487 7.6415 34.1487 17.0361C34.1487 26.4307 26.5051 34.0723 17.1115 34.0723C7.71797 34.0723 0.0743408 26.4307 0.0743408 17.0361ZM1.21122 17.0361C1.21122 25.8039 8.34378 32.9375 17.1115 32.9375C25.8793 32.9375 33.0118 25.8039 33.0118 17.0361C33.0118 8.26838 25.8793 1.13475 17.1115 1.13475C8.34378 1.13475 1.21122 8.26838 1.21122 17.0361ZM18.275 7.00419H21.1098C21.1817 6.99453 21.255 7.00162 21.3238 7.02492C21.3926 7.04822 21.4551 7.08709 21.5064 7.13851C21.5577 7.18992 21.5965 7.2525 21.6196 7.32135C21.6428 7.3902 21.6497 7.46347 21.6399 7.53544V10.7229C21.6771 10.8781 21.6134 11.0247 21.5029 11.132C21.4238 11.2088 21.3209 11.2214 21.2146 11.2344C21.1723 11.2396 21.1295 11.2448 21.0874 11.2542H19.1866C19.0994 11.249 19.0243 11.2425 18.9593 11.2368C18.5546 11.2015 18.5423 11.2005 18.4535 11.7854L18.4503 13.3792H21.1098C21.1818 13.3696 21.2551 13.3767 21.3239 13.4C21.3927 13.4233 21.4553 13.4621 21.5067 13.5135C21.5581 13.5649 21.5969 13.6274 21.6202 13.6963C21.6435 13.7651 21.6506 13.8384 21.641 13.9104V17.0979C21.6506 17.17 21.6435 17.2433 21.6202 17.3121C21.5969 17.3809 21.5581 17.4435 21.5067 17.4949C21.4553 17.5463 21.3927 17.5851 21.3239 17.6084C21.2551 17.6317 21.1818 17.6388 21.1098 17.6292H18.4535L18.4514 25.5979C18.5513 25.9114 18.2973 26.1653 17.9839 26.1292H14.7379C14.6658 26.1385 14.5926 26.1312 14.5237 26.1078C14.4549 26.0844 14.3923 26.0456 14.3407 25.9944C14.2891 25.9431 14.25 25.8808 14.2262 25.812C14.2024 25.7433 14.1946 25.6701 14.2035 25.5979V17.6292H12.6098C12.5377 17.6388 12.4644 17.6317 12.3956 17.6084C12.3268 17.5851 12.2642 17.5463 12.2128 17.4949C12.1614 17.4435 12.1226 17.3809 12.0993 17.3121C12.076 17.2433 12.0689 17.17 12.0785 17.0979V13.9104C12.0689 13.8384 12.076 13.7651 12.0993 13.6963C12.1226 13.6274 12.1614 13.5649 12.2128 13.5135C12.2642 13.4621 12.3268 13.4233 12.3956 13.4C12.4644 13.3767 12.5377 13.3696 12.6098 13.3792H14.2035V11.6208C14.2035 9.20251 14.6646 6.96807 18.275 7.00419ZM20.5403 10.1322V8.10282H18.2739C15.7463 8.10282 15.2649 9.23757 15.2649 11.6197V13.9094C15.2649 14.0603 15.2458 14.2048 15.1396 14.3121C15.0868 14.3647 15.0242 14.4065 14.9552 14.4349C14.8863 14.4634 14.8125 14.4779 14.7379 14.4778H13.141V16.5306H14.7379C15.0524 16.5306 15.266 16.7845 15.266 17.0979V25.0667H17.4165L17.4176 17.0969C17.4178 16.9463 17.4779 16.802 17.5844 16.6956C17.691 16.5892 17.8354 16.5295 17.986 16.5295H20.5785V14.4768H17.9839C17.9093 14.4768 17.8354 14.462 17.7665 14.4335C17.6976 14.4049 17.635 14.363 17.5823 14.3102C17.5296 14.2574 17.4878 14.1947 17.4594 14.1258C17.4309 14.0568 17.4164 13.9829 17.4165 13.9083L17.4208 11.8938C17.4208 10.9769 17.5589 10.0812 19.2089 10.0812L20.5403 10.1322Z" fill="url(#paint0_linear_500_52)"/>
<defs>
<linearGradient id="paint0_linear_500_52" x1="5.76168" y1="0" x2="5.76168" y2="19.0089" gradientUnits="userSpaceOnUse">
<stop stop-color="#BB43CD"/>
<stop offset="1" stop-color="#0285FE"/>
</linearGradient>
</defs>
</svg>
