<svg width="35" height="35" viewBox="0 0 35 35" fill="none" xmlns="http://www.w3.org/2000/svg">
<path fill-rule="evenodd" clip-rule="evenodd" d="M0.297485 17.0361C0.297485 7.6415 7.94111 0 17.3347 0C26.7282 0 34.3719 7.6415 34.3719 17.0361C34.3719 26.4307 26.7282 34.0723 17.3347 34.0723C7.94111 34.0723 0.297485 26.4307 0.297485 17.0361ZM1.43436 17.0361C1.43436 25.8039 8.56692 32.9375 17.3347 32.9375C26.1024 32.9375 33.235 25.8039 33.235 17.0361C33.235 8.26838 26.1024 1.13475 17.3347 1.13475C8.56692 1.13475 1.43436 8.26838 1.43436 17.0361ZM23.5475 7.00041C23.5475 5.98344 24.6177 5.322 25.5273 5.77681C26.5356 6.28096 26.5356 7.71987 25.5273 8.22402C24.6177 8.67882 23.5475 8.01739 23.5475 7.00041ZM24.9745 7.11846C25.0167 7.09728 25.0475 7.05395 25.0475 7.00041C25.0475 6.94688 25.0167 6.90355 24.9745 6.88237C24.9394 6.86474 24.8964 6.86245 24.8565 6.88238C24.8079 6.9067 24.7836 6.95356 24.7836 7.00041C24.7836 7.04727 24.8079 7.09413 24.8565 7.11845C24.8964 7.13838 24.9394 7.13609 24.9745 7.11846ZM10.5475 17C10.5475 11.9775 15.9837 8.83772 20.3341 11.3476C24.687 13.8588 24.687 20.1412 20.3341 22.6524C15.9837 25.1623 10.5475 22.0225 10.5475 17ZM19.5845 12.6469C16.2341 10.7139 12.0475 13.132 12.0475 17C12.0475 20.868 16.2341 23.2861 19.5845 21.3531C22.9368 19.4191 22.9368 14.5809 19.5845 12.6469Z" fill="url(#paint0_linear_500_49)"/>
<defs>
<linearGradient id="paint0_linear_500_49" x1="18.2086" y1="12" x2="18.2086" y2="22.8035" gradientUnits="userSpaceOnUse">
<stop stop-color="#BB43CD"/>
<stop offset="1" stop-color="#0285FE"/>
</linearGradient>
</defs>
</svg>
