<svg width="28" height="28" viewBox="0 0 28 28" fill="none" xmlns="http://www.w3.org/2000/svg">
<path d="M14 7.89062C12.7917 7.89062 11.6105 8.24893 10.6058 8.92024C9.60113 9.59155 8.81808 10.5457 8.35567 11.662C7.89327 12.7784 7.77228 14.0068 8.00802 15.1919C8.24375 16.377 8.82561 17.4656 9.68002 18.32C10.5344 19.1744 11.623 19.7563 12.8081 19.992C13.9932 20.2277 15.2216 20.1067 16.338 19.6443C17.4543 19.1819 18.4085 18.3989 19.0798 17.3942C19.7511 16.3895 20.1094 15.2083 20.1094 14C20.1094 12.3797 19.4657 10.8258 18.32 9.68002C17.1743 8.53429 15.6203 7.89062 14 7.89062ZM14 18.5156C13.1069 18.5156 12.2338 18.2508 11.4913 17.7546C10.7487 17.2584 10.1699 16.5532 9.82811 15.7281C9.48633 14.9029 9.3969 13.995 9.57114 13.119C9.74538 12.2431 10.1754 11.4385 10.807 10.807C11.4385 10.1754 12.2431 9.74538 13.119 9.57114C13.995 9.3969 14.9029 9.48633 15.7281 9.82811C16.5532 10.1699 17.2584 10.7487 17.7546 11.4913C18.2508 12.2338 18.5156 13.1069 18.5156 14C18.5121 15.1965 18.0352 16.3431 17.1892 17.1892C16.3431 18.0352 15.1965 18.5121 14 18.5156ZM19.8438 0.984375H8.15625C6.25415 0.984375 4.42996 1.73998 3.08497 3.08497C1.73998 4.42996 0.984375 6.25415 0.984375 8.15625V19.8438C0.984375 21.7458 1.73998 23.57 3.08497 24.915C4.42996 26.26 6.25415 27.0156 8.15625 27.0156H19.8438C21.7458 27.0156 23.57 26.26 24.915 24.915C26.26 23.57 27.0156 21.7458 27.0156 19.8438V8.15625C27.0156 6.25415 26.26 4.42996 24.915 3.08497C23.57 1.73998 21.7458 0.984375 19.8438 0.984375ZM25.4219 19.8438C25.4219 21.3232 24.8342 22.742 23.7881 23.7881C22.742 24.8342 21.3232 25.4219 19.8438 25.4219H8.15625C6.67684 25.4219 5.25802 24.8342 4.21192 23.7881C3.16582 22.742 2.57812 21.3232 2.57812 19.8438V8.15625C2.57812 6.67684 3.16582 5.25802 4.21192 4.21192C5.25802 3.16582 6.67684 2.57812 8.15625 2.57812H19.8438C21.3232 2.57812 22.742 3.16582 23.7881 4.21192C24.8342 5.25802 25.4219 6.67684 25.4219 8.15625V19.8438ZM22.2344 7.09375C22.2344 7.35643 22.1565 7.61321 22.0105 7.83162C21.8646 8.05003 21.6572 8.22025 21.4145 8.32078C21.1718 8.4213 20.9048 8.4476 20.6471 8.39636C20.3895 8.34511 20.1529 8.21862 19.9671 8.03288C19.7814 7.84713 19.6549 7.61049 19.6036 7.35285C19.5524 7.09522 19.5787 6.82818 19.6792 6.5855C19.7797 6.34282 19.95 6.13539 20.1684 5.98945C20.3868 5.84352 20.6436 5.76562 20.9062 5.76562C21.2585 5.76562 21.5963 5.90555 21.8454 6.15462C22.0944 6.4037 22.2344 6.74151 22.2344 7.09375Z" fill="url(#paint0_linear_440_3372)"/>
<defs>
<linearGradient id="paint0_linear_440_3372" x1="14" y1="0.984375" x2="14" y2="27.0156" gradientUnits="userSpaceOnUse">
<stop stop-color="#BD43C9"/>
<stop offset="1" stop-color="#0285FE"/>
</linearGradient>
</defs>
</svg>
