<svg width="60" height="60" viewBox="0 0 60 60" fill="none" xmlns="http://www.w3.org/2000/svg">
<g opacity="0.15" filter="url(#filter0_i_1314_13)">
<rect width="60" height="60" rx="30" fill="#06061A"/>
</g>
<path d="M25.75 28V36C25.75 36.1989 25.671 36.3897 25.5303 36.5303C25.3897 36.671 25.1989 36.75 25 36.75C24.8011 36.75 24.6103 36.671 24.4697 36.5303C24.329 36.3897 24.25 36.1989 24.25 36V28C24.25 27.8011 24.329 27.6103 24.4697 27.4697C24.6103 27.329 24.8011 27.25 25 27.25C25.1989 27.25 25.3897 27.329 25.5303 27.4697C25.671 27.6103 25.75 27.8011 25.75 28ZM25 22.75C24.7528 22.75 24.5111 22.8233 24.3055 22.9607C24.1 23.098 23.9398 23.2932 23.8452 23.5216C23.7505 23.7501 23.7258 24.0014 23.774 24.2439C23.8222 24.4863 23.9413 24.7091 24.1161 24.8839C24.2909 25.0587 24.5137 25.1778 24.7561 25.226C24.9986 25.2742 25.2499 25.2495 25.4784 25.1548C25.7068 25.0602 25.902 24.9 26.0393 24.6945C26.1767 24.4889 26.25 24.2472 26.25 24C26.25 23.6685 26.1183 23.3505 25.8839 23.1161C25.6495 22.8817 25.3315 22.75 25 22.75ZM42.25 19.5V40.5C42.25 40.9641 42.0656 41.4092 41.7374 41.7374C41.4092 42.0656 40.9641 42.25 40.5 42.25H19.5C19.0359 42.25 18.5908 42.0656 18.2626 41.7374C17.9344 41.4092 17.75 40.9641 17.75 40.5V19.5C17.75 19.0359 17.9344 18.5908 18.2626 18.2626C18.5908 17.9344 19.0359 17.75 19.5 17.75H40.5C40.9641 17.75 41.4092 17.9344 41.7374 18.2626C42.0656 18.5908 42.25 19.0359 42.25 19.5ZM40.75 19.5C40.75 19.4337 40.7237 19.3701 40.6768 19.3232C40.6299 19.2763 40.5663 19.25 40.5 19.25H19.5C19.4337 19.25 19.3701 19.2763 19.3232 19.3232C19.2763 19.3701 19.25 19.4337 19.25 19.5V40.5C19.25 40.5663 19.2763 40.6299 19.3232 40.6768C19.3701 40.7237 19.4337 40.75 19.5 40.75H40.5C40.5663 40.75 40.6299 40.7237 40.6768 40.6768C40.7237 40.6299 40.75 40.5663 40.75 40.5V19.5ZM32.5 27.25C31.4923 27.2508 30.5176 27.6096 29.75 28.2625V28C29.75 27.8011 29.671 27.6103 29.5303 27.4697C29.3897 27.329 29.1989 27.25 29 27.25C28.8011 27.25 28.6103 27.329 28.4697 27.4697C28.329 27.6103 28.25 27.8011 28.25 28V36C28.25 36.1989 28.329 36.3897 28.4697 36.5303C28.6103 36.671 28.8011 36.75 29 36.75C29.1989 36.75 29.3897 36.671 29.5303 36.5303C29.671 36.3897 29.75 36.1989 29.75 36V31.5C29.75 30.7707 30.0397 30.0712 30.5555 29.5555C31.0712 29.0397 31.7707 28.75 32.5 28.75C33.2293 28.75 33.9288 29.0397 34.4445 29.5555C34.9603 30.0712 35.25 30.7707 35.25 31.5V36C35.25 36.1989 35.329 36.3897 35.4697 36.5303C35.6103 36.671 35.8011 36.75 36 36.75C36.1989 36.75 36.3897 36.671 36.5303 36.5303C36.671 36.3897 36.75 36.1989 36.75 36V31.5C36.7467 30.3738 36.2979 29.2948 35.5016 28.4984C34.7052 27.7021 33.6262 27.2533 32.5 27.25Z" fill="white"/>
<defs>
<filter id="filter0_i_1314_13" x="-10" y="0" width="70" height="80" filterUnits="userSpaceOnUse" color-interpolation-filters="sRGB">
<feFlood flood-opacity="0" result="BackgroundImageFix"/>
<feBlend mode="normal" in="SourceGraphic" in2="BackgroundImageFix" result="shape"/>
<feColorMatrix in="SourceAlpha" type="matrix" values="0 0 0 0 0 0 0 0 0 0 0 0 0 0 0 0 0 0 127 0" result="hardAlpha"/>
<feOffset dx="-10" dy="20"/>
<feGaussianBlur stdDeviation="20"/>
<feComposite in2="hardAlpha" operator="arithmetic" k2="-1" k3="1"/>
<feColorMatrix type="matrix" values="0 0 0 0 0.992157 0 0 0 0 0.203922 0 0 0 0 0.431373 0 0 0 0.301961 0"/>
<feBlend mode="normal" in2="shape" result="effect1_innerShadow_1314_13"/>
</filter>
</defs>
</svg>
