<svg width="134" height="30" viewBox="0 0 134 30" fill="none" xmlns="http://www.w3.org/2000/svg">
<path fill-rule="evenodd" clip-rule="evenodd" d="M8.05564 23.0268H12.1024C12.9506 23.0268 13.628 22.8976 14.1345 22.6392C14.6529 22.3692 15.024 22.0169 15.2478 21.5826C15.4834 21.1363 15.6013 20.6432 15.6013 20.1031C15.6013 19.4456 15.4893 18.8762 15.2655 18.3948C15.0766 17.9657 14.7847 17.6253 14.3899 17.3735C14.3416 17.3427 14.2918 17.3132 14.2405 17.2851C13.7694 17.0151 13.1391 16.8801 12.3497 16.8801H8.05564V23.0268ZM1.85303 27.7821V2.13853H11.0951C12.6855 2.13853 14.1051 2.2853 15.3539 2.57884C16.6027 2.86063 17.663 3.29507 18.5347 3.88215C19.4183 4.46923 20.0897 5.20894 20.5492 6.10131C21.0087 6.98192 21.2383 8.02105 21.2383 9.21868C21.2383 10.2637 21.0145 11.2441 20.5669 12.1599C20.3208 12.6635 19.9839 13.1156 19.556 13.5162C19.2058 13.8442 18.7947 14.1377 18.3226 14.3967C18.1256 14.5039 17.9147 14.6012 17.6899 14.6889C18.0456 14.7796 18.3728 14.8949 18.6719 15.0348C18.6734 15.0355 18.6748 15.0362 18.6763 15.0369C18.7672 15.0795 18.8555 15.1244 18.9411 15.1717C19.203 15.3143 19.4456 15.4686 19.6689 15.6349C20.3096 16.1116 20.7915 16.6851 21.1147 17.3556C21.5506 18.2597 21.7686 19.2049 21.7686 20.1911C21.7686 21.8702 21.4034 23.2733 20.6729 24.4005C19.9543 25.5278 18.8763 26.3731 17.439 26.9367C16.0018 27.5003 14.223 27.7821 12.1024 27.7821H1.85303ZM22.1521 25.3452C21.2046 26.8285 19.8086 27.8891 18.0823 28.566C16.3793 29.2339 14.3664 29.533 12.1024 29.533H0.0961914V0.387559H11.0951C12.7873 0.387559 14.3436 0.543102 15.7495 0.872836C17.1613 1.19221 18.4296 1.69916 19.5138 2.42833C20.6287 3.17016 21.507 4.12837 22.11 5.29747C22.7224 6.47312 22.9952 7.79901 22.9952 9.21868C22.9952 10.5223 22.7137 11.7658 22.1463 12.9268C21.8607 13.5111 21.4932 14.0337 21.0553 14.4973C21.744 15.0771 22.3018 15.7751 22.6982 16.5972C22.8519 16.9161 22.9845 17.2402 23.0957 17.5692V0.387559H32.812V21.2758H41.379C40.7788 19.5176 40.4933 17.5815 40.4933 15.4887V14.4496C40.4933 12.3293 40.7863 10.37 41.4028 8.59351L41.4047 8.58797L41.4067 8.58244C42.028 6.83011 42.9109 5.29565 44.0744 4.01181L44.0749 4.01108C45.2464 2.71989 46.6405 1.73046 48.2436 1.05509C49.8616 0.36663 51.6181 0.0353125 53.4891 0.0353125C55.3484 0.0353125 57.0934 0.366614 58.7 1.05533C60.3112 1.72928 61.7105 2.71683 62.8825 4.00762C64.0591 5.29173 64.9494 6.82754 65.5717 8.58244C65.6415 8.77923 65.7072 8.97826 65.7689 9.17951C65.8301 8.96095 65.8959 8.74501 65.9661 8.5317L65.9674 8.52789L65.9687 8.52408C66.55 6.78604 67.3866 5.26086 68.5009 3.98367L68.5018 3.98262C69.6277 2.69422 70.9842 1.70449 72.5559 1.02523C74.1328 0.3437 75.8531 0.0177002 77.6903 0.0177002C80.1318 0.0177002 82.3173 0.452648 84.1722 1.41224C85.9828 2.34895 87.4259 3.66237 88.4515 5.35067C88.7488 5.83671 89.0086 6.3409 89.2315 6.86236V0.387559H98.9477V7.67427L103.971 0.387559H116.101L105.986 13.5786L115.662 29.533H104.196L99.4019 21.1974L98.9477 21.6925V29.533H89.2315V23.3135C89.0087 23.8168 88.7461 24.3028 88.443 24.7701C87.3735 26.4186 85.8961 27.6876 84.0635 28.5803L84.061 28.5815L84.0586 28.5827C82.2166 29.4728 80.1056 29.8853 77.7787 29.8853C75.8613 29.8853 74.0837 29.5642 72.4778 28.8822L72.4753 28.8811L72.4727 28.8799C70.8915 28.2027 69.5314 27.2194 68.4126 25.9369L68.4089 25.9328L68.4053 25.9287C67.3026 24.6488 66.4839 23.126 65.927 21.395L65.9253 21.3893L65.9234 21.3834C65.8636 21.193 65.8072 21.0006 65.7542 20.806C65.6972 20.9898 65.6368 21.1719 65.573 21.3522C64.9618 23.0988 64.0771 24.6335 62.9034 25.9271L62.9002 25.9306L62.8971 25.9341C61.7274 27.2095 60.3383 28.1943 58.7438 28.8792L58.7378 28.8818L58.732 28.8843C57.1261 29.5604 55.3824 29.8853 53.5245 29.8853C51.6564 29.8853 49.9027 29.5609 48.2867 28.8864L48.2782 28.8829L48.2699 28.8792C46.6773 28.1951 45.2852 27.2125 44.1059 25.9416L44.0992 25.9343L44.0926 25.9271C43.9257 25.7432 43.7646 25.5544 43.6091 25.3608V29.533H23.0957V23.2955C22.8738 24.0251 22.5623 24.711 22.1521 25.3452ZM41.8523 27.7821V23.0268H31.0552V2.13853H24.8525V27.7821H41.8523ZM43.6091 22.0807C44.093 23.0826 44.6885 23.9734 45.3957 24.7528C46.4088 25.8447 47.5988 26.6842 48.9653 27.2714C50.3437 27.8466 51.8634 28.1344 53.5245 28.1344C55.1738 28.1344 56.6817 27.8466 58.0483 27.2714C59.4149 26.6842 60.5989 25.8447 61.6003 24.7528C62.6017 23.6491 63.3733 22.3223 63.9152 20.7723C64.469 19.2107 64.7457 17.4495 64.7457 15.4887V14.4496C64.7457 12.4887 64.469 10.7275 63.9152 9.16585C63.3615 7.60423 62.584 6.27743 61.5826 5.18547C60.5812 4.08176 59.3914 3.24224 58.0129 2.6669C56.6465 2.07983 55.1385 1.78628 53.4891 1.78628C51.8281 1.78628 50.3083 2.07983 48.93 2.6669C47.5634 3.24224 46.3794 4.08176 45.378 5.18547C44.3885 6.27743 43.6168 7.60423 43.0631 9.16585C42.5212 10.7275 42.2502 12.4887 42.2502 14.4496V15.4887C42.2502 17.4495 42.5212 19.2107 43.0631 20.7723C43.124 20.9429 43.1876 21.1106 43.2539 21.2758C43.3648 21.5516 43.4831 21.8199 43.6091 22.0807ZM89.2315 17.3483V12.7485H80.5526L80.5108 11.0402C80.4913 10.2413 80.3559 9.69512 80.1841 9.33297L80.1815 9.32749L80.1789 9.322C80.0426 9.02932 79.8472 8.8256 79.5377 8.67133C79.2114 8.50871 78.6349 8.36304 77.6903 8.36304C77.1404 8.36304 76.7545 8.46367 76.4791 8.60088C76.2452 8.71744 76.0056 8.91913 75.7759 9.29097C75.5447 9.66554 75.3208 10.2374 75.1582 11.0739C75.0073 11.9001 74.9233 12.9483 74.9233 14.2382V15.6648C74.9233 16.9635 75.0024 18.0215 75.1457 18.8574C75.2868 19.6817 75.4967 20.2453 75.7181 20.6155C75.9262 20.9634 76.1563 21.1695 76.4025 21.2989C76.6947 21.4342 77.1327 21.54 77.7787 21.54C78.5392 21.54 79.0671 21.4216 79.4252 21.262C79.7459 21.1084 79.9712 20.8988 80.141 20.6081C80.31 20.3075 80.4568 19.8217 80.4754 19.0565L80.5173 17.3483H89.2315ZM80.1643 22.8506C79.5163 23.1442 78.7211 23.2909 77.7787 23.2909C76.9304 23.2909 76.2119 23.15 75.6227 22.8683C75.0456 22.5747 74.5742 22.1227 74.2091 21.5121C73.8439 20.9016 73.5788 20.1148 73.4138 19.152C73.2489 18.1892 73.1664 17.0268 73.1664 15.6648V14.2382C73.1664 12.8762 73.2549 11.7137 73.4315 10.751C73.6201 9.77641 73.9028 8.98385 74.2797 8.37329C74.6567 7.76274 75.128 7.31655 75.6935 7.03475C76.2589 6.75296 76.9245 6.61207 77.6903 6.61207C78.786 6.61207 79.6636 6.77645 80.3233 7.10521C80.9831 7.43397 81.4661 7.92712 81.7723 8.58464C82.0786 9.23042 82.2436 10.0347 82.2672 10.9975H88.4521C88.3997 10.3912 88.3067 9.80756 88.1731 9.24656C87.9159 8.16709 87.5082 7.17151 86.9501 6.25982C86.1018 4.86257 84.9061 3.76474 83.3627 2.96631C81.8194 2.16789 79.9286 1.76868 77.6903 1.76868C76.0645 1.76868 74.5861 2.05634 73.2549 2.63167C71.9235 3.20701 70.7808 4.04066 69.8266 5.13262C68.8841 6.21284 68.1537 7.52791 67.6354 9.07779C67.1288 10.6159 66.8755 12.3478 66.8755 14.2734V15.6648C66.8755 17.5904 67.117 19.3223 67.6 20.8605C68.0948 22.3985 68.8075 23.7078 69.7383 24.788C70.6806 25.8681 71.8234 26.696 73.1664 27.2714C74.5213 27.8466 76.0587 28.1344 77.7787 28.1344C79.8992 28.1344 81.737 27.7586 83.2921 27.0071C84.859 26.2439 86.0842 25.1813 86.9678 23.8193C87.5502 22.9215 87.9586 21.9317 88.1929 20.8502C88.3141 20.2911 88.3887 19.7074 88.4168 19.0992H82.2318C82.2083 20.062 82.0197 20.8545 81.6664 21.4768C81.3129 22.0874 80.8122 22.5454 80.1643 22.8506ZM97.1909 21.0128L99.7292 18.2453L105.214 27.7821H112.547L103.864 13.4633L112.547 2.13853H104.896L99.3468 10.1874L97.1909 13.446V2.13853H90.9883V27.7821H97.1909V21.0128ZM14.6229 11.5539C14.625 11.5505 14.6273 11.547 14.6294 11.5435C14.9003 11.1208 15.0358 10.5924 15.0358 9.9584C15.0358 9.23042 14.9003 8.64335 14.6294 8.19718C14.3584 7.75099 13.9284 7.4281 13.3394 7.22849C12.7621 7.01715 12.014 6.91147 11.0951 6.91147H8.05564V12.8292H11.0598C12.0258 12.8292 12.7975 12.7236 13.3747 12.5122C13.3865 12.5076 13.3983 12.503 13.41 12.4983C13.9644 12.2777 14.3687 11.9629 14.6229 11.5539ZM11.0598 11.0782C11.91 11.0782 12.4472 10.9832 12.7546 10.8738C13.0496 10.7571 13.1173 10.6515 13.1302 10.6305L13.1395 10.6155L13.1488 10.6008C13.1972 10.5254 13.279 10.346 13.279 9.9584C13.279 9.42923 13.178 9.18894 13.1264 9.10383C13.1083 9.07409 13.0488 8.97946 12.7738 8.88626L12.7536 8.87941L12.7335 8.87208C12.4212 8.75771 11.8994 8.66244 11.0951 8.66244H9.81247V11.0782H11.0598ZM9.81247 18.631V21.2758H12.1024C12.7897 21.2758 13.1584 21.1683 13.3284 21.0834C13.5827 20.9495 13.6573 20.8365 13.685 20.7827L13.689 20.7748L13.6932 20.767C13.7867 20.5901 13.8444 20.3798 13.8444 20.1031C13.8444 19.6405 13.7656 19.3333 13.6716 19.1309L13.6641 19.1149L13.6569 19.0985C13.6035 18.9774 13.5336 18.8959 13.394 18.8193L13.3793 18.8114L13.3648 18.8031C13.2539 18.7395 12.9619 18.631 12.3497 18.631H9.81247ZM56.4047 11.4512L56.4022 11.4391C56.2229 10.6153 55.971 10.0071 55.687 9.56672C55.4078 9.13399 55.0998 8.86153 54.7714 8.68863L54.7538 8.67935L54.7363 8.66967C54.4168 8.49205 54.0171 8.38064 53.4891 8.38064C52.9112 8.38064 52.4974 8.49824 52.1889 8.66967L52.1776 8.67597L52.1662 8.68211C51.853 8.85019 51.5558 9.11717 51.2857 9.54788C51.0073 9.99174 50.7586 10.6043 50.5779 11.4312C50.4088 12.2477 50.3157 13.237 50.3157 14.4143V15.4887C50.3157 16.6506 50.4082 17.6406 50.5779 18.4716C50.7568 19.2785 51.0039 19.8949 51.2873 20.3576C51.5722 20.8042 51.881 21.0861 52.2004 21.2651C52.5269 21.4417 52.951 21.5576 53.5245 21.5576C54.0525 21.5576 54.4521 21.4461 54.7717 21.2686C55.0902 21.0916 55.393 20.8126 55.6677 20.3669L55.6734 20.3575L55.6794 20.3481C55.9716 19.8869 56.2244 19.2707 56.4031 18.4595L56.4047 18.452L56.4065 18.4443C56.5945 17.6256 56.6979 16.6454 56.6979 15.4887V14.4143C56.6979 13.2439 56.5941 12.266 56.4076 11.4632L56.4047 11.4512ZM51.3509 22.7978C50.7384 22.4572 50.22 21.9524 49.7959 21.2832C49.3835 20.6138 49.0714 19.7979 48.8593 18.8351C48.659 17.8605 48.5588 16.745 48.5588 15.4887V14.4143C48.5588 13.1463 48.659 12.0308 48.8593 11.068C49.0714 10.0934 49.3835 9.2774 49.7959 8.61987C50.2082 7.96234 50.7207 7.46919 51.3332 7.14043C51.9459 6.79992 52.6644 6.62967 53.4891 6.62967C54.2785 6.62967 54.9795 6.79992 55.592 7.14043C56.2164 7.46919 56.7407 7.96234 57.1647 8.61987C57.5888 9.2774 57.907 10.0934 58.1191 11.068C58.3429 12.0308 58.4547 13.1463 58.4547 14.4143V15.4887C58.4547 16.745 58.3429 17.8605 58.1191 18.8351C57.907 19.7979 57.5888 20.6138 57.1647 21.2832C56.7525 21.9524 56.24 22.4572 55.6274 22.7978C55.0147 23.1383 54.3138 23.3086 53.5245 23.3086C52.6998 23.3086 51.9753 23.1383 51.3509 22.7978ZM129.528 0.0177002V8.18692H127.453C126.477 8.18692 125.585 8.32202 124.771 8.57959C124.621 8.62751 124.477 8.67991 124.336 8.73673C124.385 8.73611 124.435 8.7358 124.484 8.7358C125.886 8.7358 127.199 9.00204 128.377 9.58859C129.522 10.1523 130.489 10.9446 131.265 11.953C132.035 12.9391 132.599 14.071 132.972 15.3253C133.343 16.573 133.521 17.8991 133.521 19.2929C133.521 20.7589 133.26 22.1542 132.72 23.4601C132.198 24.7392 131.451 25.8697 130.48 26.8363C129.507 27.8066 128.36 28.5558 127.058 29.086C125.728 29.6274 124.291 29.8853 122.771 29.8853C121.213 29.8853 119.736 29.6213 118.356 29.0743L118.347 29.0703L118.337 29.0662C116.973 28.5057 115.771 27.6955 114.743 26.6434L114.735 26.6348L114.727 26.6262C113.7 25.5463 112.917 24.2539 112.361 22.7802L112.359 22.7736L112.356 22.7669C111.802 21.2613 111.542 19.6018 111.542 17.8136V15.6471C111.542 13.2613 111.932 11.0705 112.755 9.10726L112.757 9.10256L112.759 9.09788C113.576 7.1822 114.697 5.52844 116.133 4.16437C117.561 2.80737 119.203 1.77269 121.044 1.06756C122.879 0.365618 124.806 0.0177002 126.817 0.0177002H129.528ZM117.346 5.43204C116.097 6.61793 115.107 8.06801 114.377 9.78228C113.658 11.4965 113.299 13.4515 113.299 15.6471V17.8136C113.299 19.4338 113.534 20.8839 114.005 22.1638C114.488 23.4435 115.154 24.5297 116.002 25.422C116.862 26.3026 117.863 26.9778 119.007 27.4474C120.161 27.9053 121.416 28.1344 122.771 28.1344C124.09 28.1344 125.297 27.9112 126.393 27.465C127.489 27.0189 128.437 26.3966 129.238 25.5981C130.039 24.7997 130.658 23.8663 131.094 22.7978C131.541 21.7175 131.765 20.5493 131.765 19.2929C131.765 18.0483 131.607 16.8918 131.288 15.8233C130.969 14.7548 130.499 13.8213 129.874 13.0229C129.262 12.2246 128.502 11.6022 127.595 11.156C126.699 10.7099 125.663 10.4868 124.484 10.4868C123.461 10.4868 122.546 10.6406 121.74 10.9482C121.628 10.991 121.518 11.0368 121.41 11.0856C121.286 11.1418 121.164 11.2004 121.046 11.2615C121.04 11.2641 121.035 11.2667 121.03 11.2692C120.401 11.5949 119.856 11.9895 119.392 12.4531C119.495 11.8443 119.654 11.2827 119.872 10.7686C120.063 10.3303 120.285 9.92639 120.541 9.55696C120.854 9.10498 121.213 8.70456 121.622 8.35569C122.376 7.70989 123.248 7.22849 124.237 6.91147C125.239 6.59445 126.31 6.43594 127.453 6.43594H127.771V1.76868H126.817C126.548 1.76868 126.28 1.77562 126.014 1.78954C124.504 1.86867 123.058 2.17287 121.675 2.70212C120.049 3.32443 118.606 4.2344 117.346 5.43204ZM119.751 21.7273C119.853 21.9606 119.969 22.1706 120.102 22.3574C120.385 22.7567 120.732 23.0561 121.145 23.2557C121.569 23.4553 122.058 23.5551 122.612 23.5551C123.071 23.5551 123.495 23.4495 123.883 23.2381C124.272 23.0268 124.608 22.7274 124.891 22.3398C125.186 21.9524 125.41 21.5004 125.563 20.9837C125.715 20.4671 125.793 19.9035 125.793 19.2929C125.793 18.6355 125.709 18.0425 125.544 17.5141C125.38 16.9857 125.144 16.5395 124.838 16.1756C124.543 15.7998 124.185 15.518 123.761 15.3302C123.347 15.1306 122.894 15.0308 122.4 15.0308C121.884 15.0308 121.422 15.1102 121.01 15.2692C120.821 15.3428 120.642 15.4336 120.473 15.5415C120.07 15.7971 119.742 16.1095 119.488 16.4787C119.415 16.5844 119.35 16.6947 119.289 16.8095C119.277 16.8336 119.265 16.8576 119.254 16.8818V18.6941C119.254 19.5161 119.324 20.2322 119.466 20.8429C119.541 21.1676 119.637 21.4623 119.751 21.7273ZM121.01 17.371V18.6941C121.01 19.422 121.074 20.0004 121.178 20.4491C121.282 20.8982 121.417 21.1783 121.538 21.3477C121.658 21.5187 121.78 21.6149 121.904 21.6765C122.054 21.7458 122.278 21.8041 122.612 21.8041C122.788 21.8041 122.922 21.7667 123.043 21.7009C123.183 21.6241 123.327 21.5059 123.47 21.31L123.481 21.2961L123.491 21.2826C123.643 21.0808 123.778 20.8235 123.878 20.4876C123.977 20.1518 124.036 19.7575 124.036 19.2929C124.036 18.7796 123.971 18.366 123.867 18.0343C123.761 17.6913 123.626 17.4601 123.492 17.3008L123.472 17.2775L123.454 17.2535C123.331 17.0968 123.2 16.9978 123.046 16.9302L123.019 16.9181L122.992 16.9051C122.838 16.8303 122.65 16.7818 122.4 16.7818C121.916 16.7818 121.62 16.8881 121.425 17.0134L121.42 17.016L121.417 17.0187C121.247 17.1258 121.116 17.2426 121.01 17.371Z" fill="url(#paint0_linear_440_148)"/>
<defs>
<linearGradient id="paint0_linear_440_148" x1="-27.9923" y1="15.5131" x2="160.691" y2="15.513" gradientUnits="userSpaceOnUse">
<stop stop-color="#E848FF"/>
<stop offset="1" stop-color="#0285FE"/>
</linearGradient>
</defs>
</svg>
