<svg width="35" height="35" viewBox="0 0 35 35" fill="none" xmlns="http://www.w3.org/2000/svg">
<path fill-rule="evenodd" clip-rule="evenodd" d="M0.148743 17.0361C0.148743 7.6415 7.79237 0 17.1859 0C26.5795 0 34.2231 7.6415 34.2231 17.0361C34.2231 26.4307 26.5795 34.0723 17.1859 34.0723C7.79237 34.0723 0.148743 26.4307 0.148743 17.0361ZM1.28562 17.0361C1.28562 25.8039 8.41818 32.9375 17.1859 32.9375C25.9537 32.9375 33.0862 25.8039 33.0862 17.0361C33.0862 8.26838 25.9537 1.13475 17.1859 1.13475C8.41818 1.13475 1.28562 8.26838 1.28562 17.0361ZM10.9287 24.34C10.9287 24.8733 11.1821 25.14 11.6887 25.14C12.1821 25.14 12.4287 24.8733 12.4287 24.34V14L17.0087 22.48C17.0887 22.64 17.1821 22.76 17.2887 22.84C17.3954 22.92 17.5421 22.96 17.7287 22.96C17.9154 22.96 18.0554 22.9267 18.1487 22.86C18.2554 22.78 18.3554 22.6533 18.4487 22.48L22.9687 13.98V24.34C22.9687 24.8733 23.2221 25.14 23.7287 25.14C24.2354 25.14 24.4887 24.8733 24.4887 24.34V11.56C24.4887 11.0267 24.2421 10.76 23.7487 10.76C23.5221 10.76 23.3487 10.8067 23.2287 10.9C23.1087 10.98 22.9954 11.12 22.8887 11.32L17.7287 21.08L12.5487 11.32C12.4421 11.12 12.3221 10.98 12.1887 10.9C12.0687 10.8067 11.9021 10.76 11.6887 10.76C11.1821 10.76 10.9287 11.0267 10.9287 11.56V24.34Z" fill="url(#paint0_linear_500_32)"/>
<defs>
<linearGradient id="paint0_linear_500_32" x1="6.32521" y1="5" x2="27.8728" y2="21.4268" gradientUnits="userSpaceOnUse">
<stop stop-color="#BB43CD"/>
<stop offset="1" stop-color="#0285FE"/>
</linearGradient>
</defs>
</svg>
