<svg width="35" height="35" viewBox="0 0 35 35" fill="none" xmlns="http://www.w3.org/2000/svg">
<path fill-rule="evenodd" clip-rule="evenodd" d="M0 17.0361C0 7.6415 7.64363 0 17.0372 0C26.4307 0 34.0744 7.6415 34.0744 17.0361C34.0744 26.4307 26.4307 34.0723 17.0372 34.0723C7.64363 34.0723 0 26.4307 0 17.0361ZM1.13687 17.0361C1.13687 25.8039 8.26944 32.9375 17.0372 32.9375C25.8049 32.9375 32.9375 25.8039 32.9375 17.0361C32.9375 8.26838 25.8049 1.13475 17.0372 1.13475C8.26944 1.13475 1.13687 8.26838 1.13687 17.0361ZM25.6384 10.9956C25.5633 11.2319 25.4662 11.4606 25.3484 11.6788C25.461 11.6317 25.5859 11.6221 25.7044 11.6515C25.8229 11.6809 25.9288 11.7477 26.0064 11.842C26.084 11.9363 26.1292 12.0531 26.1352 12.175C26.1413 12.297 26.1079 12.4177 26.0401 12.5192C25.5919 13.1907 25.0391 13.7861 24.4027 14.2829L24.4038 14.4572C24.4038 19.6135 20.4789 24.9473 13.9127 24.9473C11.9091 24.948 9.94745 24.373 8.26125 23.2908C8.15329 23.2213 8.07199 23.1174 8.03052 22.9959C7.98906 22.8744 7.98986 22.7424 8.03281 22.6214C8.07753 22.5013 8.16083 22.3995 8.26966 22.3318C8.37849 22.2641 8.50669 22.2344 8.63418 22.2474C9.8745 22.3933 11.1306 22.1798 12.2531 21.6322C11.7065 21.4078 11.2157 21.0666 10.8149 20.6325C10.414 20.1985 10.1129 19.6821 9.93256 19.1194C9.90222 19.0256 9.89685 18.9255 9.91697 18.829C9.93709 18.7325 9.98202 18.6429 10.0473 18.5691L10.0845 18.5319C9.21962 17.7796 8.68306 16.6725 8.68306 15.4666C8.68314 15.3647 8.70888 15.2645 8.7579 15.1751C8.80692 15.0858 8.87765 15.0103 8.96356 14.9555C9.03367 14.9142 9.11073 14.8862 9.19094 14.8726C8.86389 14.2625 8.69862 13.5788 8.7109 12.8867C8.72318 12.1946 8.91259 11.5172 9.26106 10.9191C9.3074 10.84 9.37214 10.7733 9.44979 10.7246C9.52743 10.6758 9.61569 10.6466 9.70705 10.6393C9.79842 10.632 9.89019 10.6469 9.97459 10.6826C10.059 10.7184 10.1335 10.774 10.1918 10.8447C11.7137 12.7113 13.8957 13.9205 16.2852 14.2213C16.2634 13.6753 16.3519 13.1305 16.5457 12.6196C16.7394 12.1087 17.0344 11.6422 17.4128 11.248C17.7912 10.8538 18.2453 10.5401 18.7479 10.3256C19.2505 10.1112 19.7912 10.0004 20.3376 10C21.3434 10.0012 22.3131 10.3748 23.0597 11.0487C23.6748 10.898 24.2642 10.6571 24.8086 10.3336C24.9078 10.2754 25.0222 10.2486 25.1369 10.2567C25.2516 10.2649 25.3612 10.3076 25.4511 10.3793C25.541 10.4511 25.607 10.5483 25.6404 10.6584C25.6739 10.7684 25.6732 10.886 25.6384 10.9956ZM23.314 13.7583C23.3552 13.6728 23.4172 13.5989 23.4943 13.5434C23.6066 13.4633 23.7161 13.3793 23.8226 13.2916L23.6292 13.3161C23.5008 13.3302 23.3714 13.3002 23.2623 13.2309C23.1533 13.1616 23.071 13.0573 23.0292 12.935C22.9874 12.8128 22.9885 12.6799 23.0323 12.5584C23.076 12.4368 23.1599 12.3338 23.2701 12.2663C23.353 12.2172 23.4331 12.1636 23.5102 12.1059C23.3392 12.1526 23.166 12.193 22.9907 12.2281C22.8961 12.2468 22.7982 12.2411 22.7064 12.2115C22.6146 12.1819 22.5318 12.1295 22.4658 12.0591C22.0257 11.5911 21.4435 11.2812 20.8095 11.1774C20.1755 11.0736 19.5249 11.1816 18.9585 11.4848C18.3921 11.788 17.9414 12.2694 17.6761 12.8545C17.4109 13.4397 17.3459 14.0959 17.4912 14.7218C17.5316 14.896 17.488 15.0777 17.3743 15.2148C17.2606 15.3518 17.097 15.4187 16.91 15.4177C14.2692 15.2813 11.7771 14.1536 9.9315 12.2599C9.78716 12.8431 9.82635 13.4566 10.0437 14.0166C10.2611 14.5766 10.646 15.0559 11.1459 15.389C11.3574 15.5293 11.4487 15.7938 11.3712 16.0339C11.2936 16.2741 11.062 16.4271 10.8123 16.4281C10.5222 16.4186 10.2322 16.3771 9.94956 16.3059C10.1 16.8121 10.3852 17.2678 10.7747 17.6243C11.1641 17.9808 11.6432 18.2247 12.1606 18.33C12.2865 18.3545 12.4004 18.421 12.4837 18.5186C12.567 18.6161 12.6148 18.7391 12.6192 18.8673C12.6237 18.9955 12.5845 19.1214 12.5082 19.2245C12.4318 19.3276 12.3228 19.4018 12.1989 19.435C11.9428 19.5041 11.6793 19.5487 11.4105 19.5667C11.6751 19.9408 12.024 20.2474 12.4289 20.4619C12.8338 20.6763 13.2835 20.7926 13.7416 20.8014C13.8587 20.8038 13.9722 20.8424 14.0665 20.9118C14.1608 20.9812 14.2314 21.078 14.2687 21.1891C14.3059 21.3001 14.3079 21.42 14.2744 21.5322C14.2409 21.6444 14.1736 21.7436 14.0816 21.8161C13.1369 22.5601 12.0274 23.0666 10.8463 23.2929C11.8325 23.6366 12.8694 23.8119 13.9137 23.8114C19.7692 23.8114 23.268 19.0546 23.268 14.4561C23.268 14.3159 23.2648 14.1735 23.2584 14.0333C23.2537 13.9384 23.2728 13.8439 23.314 13.7583Z" fill="url(#paint0_linear_500_23)"/>
<defs>
<linearGradient id="paint0_linear_500_23" x1="17.0372" y1="0" x2="17.0372" y2="34.0722" gradientUnits="userSpaceOnUse">
<stop stop-color="#BB43CD"/>
<stop offset="1" stop-color="#0285FE"/>
</linearGradient>
</defs>
</svg>
