<svg width="35" height="35" viewBox="0 0 35 35" fill="none" xmlns="http://www.w3.org/2000/svg">
<path fill-rule="evenodd" clip-rule="evenodd" d="M0.223145 17.0361C0.223145 7.6415 7.86677 0 17.2603 0C26.6539 0 34.2975 7.6415 34.2975 17.0361C34.2975 26.4307 26.6539 34.0723 17.2603 34.0723C7.86677 34.0723 0.223145 26.4307 0.223145 17.0361ZM1.36002 17.0361C1.36002 25.8039 8.49258 32.9375 17.2603 32.9375C26.0281 32.9375 33.1606 25.8039 33.1606 17.0361C33.1606 8.26838 26.0281 1.13475 17.2603 1.13475C8.49258 1.13475 1.36002 8.26838 1.36002 17.0361ZM15.848 12.237C14.6813 11.5636 13.2231 12.4055 13.2231 13.7526V21.0509C13.2231 22.398 14.6813 23.24 15.848 22.5666L22.1701 18.9174C23.337 18.2439 23.337 16.5597 22.1701 15.8861L15.848 12.237ZM14.7231 13.7526C14.7231 13.5602 14.9315 13.4399 15.0981 13.5361L21.4203 17.1852C21.587 17.2815 21.587 17.5221 21.4203 17.6183L15.0981 21.2674C14.9315 21.3636 14.7231 21.2434 14.7231 21.0509V13.7526Z" fill="url(#paint0_linear_500_51)"/>
<defs>
<linearGradient id="paint0_linear_500_51" x1="18.1342" y1="12" x2="18.1342" y2="22.8035" gradientUnits="userSpaceOnUse">
<stop stop-color="#BB43CD"/>
<stop offset="1" stop-color="#0285FE"/>
</linearGradient>
</defs>
</svg>
