<svg width="468" height="120" viewBox="0 0 468 120" fill="none" xmlns="http://www.w3.org/2000/svg">
<path id="Vector 166" d="M11.7799 0.877812C10.18 0.447071 8.53389 1.39485 8.10315 2.99473L1.08383 29.0663C0.653087 30.6662 1.60086 32.3124 3.20075 32.7431C4.80063 33.1739 6.44678 32.2261 6.87752 30.6262L13.1169 7.45143L36.2917 13.6908C37.8916 14.1216 39.5377 13.1738 39.9685 11.5739C40.3992 9.97403 39.4514 8.32788 37.8515 7.89714L11.7799 0.877812ZM465.308 76.3628C408.515 96.4052 317.68 116.697 229.9 112.455C142.077 108.211 58.0474 79.4764 13.5999 2.27777L8.40013 5.27155C54.3347 85.053 140.904 114.161 229.611 118.448C318.362 122.737 409.989 102.248 467.305 82.0209L465.308 76.3628Z" fill="url(#paint0_linear_335_126)"/>
<defs>
<linearGradient id="paint0_linear_335_126" x1="213.976" y1="-50.6127" x2="263.768" y2="135.212" gradientUnits="userSpaceOnUse">
<stop stop-color="#0285FE"/>
<stop offset="0.875" stop-color="#0B143D" stop-opacity="0"/>
</linearGradient>
</defs>
</svg>
