<svg width="1141" height="257" viewBox="0 0 1141 257" fill="none" xmlns="http://www.w3.org/2000/svg">
<path fill-rule="evenodd" clip-rule="evenodd" d="M68.7808 197.263H103.332C110.574 197.263 116.358 196.156 120.683 193.943C125.109 191.63 128.277 188.612 130.188 184.891C132.2 181.068 133.206 176.844 133.206 172.217C133.206 166.584 132.25 161.706 130.339 157.582C128.726 153.906 126.234 150.99 122.863 148.833C122.451 148.569 122.026 148.317 121.588 148.076C117.565 145.763 112.184 144.606 105.444 144.606H68.7808V197.263ZM15.8223 238V18.3203H94.7319C108.311 18.3203 120.432 19.5776 131.094 22.0923C141.756 24.5063 150.809 28.228 158.252 33.2573C165.796 38.2866 171.529 44.6235 175.452 52.2681C179.375 59.812 181.336 68.7139 181.336 78.9736C181.336 87.9258 179.425 96.3247 175.603 104.17C173.502 108.484 170.625 112.357 166.972 115.789C163.982 118.599 160.472 121.113 156.441 123.332C154.759 124.25 152.958 125.084 151.039 125.835C154.076 126.612 156.87 127.6 159.423 128.798C159.436 128.804 159.448 128.81 159.461 128.816C160.237 129.181 160.991 129.566 161.722 129.971C163.958 131.193 166.029 132.515 167.936 133.939C173.406 138.023 177.521 142.936 180.28 148.68C184.002 156.425 185.863 164.522 185.863 172.971C185.863 187.355 182.745 199.375 176.508 209.031C170.373 218.688 161.169 225.93 148.897 230.758C136.626 235.586 121.438 238 103.332 238H15.8223ZM189.138 217.124C181.048 229.831 169.129 238.917 154.389 244.716C139.849 250.437 122.663 253 103.332 253H0.822266V3.32031H94.7319C109.18 3.32031 122.468 4.6528 134.472 7.47752C146.526 10.2135 157.355 14.5564 166.612 20.8029C176.131 27.1579 183.63 35.3666 188.778 45.3819C194.007 55.4533 196.336 66.8117 196.336 78.9736C196.336 90.1416 193.933 100.794 189.088 110.74C186.65 115.745 183.512 120.222 179.773 124.194C185.653 129.161 190.416 135.14 193.8 142.183C195.113 144.915 196.245 147.691 197.194 150.51V3.32031H280.153V182.263H353.299C348.174 167.201 345.737 150.615 345.737 132.687V123.785C345.737 105.621 348.238 88.8362 353.502 73.618L353.518 73.5705L353.535 73.5231C358.84 58.5115 366.378 45.3663 376.312 34.3681L376.317 34.3618C386.319 23.3006 398.222 14.8245 411.909 9.0388C425.724 3.14102 440.721 0.302734 456.696 0.302734C472.571 0.302734 487.47 3.14088 501.187 9.0409C514.944 14.8144 526.891 23.2744 536.898 34.3322C546.944 45.3327 554.545 58.4895 559.858 73.5231C560.454 75.209 561.015 76.914 561.542 78.638C562.065 76.7657 562.626 74.9158 563.226 73.0885L563.237 73.0558L563.248 73.0232C568.211 58.134 575.354 45.0683 584.868 34.127L584.876 34.118C594.489 23.0807 606.071 14.602 619.49 8.78307C632.954 2.94459 647.642 0.151855 663.328 0.151855C684.174 0.151855 702.834 3.87791 718.671 12.0984C734.13 20.1229 746.452 31.3745 755.208 45.8376C757.747 50.0014 759.965 54.3206 761.868 58.7878V3.32031H844.826V65.7431L887.716 3.32031H991.282L904.922 116.324L987.533 253H889.633L848.704 181.591L844.826 185.833V253H761.868V199.719C759.966 204.031 757.724 208.194 755.136 212.197C746.004 226.32 733.39 237.191 717.743 244.838L717.722 244.848L717.701 244.859C701.974 252.484 683.95 256.018 664.083 256.018C647.712 256.018 632.535 253.267 618.823 247.424L618.802 247.415L618.78 247.405C605.279 241.603 593.667 233.18 584.114 222.193L584.083 222.158L584.052 222.123C574.637 211.158 567.647 198.113 562.892 183.284L562.877 183.235L562.861 183.185C562.351 181.554 561.869 179.905 561.417 178.238C560.93 179.813 560.414 181.373 559.869 182.917C554.651 197.88 547.097 211.027 537.076 222.109L537.049 222.139L537.022 222.169C527.035 233.095 515.175 241.531 501.561 247.399L501.51 247.421L501.46 247.442C487.749 253.234 472.861 256.018 456.998 256.018C441.048 256.018 426.075 253.239 412.277 247.46L412.205 247.43L412.134 247.399C398.536 241.538 386.65 233.121 376.581 222.233L376.524 222.171L376.468 222.109C375.043 220.534 373.667 218.916 372.34 217.258V253H197.194V199.565C195.3 205.815 192.64 211.691 189.138 217.124ZM357.34 238V197.263H265.153V18.3203H212.194V238H357.34ZM372.34 189.158C376.471 197.741 381.556 205.372 387.594 212.049C396.244 221.403 406.404 228.595 418.071 233.625C429.84 238.553 442.816 241.018 456.998 241.018C471.08 241.018 483.955 238.553 495.623 233.625C507.291 228.595 517.4 221.403 525.95 212.049C534.5 202.594 541.088 191.228 545.715 177.95C550.443 164.572 552.806 149.484 552.806 132.687V123.785C552.806 106.987 550.443 91.8989 545.715 78.521C540.987 65.1431 534.349 53.7769 525.799 44.4224C517.249 34.9673 507.09 27.7754 495.321 22.8467C483.654 17.8174 470.779 15.3027 456.696 15.3027C442.514 15.3027 429.538 17.8174 417.77 22.8467C406.102 27.7754 395.993 34.9673 387.443 44.4224C378.994 53.7769 372.405 65.1431 367.678 78.521C363.051 91.8989 360.737 106.987 360.737 123.785V132.687C360.737 149.484 363.051 164.572 367.678 177.95C368.198 179.411 368.741 180.848 369.307 182.263C370.254 184.626 371.264 186.924 372.34 189.158ZM761.868 148.617V109.212H687.767L687.41 94.5781C687.243 87.7342 686.087 83.0551 684.62 79.9527L684.598 79.9057L684.576 79.8587C683.412 77.3514 681.744 75.6062 679.101 74.2846C676.315 72.8915 671.393 71.6436 663.328 71.6436C658.633 71.6436 655.338 72.5057 652.987 73.6811C650.99 74.6796 648.944 76.4074 646.983 79.5929C645.009 82.8017 643.097 87.701 641.709 94.8663C640.42 101.944 639.703 110.924 639.703 121.974V134.195C639.703 145.321 640.379 154.384 641.602 161.545C642.807 168.607 644.599 173.435 646.489 176.606C648.266 179.587 650.231 181.352 652.333 182.461C654.828 183.62 658.567 184.526 664.083 184.526C670.576 184.526 675.083 183.512 678.141 182.145C680.879 180.829 682.803 179.033 684.252 176.543C685.695 173.968 686.949 169.806 687.108 163.251L687.465 148.617H761.868ZM684.451 195.754C678.919 198.269 672.129 199.526 664.083 199.526C656.84 199.526 650.705 198.319 645.675 195.905C640.747 193.39 636.723 189.518 633.605 184.287C630.487 179.057 628.224 172.317 626.815 164.069C625.407 155.821 624.703 145.863 624.703 134.195V121.974C624.703 110.306 625.458 100.348 626.966 92.1001C628.576 83.7515 630.99 76.9619 634.208 71.7314C637.427 66.501 641.451 62.6787 646.279 60.2646C651.107 57.8506 656.79 56.6436 663.328 56.6436C672.683 56.6436 680.176 58.0518 685.809 60.8682C691.442 63.6846 695.566 67.9092 698.181 73.542C700.796 79.0742 702.205 85.9644 702.406 94.2124H755.213C754.766 89.0183 753.972 84.0183 752.831 79.2124C750.635 69.965 747.154 61.4362 742.389 53.626C735.146 41.6562 724.937 32.2515 711.76 25.4116C698.583 18.5718 682.439 15.1519 663.328 15.1519C649.447 15.1519 636.824 17.6162 625.458 22.5449C614.091 27.4736 604.334 34.6152 596.187 43.9697C588.14 53.2236 581.904 64.4893 577.478 77.7666C573.153 90.9434 570.99 105.78 570.99 122.276V134.195C570.99 150.691 573.052 165.528 577.176 178.705C581.401 191.881 587.486 203.097 595.433 212.351C603.479 221.604 613.236 228.696 624.703 233.625C636.271 238.553 649.397 241.018 664.083 241.018C682.188 241.018 697.879 237.799 711.157 231.361C724.535 224.823 734.996 215.72 742.54 204.052C747.513 196.361 751 187.882 753 178.617C754.035 173.827 754.672 168.827 754.912 163.617H702.104C701.903 171.865 700.293 178.654 697.276 183.985C694.258 189.216 689.983 193.139 684.451 195.754ZM829.826 180.01L851.498 156.302L898.325 238H960.94L886.798 115.336L960.94 18.3203H895.609L848.233 87.272L829.826 115.188V18.3203H776.868V238H829.826V180.01ZM124.853 98.9787C124.871 98.9491 124.89 98.9194 124.908 98.8896C127.221 95.2686 128.378 90.7422 128.378 85.3105C128.378 79.0742 127.221 74.0449 124.908 70.2227C122.594 66.4004 118.923 63.6343 113.894 61.9243C108.965 60.1138 102.578 59.2085 94.7319 59.2085H68.7808V109.904H94.4302C102.678 109.904 109.267 108.999 114.195 107.188C114.296 107.149 114.397 107.109 114.497 107.069C119.23 105.179 122.682 102.482 124.853 98.9787ZM94.4302 94.9038C101.69 94.9038 106.276 94.09 108.901 93.1523C111.42 92.153 111.998 91.2481 112.108 91.0679L112.187 90.9401L112.267 90.8138C112.68 90.1675 113.378 88.6312 113.378 85.3105C113.378 80.7773 112.516 78.7188 112.075 77.9897C111.921 77.7349 111.413 76.9243 109.065 76.1259L108.892 76.0672L108.721 76.0044C106.054 75.0246 101.599 74.2085 94.7319 74.2085H83.7808V94.9038H94.4302ZM83.7808 159.606V182.263H103.332C109.201 182.263 112.349 181.342 113.8 180.615C115.971 179.468 116.608 178.5 116.845 178.039L116.879 177.971L116.915 177.904C117.713 176.389 118.206 174.587 118.206 172.217C118.206 168.254 117.533 165.622 116.73 163.888L116.666 163.751L116.605 163.611C116.149 162.573 115.552 161.875 114.36 161.219L114.235 161.151L114.111 161.08C113.164 160.535 110.671 159.606 105.444 159.606H83.7808ZM481.59 98.0986L481.568 97.995C480.037 90.9379 477.887 85.7273 475.462 81.9551C473.078 78.2481 470.448 75.914 467.644 74.4328L467.494 74.3533L467.345 74.2704C464.617 72.7488 461.204 71.7944 456.696 71.7944C451.762 71.7944 448.229 72.8018 445.595 74.2704L445.498 74.3244L445.401 74.377C442.727 75.8169 440.189 78.104 437.883 81.7937C435.506 85.5961 433.383 90.8438 431.84 97.9277C430.396 104.922 429.601 113.397 429.601 123.483V132.687C429.601 142.64 430.391 151.121 431.84 158.24C433.367 165.153 435.477 170.433 437.897 174.397C440.329 178.223 442.966 180.638 445.693 182.171C448.481 183.684 452.102 184.677 456.998 184.677C461.506 184.677 464.918 183.722 467.647 182.201C470.366 180.685 472.952 178.295 475.297 174.477L475.346 174.396L475.397 174.316C477.892 170.365 480.05 165.086 481.576 158.137L481.59 158.072L481.605 158.006C483.21 150.993 484.093 142.596 484.093 132.687V123.483C484.093 113.456 483.207 105.079 481.614 98.2018L481.59 98.0986ZM438.44 195.301C433.21 192.384 428.784 188.059 425.163 182.326C421.642 176.592 418.977 169.602 417.166 161.354C415.456 153.005 414.601 143.449 414.601 132.687V123.483C414.601 112.62 415.456 103.064 417.166 94.8159C418.977 86.4673 421.642 79.4766 425.163 73.8438C428.683 68.2109 433.059 63.9863 438.289 61.1699C443.52 58.2529 449.655 56.7944 456.696 56.7944C463.436 56.7944 469.421 58.2529 474.651 61.1699C479.982 63.9863 484.458 68.2109 488.079 73.8438C491.7 79.4766 494.416 86.4673 496.227 94.8159C498.138 103.064 499.093 112.62 499.093 123.483V132.687C499.093 143.449 498.138 153.005 496.227 161.354C494.416 169.602 491.7 176.592 488.079 182.326C484.559 188.059 480.183 192.384 474.953 195.301C469.722 198.218 463.737 199.677 456.998 199.677C449.957 199.677 443.771 198.218 438.44 195.301ZM1105.92 0.151855V70.1348H1088.21C1079.87 70.1348 1072.26 71.2922 1065.31 73.4987C1064.03 73.9092 1062.8 74.3581 1061.59 74.8449C1062.01 74.8396 1062.44 74.8369 1062.86 74.8369C1074.83 74.8369 1086.04 77.1177 1096.1 82.1425C1105.87 86.9714 1114.13 93.7587 1120.75 102.398C1127.33 110.845 1132.14 120.542 1135.33 131.287C1138.5 141.976 1140.02 153.336 1140.02 165.276C1140.02 177.835 1137.79 189.788 1133.18 200.975C1128.72 211.933 1122.34 221.617 1114.05 229.898C1105.74 238.21 1095.95 244.628 1084.83 249.17C1073.48 253.808 1061.21 256.018 1048.23 256.018C1034.93 256.018 1022.32 253.756 1010.54 249.07L1010.46 249.036L1010.37 249.001C998.727 244.199 988.464 237.258 979.691 228.245L979.62 228.172L979.55 228.098C970.786 218.847 964.099 207.775 959.351 195.151L959.329 195.094L959.308 195.037C954.575 182.139 952.355 167.922 952.355 152.603V134.044C952.355 113.605 955.691 94.8378 962.718 78.0191L962.735 77.9788L962.752 77.9387C969.721 61.5277 979.295 47.3605 991.559 35.675C1003.75 24.05 1017.77 15.1863 1033.49 9.14564C1049.15 3.13235 1065.61 0.151855 1082.78 0.151855H1105.92ZM1001.91 46.5347C991.244 56.6938 982.795 69.1162 976.559 83.8018C970.423 98.4873 967.355 115.235 967.355 134.044V152.603C967.355 166.483 969.367 178.906 973.39 189.87C977.514 200.833 983.197 210.138 990.44 217.782C997.782 225.326 1006.33 231.11 1016.09 235.133C1025.95 239.056 1036.66 241.018 1048.23 241.018C1059.49 241.018 1069.8 239.106 1079.16 235.284C1088.51 231.462 1096.61 226.131 1103.45 219.291C1110.29 212.451 1115.57 204.455 1119.29 195.301C1123.11 186.047 1125.02 176.039 1125.02 165.276C1125.02 154.614 1123.67 144.707 1120.95 135.553C1118.23 126.4 1114.21 118.403 1108.88 111.563C1103.65 104.724 1097.16 99.3926 1089.42 95.5703C1081.77 91.748 1072.92 89.8369 1062.86 89.8369C1054.12 89.8369 1046.31 91.1544 1039.43 93.7894C1038.47 94.1563 1037.53 94.5488 1036.61 94.9668C1035.55 95.4483 1034.51 95.9507 1033.5 96.4741C1033.45 96.496 1033.41 96.5179 1033.37 96.5398C1028 99.3296 1023.34 102.71 1019.38 106.682C1020.26 101.466 1021.62 96.6553 1023.48 92.251C1025.11 88.4961 1027.01 85.0363 1029.19 81.8715C1031.86 77.9996 1034.93 74.5693 1038.42 71.5806C1044.86 66.0483 1052.3 61.9243 1060.75 59.2085C1069.3 56.4927 1078.45 55.1348 1088.21 55.1348H1090.92V15.1519H1082.78C1080.48 15.1519 1078.19 15.2114 1075.92 15.3306C1063.03 16.0085 1050.68 18.6145 1038.87 23.1484C1024.99 28.4795 1012.67 36.2749 1001.91 46.5347ZM1022.45 186.131C1023.32 188.129 1024.31 189.928 1025.44 191.529C1027.86 194.949 1030.82 197.514 1034.35 199.224C1037.97 200.934 1042.14 201.789 1046.87 201.789C1050.79 201.789 1054.41 200.884 1057.73 199.073C1061.05 197.263 1063.92 194.698 1066.33 191.378C1068.85 188.059 1070.76 184.187 1072.07 179.761C1073.37 175.335 1074.03 170.507 1074.03 165.276C1074.03 159.644 1073.32 154.564 1071.91 150.038C1070.51 145.511 1068.49 141.689 1065.88 138.571C1063.36 135.352 1060.3 132.938 1056.68 131.329C1053.15 129.619 1049.28 128.764 1045.06 128.764C1040.66 128.764 1036.71 129.444 1033.2 130.806C1031.58 131.437 1030.05 132.215 1028.61 133.139C1025.17 135.329 1022.37 138.005 1020.2 141.168C1019.58 142.073 1019.02 143.018 1018.5 144.002C1018.4 144.208 1018.3 144.414 1018.2 144.621V160.146C1018.2 167.188 1018.8 173.323 1020.01 178.554C1020.65 181.336 1021.47 183.861 1022.45 186.131ZM1033.2 148.812V160.146C1033.2 166.382 1033.74 171.337 1034.63 175.181C1035.52 179.028 1036.67 181.428 1037.7 182.879C1038.73 184.344 1039.77 185.168 1040.83 185.696C1042.11 186.289 1044.02 186.789 1046.87 186.789C1048.38 186.789 1049.52 186.468 1050.55 185.905C1051.75 185.247 1052.98 184.234 1054.2 182.556L1054.29 182.437L1054.38 182.321C1055.68 180.592 1056.83 178.388 1057.68 175.511C1058.53 172.634 1059.03 169.256 1059.03 165.276C1059.03 160.879 1058.48 157.336 1057.59 154.494C1056.68 151.556 1055.53 149.575 1054.39 148.21L1054.22 148.011L1054.06 147.805C1053.01 146.463 1051.89 145.615 1050.58 145.036L1050.35 144.932L1050.12 144.821C1048.8 144.18 1047.2 143.764 1045.06 143.764C1040.93 143.764 1038.4 144.675 1036.74 145.748L1036.7 145.771L1036.67 145.794C1035.22 146.711 1034.1 147.712 1033.2 148.812Z" fill="url(#paint0_linear_440_68)"/>
<defs>
<linearGradient id="paint0_linear_440_68" x1="-239" y1="132.896" x2="1372" y2="132.895" gradientUnits="userSpaceOnUse">
<stop stop-color="#E848FF"/>
<stop offset="1" stop-color="#0285FE"/>
</linearGradient>
</defs>
</svg>
