<svg width="32" height="32" viewBox="0 0 32 32" fill="none" xmlns="http://www.w3.org/2000/svg">
<path d="M11.6908 2.92199C13.0648 2.73399 14.2195 3.57466 14.7662 4.66733L16.1108 7.35599C16.8568 8.84799 16.4282 10.5987 15.2975 11.7C14.6295 12.35 13.9582 13.0927 13.5688 13.748C13.543 13.7947 13.535 13.8492 13.5462 13.9013C13.9062 15.852 15.2282 17.7793 16.4075 19.1613C16.4668 19.2272 16.5442 19.2742 16.6301 19.2963C16.7159 19.3185 16.8064 19.3149 16.8902 19.286L19.5402 18.458C20.254 18.2349 21.0206 18.2463 21.7274 18.4905C22.4343 18.7348 23.0444 19.1991 23.4682 19.8153L25.3862 22.6047C25.9062 23.362 26.1695 24.3887 25.7708 25.376C25.4148 26.258 24.7262 27.53 23.4735 28.376C22.1735 29.2533 20.3928 29.5867 18.0628 28.788C15.4595 27.8947 13.0002 25.6547 10.9608 22.79C8.9095 19.9073 7.22084 16.3067 6.19684 12.552C5.2295 9.00666 5.8135 6.61999 7.18817 5.08333C8.51417 3.60066 10.4142 3.09733 11.6908 2.92199ZM13.2755 5.41266C12.9708 4.80399 12.4275 4.50333 11.9175 4.57333C10.7835 4.72933 9.3635 5.15133 8.43084 6.19466C7.54684 7.18333 6.93484 8.92466 7.80417 12.1133C8.78084 15.692 10.3888 19.112 12.3188 21.8233C14.2608 24.552 16.4675 26.4787 18.6035 27.2113C20.5068 27.864 21.7302 27.5413 22.5408 26.9947C23.3982 26.4153 23.9255 25.4947 24.2255 24.752C24.3628 24.412 24.3035 23.972 24.0128 23.5493L22.0948 20.76C21.8729 20.4372 21.5534 20.1939 21.1832 20.0659C20.8129 19.9379 20.4114 19.9319 20.0375 20.0487L17.3875 20.8767C16.5955 21.124 15.7035 20.9033 15.1402 20.2433C13.9128 18.8053 12.3488 16.6 11.9068 14.2033C11.8223 13.7542 11.9038 13.2896 12.1362 12.896C12.6415 12.0467 13.4415 11.1807 14.1342 10.506C14.8108 9.84733 15.0028 8.86733 14.6202 8.10133L13.2755 5.41333V5.41266Z" fill="#3291FF"/>
</svg>
