<svg width="32" height="32" viewBox="0 0 32 32" fill="none" xmlns="http://www.w3.org/2000/svg">
<path d="M16 17.3334C18.2091 17.3334 20 15.5425 20 13.3334C20 11.1242 18.2091 9.33337 16 9.33337C13.7909 9.33337 12 11.1242 12 13.3334C12 15.5425 13.7909 17.3334 16 17.3334Z" stroke="#2F7DDE" stroke-width="2.83333" stroke-linecap="round" stroke-linejoin="round"/>
<path d="M16.0002 2.66669C13.1712 2.66669 10.4581 3.79049 8.45769 5.79088C6.4573 7.79127 5.3335 10.5044 5.3335 13.3334C5.3335 15.856 5.8695 17.5067 7.3335 19.3334L16.0002 29.3334L24.6668 19.3334C26.1308 17.5067 26.6668 15.856 26.6668 13.3334C26.6668 10.5044 25.543 7.79127 23.5426 5.79088C21.5422 3.79049 18.8291 2.66669 16.0002 2.66669V2.66669Z" stroke="#2F7DDE" stroke-width="2.83333" stroke-linecap="round" stroke-linejoin="round"/>
</svg>
