<svg width="24" height="24" viewBox="0 0 24 24" fill="none" xmlns="http://www.w3.org/2000/svg">
<g id="fluent:chat-16-regular">
<path id="Vector" d="M9.00003 10.5002C9.00003 10.3013 9.07905 10.1105 9.2197 9.96989C9.36035 9.82924 9.55112 9.75022 9.75003 9.75022H14.25C14.4489 9.75022 14.6397 9.82924 14.7804 9.96989C14.921 10.1105 15 10.3013 15 10.5002C15 10.6991 14.921 10.8899 14.7804 11.0305C14.6397 11.1712 14.4489 11.2502 14.25 11.2502H9.75003C9.55112 11.2502 9.36035 11.1712 9.2197 11.0305C9.07905 10.8899 9.00003 10.6991 9.00003 10.5002ZM9.75003 12.7502C9.55112 12.7502 9.36035 12.8292 9.2197 12.9699C9.07905 13.1105 9.00003 13.3013 9.00003 13.5002C9.00003 13.6991 9.07905 13.8899 9.2197 14.0305C9.36035 14.1712 9.55112 14.2502 9.75003 14.2502H12.75C12.9489 14.2502 13.1397 14.1712 13.2804 14.0305C13.421 13.8899 13.5 13.6991 13.5 13.5002C13.5 13.3013 13.421 13.1105 13.2804 12.9699C13.1397 12.8292 12.9489 12.7502 12.75 12.7502H9.75003ZM3.00003 12.0002C3.00041 10.0188 3.65467 8.09286 4.8613 6.52121C6.06794 4.94956 7.7595 3.82002 9.67359 3.30784C11.5877 2.79565 13.6173 2.92944 15.4476 3.68845C17.2779 4.44746 18.8065 5.78926 19.7964 7.50571C20.7863 9.22216 21.1821 11.2173 20.9224 13.1816C20.6627 15.146 19.762 16.9697 18.36 18.3699C16.958 19.7701 15.1332 20.6685 13.1685 20.9258C11.2039 21.183 9.20923 20.7848 7.49403 19.7927L3.98703 20.9627C3.85746 21.006 3.71854 21.013 3.58526 20.9831C3.45198 20.9532 3.3294 20.8875 3.23075 20.793C3.1321 20.6985 3.06112 20.5789 3.02549 20.447C2.98985 20.3151 2.9909 20.176 3.02853 20.0447L4.09653 16.3082C3.37505 14.9871 2.99795 13.5055 3.00003 12.0002ZM12 4.50022C10.6758 4.50013 9.37516 4.85066 8.23031 5.51618C7.08547 6.18169 6.13723 7.13845 5.48201 8.28922C4.82678 9.43998 4.48792 10.7437 4.49986 12.0679C4.51181 13.3921 4.87414 14.6895 5.55003 15.8282C5.60203 15.9162 5.63551 16.0139 5.64841 16.1152C5.6613 16.2166 5.65335 16.3195 5.62503 16.4177L4.86153 19.0877L7.34853 18.2597C7.45415 18.2245 7.5663 18.2132 7.67682 18.2267C7.78735 18.2402 7.89349 18.2781 7.98753 18.3377C8.97043 18.9598 10.0846 19.3447 11.2418 19.462C12.3991 19.5793 13.5678 19.4258 14.6555 19.0137C15.7433 18.6016 16.7203 17.9421 17.5092 17.0874C18.2982 16.2327 18.8776 15.2062 19.2015 14.089C19.5255 12.9718 19.5852 11.7946 19.3758 10.6504C19.1665 9.50616 18.6938 8.42633 17.9953 7.49623C17.2967 6.56614 16.3914 5.81127 15.3509 5.29129C14.3104 4.77132 13.1632 4.50049 12 4.50022Z" fill="#E6E6E6"/>
</g>
</svg>
