<svg width="15" height="28" viewBox="0 0 15 28" fill="none" xmlns="http://www.w3.org/2000/svg">
<path d="M8.32678 27.5365L13.9156 22.015C14.4585 21.4471 14.4585 20.5321 13.8836 19.9957C13.3088 19.4593 12.4146 19.4593 11.8717 19.9957L8.77389 23.0562L8.77389 1.4198C8.77389 0.631024 8.10323 -2.71693e-07 7.30483 -3.06592e-07C6.50643 -3.41491e-07 5.86772 0.631024 5.86772 1.4198L5.86772 23.0562L2.76993 19.9957C2.19508 19.4593 1.26894 19.4593 0.72603 20.0273C0.18312 20.5952 0.18312 21.4786 0.72603 22.015L6.31482 27.5365C6.85773 28.1044 7.75194 28.1675 8.32678 27.6311C8.32678 27.5996 8.35872 27.5996 8.32678 27.5365Z" fill="white"/>
</svg>
