<svg width="32" height="32" viewBox="0 0 32 32" fill="none" xmlns="http://www.w3.org/2000/svg">
<g id="clarity:email-line" clip-path="url(#clip0_1701_2900)">
<path id="Vector" d="M28.4445 5.3335H3.55561C3.08411 5.3335 2.63193 5.5208 2.29853 5.8542C1.96513 6.18759 1.77783 6.63978 1.77783 7.11127V24.8891C1.77783 25.3605 1.96513 25.8127 2.29853 26.1461C2.63193 26.4795 3.08411 26.6668 3.55561 26.6668H28.4445C28.916 26.6668 29.3682 26.4795 29.7016 26.1461C30.035 25.8127 30.2223 25.3605 30.2223 24.8891V7.11127C30.2223 6.63978 30.035 6.18759 29.7016 5.8542C29.3682 5.5208 28.916 5.3335 28.4445 5.3335ZM27.0756 24.8891H5.03117L11.2534 18.4535L9.97339 17.2179L3.55561 23.8579V8.46239L14.6045 19.4579C14.9376 19.7891 15.3882 19.9749 15.8578 19.9749C16.3275 19.9749 16.7781 19.7891 17.1112 19.4579L28.4445 8.18683V23.7424L21.9023 17.2002L20.6489 18.4535L27.0756 24.8891ZM4.72005 7.11127H27.0045L15.8578 18.1957L4.72005 7.11127Z" fill="#C5C5C5"/>
</g>
<defs>
<clipPath id="clip0_1701_2900">
<rect width="32" height="32" fill="white"/>
</clipPath>
</defs>
</svg>
