<svg width="500" height="381" viewBox="0 0 500 381" fill="none" xmlns="http://www.w3.org/2000/svg">
<path d="M73.0864 342.203C170.532 393.153 328.526 393.153 425.972 342.203C523.418 291.252 523.418 208.76 425.972 157.856C328.526 106.953 170.532 106.906 73.0864 157.856C-24.3594 208.807 -24.3594 291.288 73.0864 342.203Z" fill="#F5F5F5"/>
<path d="M126.916 108.032L150.401 94.4765L126.916 80.9213L103.218 94.4765L126.916 108.032Z" stroke="#EBEBEB" stroke-width="1.08419" stroke-linecap="round" stroke-linejoin="round"/>
<path d="M108.681 94.4882L126.928 41.7485V105.022L108.681 94.4882Z" fill="#E0E0E0"/>
<path d="M126.928 105.022L145.164 94.4882L126.928 41.7485V105.022Z" fill="#E6E6E6"/>
<path d="M98.2181 124.573L121.703 111.017L98.2181 97.4623L74.5201 111.017L98.2181 124.573Z" stroke="#EBEBEB" stroke-width="1.08419" stroke-linecap="round" stroke-linejoin="round"/>
<path d="M79.9825 111.029L98.2181 32.7078V121.563L79.9825 111.029Z" fill="#E0E0E0"/>
<path d="M98.218 121.563L116.454 111.029L98.218 32.7078V121.563Z" fill="#E6E6E6"/>
<path d="M69.5198 141.114L93.0044 127.559L69.5198 114.004L45.8101 127.559L69.5198 141.114Z" stroke="#EBEBEB" stroke-width="1.08419" stroke-linecap="round" stroke-linejoin="round"/>
<path d="M51.2843 127.571L69.5198 80.9213V138.104L51.2843 127.571Z" fill="#E0E0E0"/>
<path d="M69.5199 138.104L87.7554 127.571L69.5199 80.9213V138.104Z" fill="#E6E6E6"/>
<path d="M40.8217 157.655L64.3063 144.1L40.8217 130.545L17.1119 144.1L40.8217 157.655Z" stroke="#EBEBEB" stroke-width="1.08419" stroke-linecap="round" stroke-linejoin="round"/>
<path d="M22.5743 144.112L40.8217 64.9133V154.645L22.5743 144.112Z" fill="#E0E0E0"/>
<path d="M40.8217 154.645L59.0572 144.112L40.8217 64.9133V154.645Z" fill="#E6E6E6"/>
<path d="M353.812 90.0094L479.055 162.312" stroke="#EBEBEB" stroke-width="1.08419" stroke-miterlimit="10" stroke-linecap="round"/>
<path d="M479.055 154.645C478.904 145.569 478.267 136.508 477.148 127.499C475.963 117.712 473.593 101.195 464.173 95.7443C454.753 90.2938 451.198 100.152 449.836 104.998C448.058 111.29 438.828 107.309 437.548 96.941C436.269 86.5732 435.427 53.5383 424.36 47.1754C413.294 40.8125 409.727 56.1569 408.471 60.4463C405.995 68.8709 398.731 66.5485 396.361 60.9676C393.992 55.3868 387.522 54.0241 385.081 61.88C382.64 69.7358 381.135 78.7529 373.232 74.1199C366.289 70.0557 369.476 62.6502 362.71 59.131C357.355 56.3584 354.866 69.5818 354.866 82.9593L479.055 154.645Z" fill="#E0E0E0"/>
<path d="M469.955 85.6963C469.955 87.1419 468.652 87.5566 467.064 86.6442L457.585 81.1463C456.806 80.7046 456.139 80.0886 455.638 79.3466C455.136 78.6045 454.813 77.7565 454.694 76.8688C454.694 75.4351 455.997 75.0085 457.585 75.9327L467.064 81.4307C467.843 81.8697 468.51 82.4835 469.011 83.2236C469.513 83.9637 469.836 84.8101 469.955 85.6963Z" fill="#E6E6E6"/>
<path d="M431.043 39.2129C431.043 40.6585 429.752 41.0732 428.152 40.1608L418.673 34.6629C417.892 34.2234 417.224 33.608 416.722 32.8656C416.221 32.1231 415.899 31.274 415.782 30.3855C415.782 28.9517 417.073 28.5252 418.673 29.4494L428.152 34.9473C428.932 35.3849 429.6 35.9983 430.101 36.7387C430.603 37.4791 430.926 38.3262 431.043 39.2129Z" fill="#E6E6E6"/>
<path d="M400.224 47.7678C400.224 49.2134 398.933 49.6281 397.345 48.7157L387.866 43.2178C387.085 42.7783 386.417 42.1629 385.915 41.4204C385.413 40.678 385.091 39.8289 384.975 38.9403C384.975 37.5066 386.266 37.0801 387.866 38.0043L397.345 43.5022C398.122 43.9419 398.787 44.556 399.286 45.2962C399.786 46.0364 400.107 46.8825 400.224 47.7678Z" fill="#E6E6E6"/>
<path d="M371.005 50.5997C371.005 52.0453 369.713 52.46 368.114 51.5358L358.634 46.0497C357.857 45.6074 357.192 44.991 356.693 44.2489C356.193 43.5068 355.872 42.6591 355.755 41.7722C355.755 40.3385 357.047 39.912 358.634 40.8362L368.114 46.3223C368.893 46.7632 369.56 47.379 370.062 48.1212C370.564 48.8634 370.886 49.7118 371.005 50.5997Z" fill="#E6E6E6"/>
<path d="M348.598 79.3335V1" stroke="#EBEBEB" stroke-width="1.08419" stroke-miterlimit="10" stroke-linecap="round"/>
<path d="M45.0162 252.601C45.0162 252.601 46.9594 235.206 41.5681 218.642C36.4968 202.977 26.3067 194.671 20.1334 192.183C8.46213 187.526 7.41943 200.382 16.164 209.281C22.5742 215.822 38.0016 229.306 40.6557 252.174L45.0162 252.601Z" fill="#4A90E2"/>
<path opacity="0.7" d="M45.0162 252.601C45.0162 252.601 46.9594 235.206 41.5681 218.642C36.4968 202.977 26.3067 194.671 20.1334 192.183C8.46213 187.526 7.41943 200.382 16.164 209.281C22.5742 215.822 38.0016 229.306 40.6557 252.174L45.0162 252.601Z" fill="#20E7B8"/>
<path d="M16.9816 195.773C24.0317 200.513 42.9782 214.198 43.6654 252.47" stroke="#FAFAFA" stroke-width="1.08419" stroke-miterlimit="10" stroke-linecap="round"/>
<path d="M40.0515 264.485C36.4257 246.949 29.0201 240.586 15.7848 233.808C10.121 230.917 3.48561 227.694 1.09212 224.009C-1.30136 220.324 -0.0927694 215.371 8.05931 215.478C22.9534 215.68 39.9212 233.631 42.1843 253.3L40.0515 264.485Z" fill="#4A90E2"/>
<path opacity="0.8" d="M40.0515 264.485C36.4257 246.949 29.0201 240.586 15.7848 233.808C10.121 230.917 3.48561 227.694 1.09212 224.009C-1.30136 220.324 -0.0927694 215.371 8.05931 215.478C22.9534 215.68 39.9212 233.631 42.1843 253.3L40.0515 264.485Z" fill="#20E7B8"/>
<path d="M6.80334 219.293C18.048 220.822 35.8096 233.927 41.4497 257.21" stroke="#FAFAFA" stroke-width="1.08419" stroke-miterlimit="10" stroke-linecap="round"/>
<path d="M455.464 244.389C460.026 235.621 463.569 211.023 457.703 199.648C451.838 188.273 443.117 189.185 441.767 192.87C440.582 196.271 443.508 202.349 447.3 209.589C451.092 216.829 454.291 232.339 450.701 239.567L455.464 244.389Z" fill="#4A90E2"/>
<path opacity="0.7" d="M455.464 244.389C460.026 235.621 463.569 211.023 457.703 199.648C451.838 188.273 443.117 189.185 441.767 192.87C440.582 196.271 443.508 202.349 447.3 209.589C451.092 216.829 454.291 232.339 450.701 239.567L455.464 244.389Z" fill="#20E7B8"/>
<path d="M447.525 193.463C451.258 196.46 461.945 214.791 454.469 239.946" stroke="#FAFAFA" stroke-width="1.08419" stroke-miterlimit="10" stroke-linecap="round"/>
<path d="M454.018 253.679C451.269 248.181 445.25 239.081 449.35 232.837C453.45 226.592 457.739 232.114 461.033 228.038C464.327 223.962 460.559 217.374 463.403 213.819C468.901 206.828 472.882 214.945 477.195 213.878C480.311 213.108 483.783 206.2 492.753 207.041C501.722 207.883 501.272 214.992 497.279 218.334C493.286 221.675 488.546 225.005 491.627 230.017C494.352 234.46 495.762 242.671 486.437 245.859C477.527 248.904 481.935 252.767 480.513 257.127C479.091 261.487 470.678 265.623 461.732 262.258L454.018 253.679Z" fill="#4A90E2"/>
<path opacity="0.8" d="M454.018 253.679C451.269 248.181 445.25 239.081 449.35 232.837C453.45 226.592 457.739 232.114 461.033 228.038C464.327 223.962 460.559 217.374 463.403 213.819C468.901 206.828 472.882 214.945 477.195 213.878C480.311 213.108 483.783 206.2 492.753 207.041C501.722 207.883 501.272 214.992 497.279 218.334C493.286 221.675 488.546 225.005 491.627 230.017C494.352 234.46 495.762 242.671 486.437 245.859C477.527 248.904 481.935 252.767 480.513 257.127C479.091 261.487 470.678 265.623 461.732 262.258L454.018 253.679Z" fill="#20E7B8"/>
<path d="M493.985 211.07C484.269 213.677 460.997 232.588 459.031 256.321" stroke="#FAFAFA" stroke-width="1.08419" stroke-miterlimit="10" stroke-linecap="round"/>
<path d="M486.982 235.988C482.183 234.898 469.991 234.744 465.429 236.96" stroke="#FAFAFA" stroke-width="1.08419" stroke-miterlimit="10" stroke-linecap="round"/>
<path d="M468.142 215.905C468.142 215.905 471.697 222.789 471.188 228.583" stroke="#FAFAFA" stroke-width="1.08419" stroke-miterlimit="10" stroke-linecap="round"/>
<path d="M335.6 148.662C334.012 143.163 331.173 138.106 327.306 133.886C322.735 128.902 317.39 124.689 311.476 121.409C304.608 117.519 297.306 114.453 289.721 112.274C281.365 109.862 272.793 108.274 264.127 107.534C255.176 106.716 246.169 106.716 237.218 107.534C228.556 108.274 219.988 109.862 211.636 112.274C204.046 114.451 196.74 117.517 189.87 121.409C183.955 124.717 178.614 128.958 174.051 133.969C170.188 138.191 167.349 143.247 165.757 148.745C164.341 153.83 164.341 159.205 165.757 164.29C167.337 169.79 170.177 174.845 174.051 179.054C178.617 184.069 183.963 188.315 189.882 191.626C196.744 195.515 204.042 198.577 211.624 200.75C219.98 203.172 228.552 204.775 237.218 205.537C246.17 206.342 255.176 206.342 264.127 205.537C272.798 204.772 281.374 203.165 289.733 200.738C297.315 198.566 304.614 195.503 311.476 191.614C317.397 188.306 322.743 184.06 327.306 179.042C331.175 174.829 334.014 169.775 335.6 164.279C337.017 159.169 337.017 153.771 335.6 148.662Z" fill="#37474F"/>
<path d="M164.691 148.685H336.655V157.454L164.691 156.968V148.685Z" fill="#37474F"/>
<path d="M237.218 99.6781L250.655 148.662L211.636 104.465C219.987 102.037 228.555 100.434 237.218 99.6781Z" fill="#455A64"/>
<path d="M264.127 99.6782L250.69 148.662L237.254 99.6545C246.194 98.8469 255.189 98.8549 264.127 99.6782Z" fill="#455A64"/>
<path d="M289.721 104.465L250.69 148.662L264.127 99.6544C272.795 100.418 281.367 102.029 289.721 104.465Z" fill="#455A64"/>
<path d="M327.294 126.149C331.159 130.375 333.997 135.435 335.588 140.936L250.702 148.662L327.294 126.149Z" fill="#455A64"/>
<path d="M335.6 140.948C337.004 146.031 337.004 151.399 335.6 156.482L250.702 148.662L335.6 140.948Z" fill="#455A64"/>
<path d="M335.6 156.482C334.012 161.981 331.173 167.038 327.306 171.258L250.702 148.745L335.6 156.482Z" fill="#455A64"/>
<path d="M327.306 171.258C322.742 176.271 317.396 180.513 311.476 183.817L250.679 148.662L327.306 171.258Z" fill="#455A64"/>
<path d="M250.69 148.721L289.733 192.953C281.373 195.366 272.797 196.953 264.127 197.693L250.679 148.685L250.69 148.721Z" fill="#455A64"/>
<path d="M250.679 148.733L264.127 197.74C255.176 198.558 246.169 198.558 237.218 197.74L250.679 148.733Z" fill="#455A64"/>
<path d="M250.655 148.721L237.194 197.728C228.525 196.989 219.949 195.402 211.589 192.989L250.655 148.721Z" fill="#455A64"/>
<path d="M250.655 148.721L211.553 192.953C203.972 190.772 196.674 187.705 189.81 183.818L250.655 148.721Z" fill="#455A64"/>
<path d="M250.643 148.662L174.04 171.175C170.167 166.959 167.327 161.901 165.745 156.399L250.643 148.662Z" fill="#455A64"/>
<path d="M250.643 148.662L165.757 156.482C164.341 151.401 164.341 146.029 165.757 140.948L250.643 148.662Z" fill="#455A64"/>
<path d="M250.643 148.662L165.757 140.901C167.352 135.401 170.19 130.341 174.051 126.113L250.643 148.662Z" fill="#455A64"/>
<path d="M189.87 113.613L250.643 148.662L174.051 126.149C178.615 121.146 183.957 116.913 189.87 113.613Z" fill="#455A64"/>
<path d="M311.476 113.612L250.69 148.662L289.721 104.441C297.31 106.627 304.612 109.705 311.476 113.612Z" fill="#455A64"/>
<path d="M311.476 113.613C317.39 116.91 322.732 121.144 327.294 126.149L250.702 148.662L311.476 113.613Z" fill="#455A64"/>
<path d="M250.655 148.662L189.846 183.77C183.928 180.463 178.582 176.221 174.016 171.21L250.619 148.697L250.655 148.662Z" fill="#455A64"/>
<path d="M211.636 104.465L250.655 148.662L189.87 113.565C196.739 109.681 204.046 106.626 211.636 104.465Z" fill="#455A64"/>
<path d="M250.69 148.721L311.476 183.818C304.612 187.705 297.314 190.772 289.733 192.953L250.69 148.721Z" fill="#455A64"/>
<path d="M198.673 99.2278L246.958 127.097L244.588 87.6988C226.827 88.4571 211.743 92.2488 198.673 99.2278Z" fill="#4A90E2"/>
<path opacity="0.2" d="M198.673 99.2278L246.958 127.097L244.588 87.6988C226.827 88.4571 211.743 92.2488 198.673 99.2278Z" fill="#F2F2F2"/>
<path d="M246.958 127.097V142.311L198.673 114.43V99.2278L246.958 127.097Z" fill="#4A90E2"/>
<path opacity="0.1" d="M246.958 127.097V142.311L198.673 114.43V99.2278L246.958 127.097Z" fill="black"/>
<path d="M309.556 103.138L254.138 128.139V143.341L309.556 118.34V103.138Z" fill="#4A90E2"/>
<path opacity="0.3" d="M309.556 103.138L254.138 128.139V143.341L309.556 118.34V103.138Z" fill="black"/>
<path d="M309.556 103.138C294.638 92.9835 274.744 87.6277 251.686 87.5566L253.167 112.191L254.138 128.139L309.556 103.138Z" fill="#4A90E2"/>
<path opacity="0.1" d="M309.556 103.138C294.638 92.9835 274.744 87.6277 251.686 87.5566L253.167 112.191L254.138 128.139L309.556 103.138Z" fill="black"/>
<path d="M251.674 87.5566V102.759L254.138 143.342V128.139L251.674 87.5566Z" fill="#263238"/>
<path d="M265.407 157.418L293.738 184.671C295.325 184.066 296.795 183.486 298.477 182.68C317.992 173.888 328.194 160.712 328.183 147.417V132.369C326.038 126.646 320.137 126.658 313.964 121.622L256.105 147.69L255.525 147.951L265.407 157.418Z" fill="#4A90E2"/>
<path opacity="0.6" d="M265.407 157.418L293.738 184.671C295.325 184.066 296.795 183.486 298.477 182.68C317.992 173.888 328.194 160.712 328.183 147.417V132.369C326.038 126.646 320.137 126.658 313.964 121.622L256.105 147.69L255.525 147.951L265.407 157.418Z" fill="#F2F2F2"/>
<path d="M265.407 142.216L293.738 169.468C295.325 168.864 296.795 168.283 298.477 167.466C331.145 152.714 337.685 125.698 313.988 106.373L256.129 132.44L255.548 132.701L265.407 142.216Z" fill="#4A90E2"/>
<path opacity="0.8" d="M265.407 142.216L293.738 169.468C295.325 168.864 296.795 168.283 298.477 167.466C331.145 152.714 337.685 125.698 313.988 106.373L256.129 132.44L255.548 132.701L265.407 142.216Z" fill="#F2F2F2"/>
<path d="M293.69 184.647V169.433L255.489 132.737V147.939L293.69 184.647Z" fill="#4A90E2"/>
<path opacity="0.6" d="M293.69 184.647V169.433L255.489 132.737V147.939L293.69 184.647Z" fill="#F2F2F2"/>
<path d="M193.65 117.333C185.509 122.464 176.469 125.698 173.175 131.931V147.145C173.175 155.072 176.86 163.106 184.502 170.452C195.166 180.678 212.051 187.905 232.111 190.785C250.676 193.525 269.616 192.146 287.588 186.744V171.542L262.646 162.774L248.001 148.662L193.65 117.333Z" fill="#4A90E2"/>
<path opacity="0.6" d="M193.65 117.333C185.509 122.464 176.469 125.698 173.175 131.931V147.145C173.175 155.072 176.86 163.106 184.502 170.452C195.166 180.678 212.051 187.905 232.111 190.785C250.676 193.525 269.616 192.146 287.588 186.744V171.542L262.646 162.774L248.001 148.662L193.65 117.333Z" fill="black"/>
<path d="M193.65 102.131C170.26 116.847 166.492 137.938 184.502 155.238C195.166 165.475 212.051 172.691 232.111 175.583C250.676 178.317 269.615 176.938 287.588 171.542L262.646 147.572L248.001 133.507L193.65 102.131Z" fill="#4A90E2"/>
<path opacity="0.3" d="M193.65 102.131C170.26 116.847 166.492 137.938 184.502 155.238C195.166 165.475 212.051 172.691 232.111 175.583C250.676 178.317 269.615 176.938 287.588 171.542L262.646 147.572L248.001 133.507L193.65 102.131Z" fill="black"/>
<path d="M465.05 267.921C463.462 262.422 460.623 257.365 456.756 253.146C452.195 248.133 446.853 243.891 440.937 240.586C434.07 236.696 426.768 233.629 419.183 231.45C410.826 229.038 402.254 227.451 393.589 226.711C384.638 225.893 375.631 225.893 366.68 226.711C358.018 227.452 349.45 229.039 341.098 231.45C333.512 233.629 326.21 236.696 319.343 240.586C313.423 243.89 308.077 248.132 303.513 253.146C299.649 257.368 296.811 262.424 295.219 267.921C293.803 273.007 293.803 278.382 295.219 283.467C296.798 288.966 299.638 294.021 303.513 298.231C308.079 303.246 313.424 307.491 319.343 310.803C326.207 314.687 333.505 317.75 341.086 319.926C349.447 322.332 358.023 323.92 366.692 324.666C375.643 325.472 384.649 325.472 393.601 324.666C402.269 323.921 410.845 322.334 419.206 319.926C426.791 317.755 434.09 314.688 440.949 310.791C446.873 307.487 452.223 303.246 456.791 298.231C460.657 294.015 463.496 288.962 465.085 283.467C466.484 278.378 466.472 273.004 465.05 267.921Z" fill="#37474F"/>
<path d="M294.141 267.91H466.104V276.678L294.141 276.192V267.91Z" fill="#37474F"/>
<path d="M366.668 218.902L380.117 267.91L341.086 223.689C349.437 221.262 358.005 219.659 366.668 218.902Z" fill="#455A64"/>
<path d="M393.577 218.902L380.14 267.91L366.692 218.902C375.635 218.086 384.634 218.086 393.577 218.902Z" fill="#455A64"/>
<path d="M419.171 223.689L380.14 267.91L393.577 218.902C402.244 219.658 410.816 221.261 419.171 223.689Z" fill="#455A64"/>
<path d="M456.744 245.385C460.611 249.609 463.45 254.67 465.038 260.172L380.152 267.933L456.744 245.385Z" fill="#455A64"/>
<path d="M465.05 260.172C466.46 265.254 466.46 270.624 465.05 275.706L380.164 267.933L465.05 260.172Z" fill="#455A64"/>
<path d="M465.05 275.706C463.458 281.204 460.62 286.26 456.756 290.482L380.152 267.969L465.05 275.706Z" fill="#455A64"/>
<path d="M456.767 290.482C452.194 295.49 446.845 299.731 440.925 303.042L380.128 267.933L456.767 290.482Z" fill="#455A64"/>
<path d="M380.14 267.945L419.183 312.177C410.821 314.585 402.246 316.172 393.577 316.917L380.128 267.91L380.14 267.945Z" fill="#455A64"/>
<path d="M380.128 267.957L393.577 316.917C384.626 317.728 375.619 317.728 366.668 316.917L380.128 267.957Z" fill="#455A64"/>
<path d="M380.117 267.945L366.668 316.917C357.999 316.171 349.424 314.583 341.062 312.177L380.117 267.945Z" fill="#455A64"/>
<path d="M380.116 267.945L341.015 312.177C333.435 309.991 326.138 306.925 319.272 303.042L380.116 267.945Z" fill="#455A64"/>
<path d="M380.093 267.933L303.489 290.446C299.617 286.231 296.777 281.172 295.195 275.671L380.093 267.933Z" fill="#455A64"/>
<path d="M380.093 267.933L295.207 275.706C293.791 270.625 293.791 265.253 295.207 260.172L380.093 267.933Z" fill="#455A64"/>
<path d="M380.093 267.921L295.207 260.16C296.799 254.659 299.637 249.599 303.501 245.373L380.093 267.921Z" fill="#455A64"/>
<path d="M319.331 232.789L380.093 267.874L303.501 245.361C308.064 240.343 313.41 236.097 319.331 232.789Z" fill="#455A64"/>
<path d="M440.925 232.789L380.14 267.874L419.171 223.654C426.758 225.828 434.06 228.895 440.925 232.789Z" fill="#455A64"/>
<path d="M440.925 232.789C446.841 236.09 452.183 240.328 456.744 245.337L380.164 267.85L440.925 232.789Z" fill="#455A64"/>
<path d="M380.117 267.921L319.32 303.042C313.404 299.73 308.059 295.49 303.489 290.482L380.093 267.969L380.117 267.921Z" fill="#455A64"/>
<path d="M341.086 223.689L380.117 267.91L319.331 232.789C326.198 228.907 333.5 225.852 341.086 223.689Z" fill="#455A64"/>
<path d="M380.14 267.945L440.925 303.042C434.061 306.93 426.763 309.996 419.182 312.177L380.14 267.945Z" fill="#455A64"/>
<path d="M304.378 248.679V273.301C303.754 271.051 303.435 268.728 303.43 266.393V248.679H304.378Z" fill="#4A90E2"/>
<path opacity="0.3" d="M304.378 248.679V273.301C303.754 271.051 303.435 268.728 303.43 266.393V248.679H304.378Z" fill="black"/>
<path d="M380.093 248.702L304.378 255.622C303.122 251.09 303.122 246.302 304.378 241.771L380.093 248.702Z" fill="#4A90E2"/>
<path d="M380.093 248.679L304.378 241.747C305.801 236.841 308.335 232.328 311.784 228.559L380.093 248.679Z" fill="#4A90E2"/>
<path d="M325.896 217.386L380.093 248.679L311.784 228.536C315.858 224.085 320.623 220.32 325.896 217.386Z" fill="#4A90E2"/>
<path d="M345.304 209.233L380.117 248.667L325.896 217.385C332.021 213.911 338.536 211.175 345.304 209.233Z" fill="#4A90E2"/>
<path d="M368.125 204.968L380.116 248.667L345.304 209.234C352.753 207.067 360.397 205.638 368.125 204.968Z" fill="#4A90E2"/>
<path d="M392.191 204.968L380.14 248.667L368.149 204.968C376.146 204.231 384.194 204.231 392.191 204.968Z" fill="#4A90E2"/>
<path d="M414.952 209.234L380.14 248.667L392.191 204.968C399.899 205.642 407.523 207.071 414.952 209.234Z" fill="#4A90E2"/>
<g opacity="0.2">
<path opacity="0.2" d="M380.093 248.702L304.378 255.622C303.122 251.09 303.122 246.302 304.378 241.771L380.093 248.702Z" fill="#F2F2F2"/>
<path opacity="0.2" d="M380.093 248.679L304.378 241.747C305.801 236.841 308.335 232.328 311.784 228.559L380.093 248.679Z" fill="#F2F2F2"/>
<path opacity="0.2" d="M325.896 217.385L380.093 248.679L311.784 228.535C315.858 224.085 320.623 220.32 325.896 217.385Z" fill="#F2F2F2"/>
<path opacity="0.2" d="M345.304 209.234L380.116 248.667L325.896 217.386C332.02 213.911 338.535 211.175 345.304 209.234Z" fill="#F2F2F2"/>
<path opacity="0.2" d="M368.125 204.968L380.116 248.667L345.304 209.234C352.753 207.067 360.397 205.638 368.125 204.968Z" fill="#F2F2F2"/>
<path opacity="0.2" d="M392.191 204.968L380.14 248.667L368.149 204.968C376.146 204.231 384.194 204.231 392.191 204.968Z" fill="#F2F2F2"/>
<path opacity="0.2" d="M414.952 209.234L380.14 248.667L392.191 204.968C399.899 205.642 407.523 207.071 414.952 209.234Z" fill="#F2F2F2"/>
</g>
<path d="M444.326 260.504L432.963 271.168L424.325 279.332L416.09 287.081L414.988 288.112V305.802C421.756 303.863 428.27 301.131 434.397 297.662C439.675 294.702 444.444 290.914 448.521 286.441C451.968 282.684 454.495 278.178 455.902 273.277C456.53 271.028 456.853 268.704 456.862 266.369V248.691L444.326 260.504Z" fill="#4A90E2"/>
<path opacity="0.3" d="M444.326 260.504L432.963 271.168L424.325 279.332L416.09 287.081L414.988 288.112V305.802C421.756 303.863 428.27 301.131 434.397 297.662C439.675 294.702 444.444 290.914 448.521 286.441C451.968 282.684 454.495 278.178 455.902 273.277C456.53 271.028 456.853 268.704 456.862 266.369V248.691L444.326 260.504Z" fill="black"/>
<path d="M448.473 228.583C451.917 232.355 454.451 236.866 455.879 241.771L380.152 248.702L448.473 228.583Z" fill="#4A90E2"/>
<path d="M456.827 248.714C456.817 251.053 456.494 253.381 455.867 255.634L432.927 253.525L380.152 248.691L444.29 242.766L455.867 241.712C456.501 243.992 456.824 246.347 456.827 248.714Z" fill="#4A90E2"/>
<path d="M455.867 255.634C454.457 260.534 451.93 265.04 448.485 268.798L424.289 261.689L380.152 248.655L432.927 253.489L455.867 255.634Z" fill="#4A90E2"/>
<path d="M448.485 268.798C444.408 273.271 439.64 277.059 434.361 280.019L416.054 269.426L380.164 248.714L424.301 261.748L448.485 268.798Z" fill="#4A90E2"/>
<path d="M434.361 217.386L380.14 248.691L414.952 209.257C421.719 211.195 428.233 213.924 434.361 217.386Z" fill="#4A90E2"/>
<path d="M434.361 217.386C439.635 220.338 444.4 224.118 448.473 228.583L380.152 248.726L434.361 217.386Z" fill="#4A90E2"/>
<path d="M434.361 280.019C428.234 283.484 421.72 286.212 414.952 288.148L380.164 248.714L416.054 269.426L434.361 280.019Z" fill="#4A90E2"/>
<g opacity="0.2">
<path opacity="0.2" d="M448.473 228.583C451.917 232.355 454.451 236.866 455.879 241.771L380.152 248.702L448.473 228.583Z" fill="#F2F2F2"/>
<path opacity="0.2" d="M456.827 248.714C456.817 251.053 456.494 253.381 455.867 255.634L432.927 253.525L380.152 248.69L444.29 242.766L455.867 241.711C456.501 243.992 456.824 246.347 456.827 248.714Z" fill="#F2F2F2"/>
<path opacity="0.2" d="M455.867 255.634C454.457 260.534 451.93 265.04 448.485 268.798L424.289 261.689L380.152 248.655L432.927 253.489L455.867 255.634Z" fill="#F2F2F2"/>
<path opacity="0.2" d="M448.485 268.798C444.408 273.271 439.639 277.059 434.361 280.019L416.054 269.426L380.164 248.714L424.301 261.748L448.485 268.798Z" fill="#F2F2F2"/>
<path opacity="0.2" d="M434.361 217.386L380.14 248.691L414.952 209.257C421.719 211.195 428.233 213.924 434.361 217.386Z" fill="#F2F2F2"/>
<path opacity="0.2" d="M434.361 217.385C439.635 220.338 444.399 224.118 448.473 228.583L380.152 248.726L434.361 217.385Z" fill="#F2F2F2"/>
<path opacity="0.2" d="M434.361 280.019C428.234 283.484 421.719 286.212 414.952 288.147L380.164 248.714L416.054 269.426L434.361 280.019Z" fill="#F2F2F2"/>
</g>
<path d="M414.964 288.159V305.85L380.117 266.369V248.667L414.964 288.159Z" fill="#263238"/>
<path d="M380.117 266.369L304.378 273.325V255.622L380.117 248.667V266.369Z" fill="#4A90E2"/>
<path opacity="0.1" d="M380.117 266.369L304.378 273.325V255.622L380.117 248.667V266.369Z" fill="black"/>
<path d="M206.162 267.921C204.574 262.422 201.735 257.365 197.868 253.146C193.305 248.135 187.964 243.894 182.049 240.586C175.179 236.694 167.873 233.627 160.283 231.45C151.931 229.038 143.363 227.451 134.701 226.711C125.75 225.893 116.743 225.893 107.792 226.711C99.1266 227.452 90.5546 229.039 82.1983 231.45C74.6046 233.628 67.2945 236.694 60.4199 240.586C54.504 243.891 49.1621 248.133 44.6016 253.146C40.7344 257.365 37.8956 262.422 36.3073 267.921C34.9029 273.008 34.9029 278.38 36.3073 283.467C37.8929 288.964 40.7321 294.017 44.6016 298.231C49.1612 303.248 54.5031 307.493 60.4199 310.803C67.2819 314.692 74.5804 317.754 82.1628 319.926C90.5239 322.334 99.0996 323.921 107.768 324.666C116.72 325.472 125.726 325.472 134.677 324.666C143.346 323.921 151.922 322.334 160.283 319.926C167.868 317.755 175.167 314.688 182.026 310.791C187.951 307.488 193.301 303.247 197.868 298.231C201.737 294.017 204.576 288.964 206.162 283.467C207.566 278.38 207.566 273.008 206.162 267.921Z" fill="#37474F"/>
<path d="M35.2408 267.91H207.205V276.678L35.2408 276.192V267.91Z" fill="#37474F"/>
<path d="M107.816 218.902L121.252 267.91L82.2219 223.689C90.5766 221.262 99.1487 219.659 107.816 218.902Z" fill="#455A64"/>
<path d="M134.677 218.902L121.241 267.909L107.816 218.902C116.751 218.087 125.742 218.087 134.677 218.902Z" fill="#455A64"/>
<path d="M160.259 223.689L121.241 267.91L134.677 218.902C143.341 219.658 151.909 221.261 160.259 223.689Z" fill="#455A64"/>
<path d="M197.868 245.385C201.735 249.609 204.574 254.67 206.162 260.172L121.264 267.933L197.868 245.385Z" fill="#455A64"/>
<path d="M206.162 260.172C207.566 265.255 207.566 270.623 206.162 275.706L121.264 267.933L206.162 260.172Z" fill="#455A64"/>
<path d="M206.162 275.706C204.574 281.205 201.735 286.262 197.868 290.482L121.264 267.969L206.162 275.706Z" fill="#455A64"/>
<path d="M197.868 290.482C193.298 295.49 187.953 299.731 182.038 303.042L121.229 267.933L197.868 290.482Z" fill="#455A64"/>
<path d="M121.241 267.945L160.283 312.177C151.922 314.585 143.346 316.172 134.677 316.917L121.217 267.91L121.241 267.945Z" fill="#455A64"/>
<path d="M121.217 267.957L134.677 316.917C125.742 317.726 116.751 317.726 107.816 316.917L121.217 267.957Z" fill="#455A64"/>
<path d="M121.205 267.945L107.816 316.917C99.1469 316.172 90.5712 314.584 82.2101 312.177L121.205 267.945Z" fill="#455A64"/>
<path d="M121.205 267.945L82.1035 312.177C74.5429 309.991 67.2652 306.925 60.4199 303.042L121.205 267.945Z" fill="#455A64"/>
<path d="M121.193 267.933L44.5897 290.446C40.7221 286.227 37.8833 281.17 36.2954 275.671L121.193 267.933Z" fill="#455A64"/>
<path d="M121.193 267.933L36.2954 275.706C34.8914 270.623 34.8914 265.255 36.2954 260.172L121.193 267.933Z" fill="#455A64"/>
<path d="M121.193 267.921L36.2954 260.16C37.8836 254.658 40.7223 249.597 44.5897 245.373L121.193 267.921Z" fill="#455A64"/>
<path d="M60.4199 232.789L121.193 267.874L44.6016 245.361C49.1603 240.343 54.5024 236.097 60.4199 232.789Z" fill="#455A64"/>
<path d="M182.026 232.789L121.241 267.874L160.259 223.654C167.851 225.826 175.158 228.892 182.026 232.789Z" fill="#455A64"/>
<path d="M182.026 232.789C187.951 236.106 193.301 240.359 197.868 245.385L121.276 267.898L182.026 232.789Z" fill="#455A64"/>
<path d="M121.205 267.921L60.4199 303.042C54.5021 299.733 49.1567 295.492 44.5897 290.482L121.193 267.969L121.205 267.921Z" fill="#455A64"/>
<path d="M82.1746 223.689L121.205 267.91L60.4199 232.789C67.2864 228.907 74.5889 225.852 82.1746 223.689Z" fill="#455A64"/>
<path d="M121.241 267.945L182.026 303.042C175.162 306.93 167.864 309.996 160.283 312.177L121.241 267.945Z" fill="#455A64"/>
<path d="M144.085 237.529L153.884 226.415C153.884 213.381 137.959 213.061 130.921 212.433C123.883 211.805 111.809 207.764 111.809 222.599L115.174 234.875C124.89 234.25 134.645 235.146 144.085 237.529Z" fill="#4A90E2"/>
<path opacity="0.6" d="M144.085 237.529L153.884 226.415C153.884 213.381 137.959 213.061 130.921 212.433C123.883 211.805 111.809 207.764 111.809 222.599L115.174 234.875C124.89 234.25 134.645 235.146 144.085 237.529Z" fill="#F2F2F2"/>
<path d="M144.085 220.075L153.884 208.973C140.163 205.402 125.948 204.113 111.809 205.158L115.174 217.386C124.892 216.773 134.647 217.68 144.085 220.075Z" fill="#4A90E2"/>
<path opacity="0.8" d="M144.085 220.075L153.884 208.973C140.163 205.402 125.948 204.113 111.809 205.158L115.174 217.386C124.892 216.773 134.647 217.68 144.085 220.075Z" fill="#F2F2F2"/>
<path d="M115.174 217.433V234.898L111.809 222.623V205.157L115.174 217.433Z" fill="#4A90E2"/>
<path d="M153.884 208.973L144.085 220.075V237.553L153.884 226.438V208.973Z" fill="#4A90E2"/>
<g opacity="0.6">
<path opacity="0.6" d="M115.174 217.433V234.898L111.809 222.623V205.157L115.174 217.433Z" fill="#F2F2F2"/>
<path opacity="0.6" d="M153.885 208.973L144.085 220.075V237.553L153.885 226.438V208.973Z" fill="#F2F2F2"/>
</g>
<path d="M148.872 221.485V238.951C152.961 240.271 156.906 241.997 160.65 244.105C163.917 245.96 166.918 248.248 169.572 250.906L188.791 245.254C184.97 241.354 180.618 238.011 175.864 235.325C170.615 232.315 164.999 220.111 148.872 221.485Z" fill="#4A90E2"/>
<path opacity="0.6" d="M148.872 221.485V238.951C152.961 240.271 156.906 241.997 160.65 244.105C163.917 245.96 166.918 248.248 169.572 250.906L188.791 245.254C184.97 241.354 180.618 238.011 175.864 235.325C170.615 232.315 164.999 220.111 148.872 221.485Z" fill="black"/>
<path d="M158.671 210.395L148.872 221.485C152.965 222.795 156.911 224.522 160.65 226.64C163.917 228.494 166.918 230.782 169.572 233.441L188.791 227.789C184.976 223.881 180.623 220.538 175.864 217.859C170.417 214.764 164.653 212.261 158.671 210.395Z" fill="#4A90E2"/>
<path opacity="0.3" d="M158.671 210.395L148.872 221.485C152.965 222.795 156.911 224.522 160.65 226.64C163.917 228.494 166.918 230.782 169.572 233.441L188.791 227.789C184.976 223.881 180.623 220.538 175.864 217.859C170.417 214.764 164.653 212.261 158.671 210.395Z" fill="black"/>
<path d="M169.573 233.441L188.792 227.777V245.254L169.573 250.906V233.441Z" fill="#4A90E2"/>
<path opacity="0.6" d="M169.573 233.441L188.792 227.777V245.254L169.573 250.906V233.441Z" fill="black"/>
<path d="M198.436 248.939H191.943C191.706 248.631 191.505 248.323 191.268 248.015L172.025 236.166V253.643C176.125 258.916 177.677 264.675 176.611 270.327L197.868 272.306C198.227 270.543 198.406 268.749 198.401 266.95L198.436 248.939Z" fill="#4A90E2"/>
<path opacity="0.6" d="M198.436 248.939H191.943C191.706 248.631 191.505 248.323 191.268 248.015L172.025 236.166V253.643C176.125 258.916 177.677 264.675 176.611 270.327L197.868 272.306C198.227 270.543 198.406 268.749 198.401 266.95L198.436 248.939Z" fill="black"/>
<path d="M176.599 252.932L197.868 254.84C199.598 246.629 197.406 238.18 191.256 230.55L172.013 236.202C176.113 241.474 177.725 247.245 176.599 252.932Z" fill="#4A90E2"/>
<path opacity="0.3" d="M176.599 252.932L197.868 254.84C199.598 246.629 197.406 238.18 191.256 230.55L172.013 236.202C176.113 241.474 177.725 247.245 176.599 252.932Z" fill="black"/>
<path d="M197.868 254.84V272.317L176.599 270.362V252.897L197.868 254.84Z" fill="#4A90E2"/>
<path opacity="0.6" d="M197.868 254.84V272.317L176.599 270.362V252.897L197.868 254.84Z" fill="black"/>
<path d="M109.866 235.396V217.919C98.0166 212.456 75.9538 218.002 68.5601 234.27L83.7741 243.062C91.946 238.975 100.782 236.379 109.866 235.396Z" fill="#4A90E2"/>
<path opacity="0.3" d="M109.866 235.396V217.919C98.0166 212.456 75.9538 218.002 68.5601 234.27L83.7741 243.062C91.946 238.975 100.782 236.379 109.866 235.396Z" fill="black"/>
<path d="M109.866 217.919L106.489 205.608C92.1633 207.219 79.0465 211.165 68.572 216.805L83.7861 225.585C91.9543 221.499 100.786 218.903 109.866 217.919Z" fill="#4A90E2"/>
<path opacity="0.1" d="M109.866 217.919L106.489 205.608C92.1633 207.219 79.0465 211.165 68.572 216.805L83.7861 225.585C91.9543 221.499 100.786 218.903 109.866 217.919Z" fill="black"/>
<path d="M83.7741 225.585V243.062L68.5601 234.27V216.805L83.7741 225.585Z" fill="#263238"/>
<path d="M67.861 227.789L64.7329 236.451C54.5072 242.778 48.0496 250.397 45.3954 258.371L66.7235 260.314C68.6786 254.852 73.1338 249.65 80.0299 245.266V227.789H67.861Z" fill="#4A90E2"/>
<path opacity="0.3" d="M67.861 227.789L64.7329 236.451C54.5072 242.778 48.0496 250.397 45.3954 258.371L66.7235 260.314C68.6786 254.852 73.1338 249.65 80.0299 245.266V227.789H67.861Z" fill="black"/>
<path d="M79.9825 227.789L64.7329 218.985C54.5072 225.301 48.0496 232.931 45.3954 240.894L66.7235 242.849C68.6312 237.387 73.0864 232.173 79.9825 227.789Z" fill="#4A90E2"/>
<path opacity="0.1" d="M79.9825 227.789L64.7329 218.985C54.5072 225.301 48.0496 232.931 45.3954 240.894L66.7235 242.849C68.6312 237.387 73.0864 232.173 79.9825 227.789Z" fill="black"/>
<path d="M45.3954 240.894V258.371L66.6761 260.314V242.849L45.3954 240.894Z" fill="#263238"/>
<path d="M65.8348 263.383V245.906L59.5075 245.337L44.009 249.378V266.831C44.1083 273.766 46.6224 280.449 51.1184 285.73L70.3611 280.078C66.3443 274.806 64.7802 269.035 65.8348 263.383Z" fill="#4A90E2"/>
<path opacity="0.3" d="M65.8348 263.383V245.906L59.5075 245.337L44.009 249.378V266.831C44.1083 273.766 46.6224 280.449 51.1184 285.73L70.3611 280.078C66.3443 274.806 64.7802 269.035 65.8348 263.383Z" fill="black"/>
<path d="M51.1896 268.265L70.4323 262.601V280.078L51.1896 285.73V268.265Z" fill="#263238"/>
<path d="M65.8467 245.906L44.5186 243.963C42.7886 252.186 44.9807 260.622 51.1303 268.265L70.373 262.601C66.3443 257.328 64.7803 251.558 65.8467 245.906Z" fill="#4A90E2"/>
<path opacity="0.1" d="M65.8467 245.906L44.5186 243.963C42.7886 252.186 44.9807 260.622 51.1303 268.265L70.373 262.601C66.3443 257.328 64.7803 251.558 65.8467 245.906Z" fill="black"/>
<path d="M88.6085 285.707C79.5915 280.505 75.0889 273.692 75.0889 266.879V249.378H167.357V266.843C167.357 273.668 162.854 280.481 153.837 285.683C135.827 296.11 106.631 296.11 88.6085 285.707Z" fill="#37474F"/>
<path d="M121.229 276.038C146.704 276.038 167.357 264.112 167.357 249.401C167.357 234.691 146.704 222.765 121.229 222.765C95.7529 222.765 75.1007 234.691 75.1007 249.401C75.1007 264.112 95.7529 276.038 121.229 276.038Z" fill="#455A64"/>
<path d="M83.7741 290.707V288.479L53.6422 271.026V288.479C57.4649 292.383 61.8211 295.726 66.5813 298.409C72.0288 301.505 77.7927 304.007 83.7741 305.874L93.5613 294.783C90.1954 293.688 86.9226 292.325 83.7741 290.707Z" fill="#4A90E2"/>
<path opacity="0.3" d="M83.7741 290.707V288.479L53.6422 271.026V288.479C57.4649 292.383 61.8211 295.726 66.5813 298.409C72.0288 301.505 77.7927 304.007 83.7741 305.874L93.5613 294.783C90.1954 293.688 86.9226 292.325 83.7741 290.707Z" fill="black"/>
<path d="M81.748 272.163C78.4775 270.313 75.4722 268.029 72.8139 265.374L53.5948 271.026C57.4205 274.926 61.7763 278.269 66.5339 280.955C71.9839 284.046 77.7472 286.549 83.7267 288.42L93.514 277.318C89.4255 276.008 85.4827 274.281 81.748 272.163Z" fill="#4A90E2"/>
<path opacity="0.1" d="M81.748 272.163C78.4775 270.313 75.4722 268.029 72.8139 265.374L53.5948 271.026C57.4205 274.926 61.7763 278.269 66.5339 280.955C71.9839 284.046 77.7472 286.549 83.7267 288.42L93.514 277.318C89.4255 276.008 85.4827 274.281 81.748 272.163Z" fill="black"/>
<path d="M83.7742 305.885V288.42L93.5614 277.318V294.795L83.7742 305.885Z" fill="#263238"/>
<path d="M88.5612 289.83V307.307C102.282 310.878 116.497 312.167 130.637 311.123V293.657L88.5612 289.83Z" fill="#4A90E2"/>
<path opacity="0.1" d="M88.5612 289.83V307.307C102.282 310.878 116.497 312.167 130.637 311.123V293.657L88.5612 289.83Z" fill="black"/>
<path d="M98.3366 278.728L88.5375 289.83C102.259 293.399 116.473 294.692 130.613 293.657L127.272 281.37C117.548 282.001 107.785 281.109 98.3366 278.728Z" fill="#4A90E2"/>
<path opacity="0.2" d="M98.3366 278.728L88.5375 289.83C102.259 293.399 116.473 294.692 130.613 293.657L127.272 281.37C117.548 282.001 107.785 281.109 98.3366 278.728Z" fill="#F2F2F2"/>
<path d="M162.463 288.479L177.724 297.295C187.95 290.98 194.408 283.349 197.062 275.375V257.909L175.734 273.431C173.814 278.894 169.359 284.107 162.463 288.479Z" fill="#4A90E2"/>
<path opacity="0.1" d="M162.463 288.479L177.724 297.295C187.95 290.98 194.408 283.349 197.062 275.375V257.909L175.734 273.431C173.814 278.894 169.359 284.107 162.463 288.479Z" fill="black"/>
<path d="M162.463 271.014L177.724 279.83C187.95 273.502 194.408 265.883 197.062 257.909L175.734 255.966C173.814 261.428 169.359 266.63 162.463 271.014Z" fill="#4A90E2"/>
<path opacity="0.2" d="M162.463 271.014L177.724 279.83C187.95 273.502 194.408 265.883 197.062 257.909L175.734 255.966C173.814 261.428 169.359 266.63 162.463 271.014Z" fill="#F2F2F2"/>
<path d="M177.713 279.83V297.295L162.463 288.491V271.014L177.713 279.83Z" fill="#4A90E2"/>
<path opacity="0.3" d="M177.713 279.83V297.295L162.463 288.491V271.014L177.713 279.83Z" fill="black"/>
<path d="M135.957 293.219V297.959C134.831 298.136 133.717 298.29 132.58 298.421L135.957 310.72C149.761 309.18 162.961 305.447 173.874 299.546V282.022L135.957 293.219Z" fill="#4A90E2"/>
<path opacity="0.1" d="M135.957 293.219V297.959C134.831 298.136 133.717 298.29 132.58 298.421L135.957 310.72C149.761 309.18 162.961 305.447 173.874 299.546V282.022L135.957 293.219Z" fill="black"/>
<path d="M132.58 280.896L135.957 293.219C149.761 291.679 162.961 287.958 173.874 282.057L158.624 273.242C150.473 277.336 141.651 279.929 132.58 280.896Z" fill="#4A90E2"/>
<path opacity="0.2" d="M132.58 280.896L135.957 293.219C149.761 291.679 162.961 287.958 173.874 282.057L158.624 273.242C150.473 277.336 141.651 279.929 132.58 280.896Z" fill="#F2F2F2"/>
<path d="M135.957 293.183V310.649L132.58 298.373V280.896L135.957 293.183Z" fill="#4A90E2"/>
<path opacity="0.3" d="M135.957 293.183V310.649L132.58 298.373V280.896L135.957 293.183Z" fill="black"/>
<path d="M431.659 176.317C431.617 175.547 431.395 174.797 431.01 174.128C430.625 173.459 430.089 172.89 429.444 172.466L397.357 153.946C396.172 153.235 395.141 153.816 395.141 155.238V186.247C395.181 187.018 395.403 187.768 395.788 188.437C396.173 189.106 396.71 189.675 397.357 190.097L410.793 197.847L415.035 215.016C415.021 215.33 415.132 215.637 415.345 215.869C415.557 216.102 415.853 216.24 416.167 216.254C416.481 216.268 416.788 216.157 417.02 215.945C417.253 215.733 417.391 215.437 417.405 215.122L421.292 203.902L429.503 208.641C430.688 209.352 431.719 208.771 431.719 207.361L431.659 176.317Z" fill="#4A90E2"/>
<path opacity="0.5" d="M431.659 176.317C431.617 175.547 431.395 174.797 431.01 174.128C430.625 173.459 430.089 172.89 429.444 172.466L397.357 153.946C396.172 153.235 395.141 153.816 395.141 155.238V186.247C395.181 187.018 395.403 187.768 395.788 188.437C396.173 189.106 396.71 189.675 397.357 190.097L410.793 197.847L415.035 215.016C415.021 215.33 415.132 215.637 415.345 215.869C415.557 216.102 415.853 216.24 416.167 216.254C416.481 216.268 416.788 216.157 417.02 215.945C417.253 215.733 417.391 215.437 417.405 215.122L421.292 203.902L429.503 208.641C430.688 209.352 431.719 208.771 431.719 207.361L431.659 176.317Z" fill="#F2F2F2"/>
<path d="M407.298 168.07C407.953 168.443 408.558 168.897 409.099 169.421C409.583 169.892 410.015 170.412 410.39 170.973C410.716 171.47 410.982 172.003 411.184 172.561C411.351 173.036 411.459 173.529 411.504 174.03C411.504 174.54 411.564 175.073 411.564 175.63C411.564 176.187 411.564 176.696 411.504 177.17C411.475 177.552 411.366 177.924 411.184 178.26C411.007 178.572 410.726 178.811 410.39 178.936C409.968 179.052 409.522 179.052 409.099 178.936C408.462 178.788 407.853 178.536 407.298 178.189C406.64 177.821 406.031 177.371 405.485 176.85C404.999 176.393 404.57 175.88 404.205 175.322C403.586 174.406 403.199 173.352 403.08 172.253C403.08 171.744 403.08 171.21 403.08 170.653C403.08 170.097 403.08 169.587 403.08 169.125C403.116 168.739 403.229 168.365 403.411 168.023C403.583 167.707 403.866 167.466 404.205 167.348C404.62 167.217 405.061 167.197 405.485 167.288C406.131 167.44 406.744 167.705 407.298 168.07ZM418.626 175.286C418.747 175.197 418.89 175.144 419.04 175.132C419.256 175.146 419.464 175.216 419.645 175.334L421.339 176.317C421.533 176.428 421.703 176.577 421.837 176.756C421.947 176.907 422.009 177.089 422.014 177.277C422.019 177.316 422.019 177.356 422.014 177.395C421.994 177.439 421.966 177.48 421.931 177.514L407.973 187.823C407.852 187.913 407.709 187.97 407.559 187.988C407.341 187.974 407.132 187.9 406.954 187.775L405.26 186.804C405.063 186.692 404.893 186.538 404.762 186.353C404.648 186.207 404.582 186.029 404.573 185.844C404.563 185.801 404.563 185.756 404.573 185.713C404.589 185.667 404.618 185.626 404.656 185.595L418.626 175.286ZM408.791 175.286C408.808 175.113 408.808 174.938 408.791 174.765V173.237C408.807 173.051 408.807 172.865 408.791 172.68C408.752 172.263 408.627 171.86 408.424 171.495C408.151 171.051 407.761 170.69 407.298 170.452C406.753 170.132 406.374 170.049 406.113 170.191C406.001 170.281 405.91 170.395 405.847 170.524C405.783 170.653 405.749 170.794 405.746 170.938C405.746 171.044 405.746 171.21 405.746 171.459C405.746 171.708 405.746 171.945 405.746 172.206C405.746 172.466 405.746 172.727 405.746 172.976C405.746 173.225 405.746 173.414 405.746 173.545C405.79 173.96 405.915 174.362 406.113 174.729C406.404 175.18 406.814 175.541 407.298 175.772C407.843 176.092 408.222 176.175 408.424 176.033C408.531 175.947 408.618 175.839 408.679 175.716C408.741 175.594 408.775 175.459 408.779 175.322L408.791 175.286ZM419.526 185.014C420.185 185.387 420.794 185.841 421.339 186.365C421.819 186.836 422.248 187.356 422.619 187.917C422.953 188.409 423.22 188.943 423.413 189.505C423.577 189.981 423.689 190.474 423.744 190.974C423.744 191.484 423.744 192.017 423.744 192.574C423.744 193.131 423.744 193.64 423.744 194.114C423.708 194.496 423.595 194.867 423.413 195.204C423.332 195.364 423.22 195.506 423.083 195.622C422.947 195.738 422.789 195.825 422.619 195.88C422.201 196.002 421.757 196.002 421.339 195.88C420.698 195.732 420.085 195.48 419.526 195.133C418.872 194.765 418.266 194.315 417.725 193.794C417.239 193.334 416.806 192.822 416.433 192.266C416.106 191.771 415.839 191.238 415.64 190.678C415.474 190.203 415.367 189.71 415.32 189.209C415.32 188.688 415.32 188.154 415.32 187.597C415.32 187.041 415.32 186.531 415.32 186.069C415.347 185.683 415.456 185.307 415.64 184.967C415.814 184.653 416.096 184.413 416.433 184.292C416.858 184.187 417.301 184.187 417.725 184.292C418.365 184.436 418.975 184.693 419.526 185.05V185.014ZM421.031 192.266C421.04 192.092 421.04 191.918 421.031 191.745V190.252C421.031 190.015 421.031 189.825 421.031 189.707C420.981 189.293 420.857 188.891 420.664 188.522C420.369 188.074 419.96 187.714 419.479 187.479C418.934 187.159 418.554 187.076 418.353 187.218C418.241 187.308 418.15 187.422 418.087 187.551C418.023 187.68 417.989 187.821 417.986 187.965C417.974 188.138 417.974 188.313 417.986 188.486C417.986 188.723 417.986 188.972 417.986 189.233C417.986 189.493 417.986 189.754 417.986 190.015C417.975 190.2 417.975 190.386 417.986 190.572C418.022 190.988 418.148 191.392 418.353 191.756C418.623 192.203 419.013 192.564 419.479 192.799C420.024 193.119 420.403 193.202 420.664 193.06C420.775 192.966 420.865 192.851 420.928 192.72C420.992 192.589 421.027 192.447 421.031 192.301V192.266Z" fill="#FAFAFA"/>
<path d="M292.849 57.4248C292.806 56.6545 292.583 55.905 292.198 55.2363C291.814 54.5676 291.278 53.9982 290.633 53.5739L258.546 35.0658C257.361 34.3549 256.33 34.9236 256.33 36.3455V67.3542C256.372 68.1266 256.594 68.8785 256.978 69.5494C257.363 70.2203 257.9 70.7915 258.546 71.217L271.983 78.9662L276.225 96.0998C276.271 96.3652 276.407 96.6069 276.609 96.7849C276.811 96.963 277.068 97.0668 277.337 97.0792C277.607 97.0916 277.872 97.0119 278.09 96.8533C278.307 96.6946 278.465 96.4665 278.535 96.2064L282.422 84.9855L290.633 89.7251C291.818 90.436 292.849 89.8672 292.849 88.4454V57.4248Z" fill="#4A90E2"/>
<path opacity="0.5" d="M292.849 57.4248C292.806 56.6545 292.583 55.905 292.198 55.2363C291.814 54.5676 291.278 53.9982 290.633 53.5739L258.546 35.0658C257.361 34.3549 256.33 34.9236 256.33 36.3455V67.3542C256.372 68.1266 256.594 68.8785 256.978 69.5494C257.363 70.2203 257.9 70.7915 258.546 71.217L271.983 78.9662L276.225 96.0998C276.271 96.3652 276.407 96.6069 276.609 96.7849C276.811 96.963 277.068 97.0668 277.337 97.0792C277.607 97.0916 277.872 97.0119 278.09 96.8533C278.307 96.6946 278.465 96.4665 278.535 96.2064L282.422 84.9855L290.633 89.7251C291.818 90.436 292.849 89.8672 292.849 88.4454V57.4248Z" fill="#F2F2F2"/>
<path d="M268.488 49.2253C269.142 49.5978 269.748 50.0517 270.289 50.5761C270.769 51.0494 271.202 51.5694 271.58 52.1283C271.91 52.6223 272.177 53.1557 272.374 53.716C272.541 54.1907 272.648 54.6842 272.694 55.1853C272.694 55.6948 272.753 56.228 272.753 56.7849C272.753 57.3418 272.753 57.8513 272.694 58.3253C272.667 58.7111 272.558 59.0868 272.374 59.4272C272.202 59.7403 271.919 59.9771 271.58 60.0908C271.163 60.2268 270.716 60.2473 270.289 60.15C269.649 60.0024 269.04 59.7459 268.488 59.3917C267.827 59.0272 267.217 58.577 266.675 58.0528C266.189 57.5957 265.759 57.0826 265.395 56.5243C265.06 56.0329 264.793 55.4989 264.601 54.9365C264.436 54.4605 264.325 53.9678 264.269 53.4672C264.269 52.9459 264.269 52.4127 264.269 51.8676C264.269 51.3226 264.269 50.7893 264.269 50.3272C264.306 49.9416 264.419 49.567 264.601 49.2253C264.772 48.9093 265.056 48.6685 265.395 48.5499C265.815 48.445 266.255 48.445 266.675 48.5499C267.313 48.6687 267.927 48.8972 268.488 49.2253ZM279.815 56.4413C279.939 56.3576 280.081 56.3047 280.23 56.2873C280.447 56.3015 280.656 56.3753 280.834 56.5005L282.529 57.4722C282.72 57.586 282.889 57.7347 283.026 57.9106C283.136 58.0629 283.198 58.2444 283.204 58.4319C283.208 58.4753 283.208 58.519 283.204 58.5623C283.18 58.6044 283.153 58.6441 283.121 58.6808L269.163 68.9893C269.039 69.0731 268.897 69.1259 268.748 69.1434C268.531 69.1291 268.322 69.0554 268.144 68.9301L266.449 67.9585C266.253 67.8512 266.083 67.7014 265.952 67.5201C265.842 67.3677 265.78 67.1863 265.774 66.9987C265.763 66.96 265.763 66.9189 265.774 66.8802C265.79 66.8304 265.819 66.7856 265.857 66.7499L279.815 56.4413ZM269.98 56.4413C269.998 56.2679 269.998 56.0933 269.98 55.9199V54.3914C269.996 54.2101 269.996 54.0277 269.98 53.8464C269.946 53.4294 269.82 53.0251 269.613 52.6615C269.344 52.2114 268.954 51.846 268.488 51.6069C267.942 51.2989 267.563 51.2041 267.303 51.3581C267.193 51.4502 267.104 51.5641 267.04 51.6926C266.977 51.8212 266.941 51.9615 266.935 52.1046C266.935 52.1994 266.935 52.3771 266.935 52.6141C266.935 52.8511 266.935 53.0999 266.935 53.3724C266.935 53.645 266.935 53.8938 266.935 54.1426C266.935 54.3914 266.935 54.581 266.935 54.6995C266.982 55.1142 267.106 55.5163 267.303 55.8844C267.593 56.3351 268.003 56.6962 268.488 56.9271C269.033 57.247 269.412 57.33 269.613 57.1878C269.723 57.1032 269.812 56.9958 269.876 56.873C269.939 56.7502 269.975 56.615 269.98 56.4768V56.4413ZM280.716 66.1693C281.377 66.5419 281.987 67 282.529 67.5319C283.012 67.9957 283.441 68.5124 283.808 69.0723C284.141 69.5649 284.407 70.0986 284.602 70.66C284.766 71.1363 284.877 71.629 284.934 72.1293C284.934 72.6507 284.934 73.1839 284.934 73.7408C284.934 74.2977 284.934 74.8072 284.934 75.2693C284.897 75.6549 284.785 76.0295 284.602 76.3713C284.431 76.6873 284.148 76.9281 283.808 77.0466C283.39 77.164 282.947 77.164 282.529 77.0466C281.887 76.899 281.275 76.6468 280.716 76.3001C280.066 75.9246 279.461 75.4754 278.915 74.9612C278.431 74.4945 277.998 73.9782 277.623 73.4209C277.298 72.9242 277.031 72.3914 276.829 71.8331C276.662 71.3584 276.555 70.8649 276.509 70.3638C276.509 69.8543 276.45 69.3211 276.45 68.7642C276.45 68.2073 276.45 67.6978 276.509 67.2239C276.538 66.8383 276.647 66.4629 276.829 66.1219C277.007 65.8138 277.288 65.5788 277.623 65.4584C278.04 65.3239 278.485 65.2995 278.915 65.3873C279.558 65.5539 280.167 65.8305 280.716 66.2048V66.1693ZM282.22 73.4209C282.23 73.2472 282.23 73.0732 282.22 72.8995V71.4065C282.22 71.1696 282.22 70.98 282.22 70.8615C282.18 70.4457 282.055 70.0426 281.853 69.6766C281.563 69.2223 281.153 68.8573 280.668 68.622C280.123 68.314 279.744 68.2192 279.543 68.3732C279.429 68.4615 279.336 68.5746 279.273 68.704C279.209 68.8334 279.176 68.9755 279.175 69.1197C279.162 69.2893 279.162 69.4596 279.175 69.6292C279.175 69.8662 279.175 70.115 279.175 70.3875C279.175 70.6601 279.175 70.9089 279.175 71.1577C279.164 71.3431 279.164 71.5292 279.175 71.7146C279.21 72.1316 279.335 72.5359 279.543 72.8995C279.812 73.3496 280.202 73.715 280.668 73.9541C281.213 74.2621 281.608 74.3451 281.853 74.2029C281.965 74.1129 282.056 73.9994 282.12 73.8704C282.183 73.7414 282.217 73.6001 282.22 73.4564V73.4209Z" fill="#FAFAFA"/>
<path d="M72.5531 175.357C72.5953 174.587 72.8177 173.837 73.2025 173.168C73.5874 172.499 74.1239 171.93 74.7689 171.507L106.856 152.987C108.041 152.276 109.072 152.856 109.072 154.278V185.287C109.031 186.058 108.81 186.808 108.425 187.478C108.04 188.147 107.502 188.716 106.856 189.138L93.4191 196.887L89.1772 214.032C89.1914 214.347 89.0801 214.654 88.8679 214.886C88.6557 215.118 88.3599 215.257 88.0456 215.271C87.7314 215.285 87.4244 215.174 87.1922 214.961C86.96 214.749 86.8216 214.453 86.8074 214.139L82.9328 202.918L74.7215 207.658C73.5366 208.369 72.5057 207.788 72.5057 206.378L72.5531 175.357Z" fill="#4A90E2"/>
<g opacity="0.5">
<path opacity="0.5" d="M72.5531 175.357C72.5953 174.587 72.8177 173.837 73.2025 173.168C73.5874 172.499 74.1239 171.93 74.7689 171.507L106.856 152.987C108.041 152.276 109.072 152.856 109.072 154.278V185.287C109.031 186.058 108.81 186.808 108.425 187.478C108.04 188.147 107.502 188.716 106.856 189.138L93.4191 196.887L89.1772 214.032C89.1914 214.347 89.0801 214.654 88.8679 214.886C88.6557 215.118 88.3599 215.257 88.0456 215.271C87.7314 215.285 87.4244 215.174 87.1922 214.961C86.96 214.749 86.8216 214.453 86.8074 214.139L82.9328 202.918L74.7215 207.658C73.5366 208.369 72.5057 207.788 72.5057 206.378L72.5531 175.357Z" fill="#F2F2F2"/>
</g>
<path d="M83.7623 173.047C84.4036 172.648 85.1092 172.364 85.8477 172.206C86.3435 172.105 86.8565 172.13 87.3406 172.277C87.7301 172.417 88.0546 172.695 88.253 173.059C88.4649 173.45 88.5902 173.883 88.6203 174.327C88.6677 174.872 88.6914 175.464 88.6914 176.104C88.6914 176.744 88.6677 177.36 88.6203 177.952C88.5684 178.534 88.4451 179.107 88.253 179.659C88.0259 180.302 87.7194 180.915 87.3406 181.483C86.9119 182.13 86.411 182.727 85.8477 183.261C85.218 183.861 84.5177 184.382 83.7623 184.813C83.1131 185.21 82.4053 185.502 81.665 185.678C81.1745 185.787 80.664 185.767 80.1839 185.619C79.7944 185.478 79.4699 185.2 79.2715 184.837C79.0558 184.446 78.9265 184.014 78.8923 183.569C78.8923 183.024 78.8923 182.384 78.8923 181.791C78.8923 181.199 78.8923 180.535 78.8923 179.943C78.949 179.361 79.0763 178.788 79.2715 178.237C79.4936 177.591 79.8004 176.977 80.1839 176.412C80.6148 175.766 81.1111 175.167 81.665 174.623C82.2973 174.014 83.0016 173.485 83.7623 173.047ZM96.7961 166.281C96.9306 166.022 97.0893 165.776 97.2701 165.547C97.4694 165.319 97.7058 165.127 97.9692 164.978L99.9361 163.793C100.1 163.672 100.304 163.621 100.505 163.651C100.647 163.651 100.718 163.805 100.718 163.994C100.726 164.057 100.726 164.121 100.718 164.184L100.623 164.433L84.485 194.979C84.3507 195.235 84.1919 195.477 84.0111 195.702C83.8143 195.932 83.5774 196.125 83.312 196.271L81.3569 197.456C81.1888 197.576 80.9809 197.627 80.7763 197.598C80.6341 197.598 80.563 197.444 80.563 197.254C80.5547 197.191 80.5547 197.128 80.563 197.065L80.6578 196.816L96.7961 166.281ZM85.4922 179.469C85.5084 179.256 85.5084 179.042 85.4922 178.829V177.064C85.5094 176.863 85.5094 176.661 85.4922 176.459C85.4857 176.293 85.4444 176.131 85.3709 175.982C85.2974 175.833 85.1934 175.701 85.0656 175.594C84.8287 175.429 84.3902 175.594 83.7623 175.891C83.2776 176.135 82.8639 176.5 82.5609 176.95C82.2579 177.4 82.0759 177.921 82.0323 178.462C82.015 178.679 82.015 178.897 82.0323 179.114C82.0323 179.398 82.0323 179.694 82.0323 180.002C82.0323 180.31 82.0323 180.595 82.0323 180.879C82.0138 181.076 82.0138 181.275 82.0323 181.472C82.0323 181.639 82.0708 181.804 82.1447 181.954C82.2187 182.104 82.3262 182.235 82.4589 182.337C82.6959 182.502 83.1224 182.396 83.7623 182.04C84.2969 181.772 84.7477 181.362 85.0656 180.855C85.3016 180.428 85.4468 179.956 85.4922 179.469ZM97.8981 176.388C98.5448 175.989 99.2536 175.701 99.9953 175.535C100.487 175.435 100.996 175.459 101.476 175.606C101.866 175.747 102.19 176.025 102.389 176.388C102.605 176.779 102.734 177.211 102.768 177.656C102.768 178.201 102.827 178.841 102.827 179.434C102.827 180.026 102.827 180.69 102.768 181.282C102.712 181.864 102.585 182.437 102.389 182.988C102.165 183.637 101.858 184.254 101.476 184.825C100.569 186.195 99.351 187.331 97.9218 188.143C97.2783 188.542 96.5739 188.834 95.8363 189.007C95.3425 189.123 94.8265 189.102 94.3434 188.948C93.9516 188.812 93.6258 188.532 93.431 188.166C93.2177 187.775 93.0923 187.343 93.0637 186.898C93.0637 186.365 92.9926 185.713 92.9926 185.133C92.9926 184.552 92.9926 183.865 93.0637 183.273C93.1149 182.695 93.2383 182.125 93.431 181.578C93.658 180.931 93.9644 180.314 94.3434 179.742C94.7749 179.093 95.2754 178.493 95.8363 177.952C96.4499 177.33 97.1431 176.793 97.8981 176.353V176.388ZM99.628 182.763C99.6442 182.55 99.6442 182.336 99.628 182.123V180.37C99.6452 180.169 99.6452 179.966 99.628 179.765C99.6289 179.598 99.5909 179.433 99.5168 179.282C99.4428 179.132 99.3348 179.002 99.2015 178.9C98.9645 178.734 98.5379 178.829 97.8981 179.197C97.3654 179.468 96.9153 179.877 96.5947 180.381C96.3658 180.804 96.221 181.267 96.1681 181.744C96.1567 181.957 96.1567 182.171 96.1681 182.384C96.1681 182.68 96.1681 182.976 96.1681 183.273C96.1681 183.569 96.1681 183.877 96.1681 184.149C96.1558 184.347 96.1558 184.545 96.1681 184.742C96.1746 184.908 96.2159 185.071 96.2894 185.22C96.3629 185.369 96.4669 185.501 96.5947 185.607C96.8317 185.773 97.2701 185.678 97.8981 185.311C98.4331 185.043 98.884 184.633 99.2015 184.126C99.4458 183.697 99.5915 183.22 99.628 182.728V182.763Z" fill="#FAFAFA"/>
</svg>
