<svg width="972" height="495" viewBox="0 0 972 495" fill="none" xmlns="http://www.w3.org/2000/svg">
<g filter="url(#filter0_f_176_438)">
<ellipse rx="218.638" ry="332.428" transform="matrix(0.998071 -0.0620851 -0.0620851 -0.998071 619.976 -14.2505)" fill="#0285FE"/>
</g>
<mask id="mask0_176_438" style="mask-type:alpha" maskUnits="userSpaceOnUse" x="393" y="-533" width="654" height="1165">
<path d="M393.944 -532.776L1009.5 -377.266L1046.39 202.814L1019.52 399.26L702.517 631.283L435.902 547.559L398.668 -51.0033L393.944 -532.776Z" fill="url(#paint0_linear_176_438)"/>
</mask>
<g mask="url(#mask0_176_438)">
</g>
<mask id="mask1_176_438" style="mask-type:alpha" maskUnits="userSpaceOnUse" x="361" y="-473" width="721" height="1080">
<path d="M425.732 606.624C707.565 588.636 1067.09 565.633 1081.19 565.851L1016.62 -472.174L361.161 -431.402L425.732 606.624Z" fill="url(#paint1_linear_176_438)"/>
</mask>
<g mask="url(#mask1_176_438)">
<path d="M964.462 135.185C957.179 18.1089 850.11 -74.0457 759.61 -68.4161C669.11 -62.7865 553.293 -8.00618 561.107 117.606C564.979 179.853 509.183 259.196 558.85 330.347C609.41 402.776 731.776 377.98 777.429 375.14C867.93 369.51 971.745 252.26 964.462 135.185Z" fill="#0285FE"/>
<g filter="url(#filter1_f_176_438)">
<path d="M956.799 137.07C948.988 11.5096 856.628 -72.9537 778.837 -68.1147C701.046 -63.2757 601.906 -9.55218 609.717 116.009C613.587 178.23 564.263 257.139 607.599 328.654C651.715 401.454 756.747 377.743 795.989 375.302C873.78 370.463 964.609 262.631 956.799 137.07Z" fill="#0285FE"/>
</g>
<g filter="url(#filter2_f_176_438)">
<path d="M956.561 133.266C947.806 -7.46307 834.565 -101.525 738.658 -95.5592C642.751 -89.5933 520.194 -28.668 528.948 112.061C533.286 181.8 463.013 271.174 515.927 351.058C569.791 432.377 707.515 404.557 755.895 401.548C851.802 395.582 965.315 273.996 956.561 133.266Z" fill="#0285FE"/>
</g>
<g filter="url(#filter3_f_176_438)">
<path d="M944.192 117.731C909.859 -54.5555 776.515 -190.739 664.269 -183.757C552.022 -176.775 436.164 -81.0392 446.663 87.7377C451.865 171.375 336.217 286.502 398.294 382.392C461.487 480.006 613.147 447.482 669.769 443.96C782.016 436.978 983.965 317.315 944.192 117.731Z" fill="#0285FE"/>
</g>
<g filter="url(#filter4_f_176_438)">
<path d="M895.124 62.0169C883.82 -119.712 729.469 -267.164 619.725 -260.338C509.981 -253.511 397.248 -151.176 408.553 30.5524C414.155 120.608 379.074 232.557 440.38 336.151C502.787 441.606 650.923 407.529 706.284 404.086C816.028 397.259 906.428 243.745 895.124 62.0169Z" fill="#0285FE"/>
</g>
<g filter="url(#filter5_f_176_438)">
<path d="M846.919 -5.98814C835.237 -193.788 677.263 -346.262 565.017 -339.279C452.771 -332.297 337.53 -226.622 349.212 -38.8222C355.001 54.2417 319.193 169.903 381.967 276.994C445.869 386.008 597.367 350.892 653.99 347.37C766.236 340.388 858.601 181.812 846.919 -5.98814Z" fill="#0285FE"/>
</g>
<g filter="url(#filter6_f_176_438)">
<path d="M873.555 134.152C863.333 -30.1722 706.617 -162.437 594.371 -155.454C482.124 -148.472 366.121 -55.0628 376.343 109.262C381.408 190.693 357.7 291.422 419.615 384.692C482.641 479.637 634.339 447.72 690.962 444.198C803.208 437.216 883.777 298.477 873.555 134.152Z" fill="#0285FE"/>
</g>
</g>
<g filter="url(#filter7_f_176_438)">
<path d="M505.885 275.749C541.096 287.38 621.252 262.882 705.475 230.813L816.677 223.896C913.412 217.879 877.622 65.6317 813.61 -58.8431C749.599 -183.318 752.513 -180.247 658.692 -171.159C564.871 -162.071 608.003 -227.356 562.534 -301.764C517.066 -376.172 599.994 -219.71 533.06 -128.553C466.126 -37.397 448.41 -93.8499 516.289 34.4493C584.169 162.749 552.186 159.308 518.086 165.494C483.987 171.68 481.563 132.806 450.173 138.824C418.782 144.842 434.305 160.949 454.808 213.333C475.31 265.717 470.674 264.118 505.885 275.749Z" fill="#FF50ED"/>
</g>
<mask id="mask2_176_438" style="mask-type:alpha" maskUnits="userSpaceOnUse" x="100" y="-206" width="1001" height="690">
<path d="M1100.98 -105.348L889.825 483.797L414.409 444.253L256.154 391.852L100.139 47.382L205.086 -205.646L703.347 -163.927L1100.98 -105.348Z" fill="url(#paint2_linear_176_438)"/>
</mask>
<g mask="url(#mask2_176_438)">
<mask id="mask3_176_438" style="mask-type:alpha" maskUnits="userSpaceOnUse" x="108" y="-198" width="942" height="674">
<path d="M159.399 -197.513C136.214 83.9397 111.025 391.148 108.943 405.087L998.985 475.823L1049.44 -126.778L159.399 -197.513Z" fill="url(#paint3_linear_176_438)"/>
</mask>
<g mask="url(#mask3_176_438)">
<path d="M473.617 371.917C571.074 380.077 661.452 286.15 669.018 195.791C676.584 105.432 647.062 -16.4513 542.499 -25.2065C490.682 -29.5451 432.825 -95.2156 367.496 -55.3734C300.993 -14.8155 304.923 109.616 301.107 155.198C293.541 245.557 376.159 363.757 473.617 371.917Z" fill="#0285FE"/>
<g filter="url(#filter8_f_176_438)">
<path d="M473.097 364.08C577.618 372.832 658.973 300.846 664.846 230.695C670.72 160.543 638.994 65.1795 534.473 56.4279C482.678 52.0911 423.869 -1.8936 359.407 27.8879C293.787 58.2044 300.019 155.075 297.056 190.463C291.183 260.615 368.577 355.329 473.097 364.08Z" fill="#0285FE"/>
</g>
<g filter="url(#filter9_f_176_438)">
<path d="M476.261 364.344C593.409 374.153 685.338 284.553 692.591 197.93C699.844 111.308 665.163 -6.06909 548.016 -15.8779C489.964 -20.7387 425.19 -94.8676 352.608 -57.5065C278.721 -19.4742 284.18 107.331 280.521 151.028C273.269 237.651 359.114 354.536 476.261 364.344Z" fill="#0285FE"/>
</g>
<g filter="url(#filter10_f_176_438)">
<path d="M492.196 337.187C638.798 325.809 769.001 211.643 778.385 99.5722C787.769 -12.499 724.504 -139.801 584.009 -151.564C514.387 -157.394 435.114 -287.033 347.724 -238.15C258.764 -188.389 249.968 16.9975 245.234 73.532C235.85 185.603 322.367 350.368 492.196 337.187Z" fill="#0285FE"/>
</g>
<g filter="url(#filter11_f_176_438)">
<path d="M532.46 311.955C683.736 324.622 836.863 192.038 846.037 82.465C855.212 -27.1077 786.087 -152.18 634.811 -164.847C559.846 -171.123 472.326 -220.562 378.693 -173.454C283.378 -125.501 220.143 97.9962 215.515 153.27C206.341 262.843 381.183 299.289 532.46 311.955Z" fill="#0285FE"/>
</g>
<g filter="url(#filter12_f_176_438)">
<path d="M605.804 274.053C762.133 287.142 909.082 150.726 918.466 38.6544C927.85 -73.4168 856.31 -201.411 699.98 -214.501C622.511 -220.987 494.146 -79.0559 397.433 -30.9534C298.983 18.0133 307.489 172.648 302.755 229.183C293.371 341.254 449.474 260.963 605.804 274.053Z" fill="#0285FE"/>
</g>
<g filter="url(#filter13_f_176_438)">
<path d="M486.729 282.029C623.518 293.482 753.644 155.657 763.028 43.5861C772.411 -68.4851 711.083 -195.625 574.294 -207.078C506.508 -212.754 426.7 -249.456 341.492 -200.391C254.754 -150.443 260.597 3.96864 255.863 60.5031C246.48 172.574 349.94 270.576 486.729 282.029Z" fill="#0285FE"/>
</g>
</g>
</g>
<mask id="mask4_176_438" style="mask-type:alpha" maskUnits="userSpaceOnUse" x="64" y="-699" width="1158" height="1329">
<path d="M1221.38 -438.829C954.462 -523.115 417.397 -693.024 404.468 -698.369L64.9199 370.371L881.83 629.911L1221.38 -438.829Z" fill="url(#paint4_linear_176_438)"/>
</mask>
<g mask="url(#mask4_176_438)">
<path d="M297.424 -237.893C286.485 -118.449 322.469 14.3476 408.123 41.5606C493.777 68.7737 621.685 55.691 662.774 -73.6379C683.135 -137.727 739.747 -117.503 721.284 -207.197C702.49 -298.503 580.069 -317.993 536.861 -331.721C451.207 -358.934 308.363 -357.337 297.424 -237.893Z" fill="#30DAFF"/>
<g filter="url(#filter14_f_176_438)">
<path d="M298.014 -222.325C300.789 -20.9634 316.879 10.8805 390.504 34.272C464.13 57.6634 576.246 39.5855 617.318 -89.6907C637.671 -153.753 687.659 -133.908 675.176 -221.669C662.47 -311.005 554.364 -325.956 517.223 -337.756C443.598 -361.147 291.73 -323.339 298.014 -222.325Z" fill="#30DAFF"/>
</g>
<g filter="url(#filter15_f_176_438)">
<path d="M303.979 -233.09C279.186 -1.27876 374.183 128.526 464.954 157.365C555.725 186.204 644.278 88.5235 690.312 -56.3699C713.124 -128.172 769.385 -57.5098 751.286 -157.177C732.862 -258.635 588.912 -299.573 543.123 -314.121C452.352 -342.96 350.013 -377.983 303.979 -233.09Z" fill="#30DAFF"/>
</g>
<g filter="url(#filter16_f_176_438)">
<path d="M309.414 -212.952C284.411 -8.93271 350.985 221.817 457.22 255.569C563.456 289.321 701.66 171.792 756.869 -1.97925C784.227 -88.0911 892.251 -26.8752 871.852 -145.991C851.087 -267.247 698.671 -289.599 645.08 -306.625C538.844 -340.377 334.416 -416.972 309.414 -212.952Z" fill="#30DAFF"/>
</g>
<g filter="url(#filter17_f_176_438)">
<path d="M317.939 -59.0651C337.417 254.063 344.267 259.78 448.134 292.78C552.002 325.779 710.596 256.558 770.042 69.4521C799.5 -23.2679 788.158 -51.89 771.432 -178.482C754.407 -307.349 576.41 -329.674 524.014 -346.321C420.147 -379.321 306.643 -240.654 317.939 -59.0651Z" fill="#30DAFF"/>
</g>
<g filter="url(#filter18_f_176_438)">
<path d="M351.585 -53.0254C290.154 140.331 377.264 351.267 483.5 385.019C589.735 418.771 736.68 354.229 798.111 160.872C828.553 65.0549 884.112 -96.0559 867.377 -226.703C850.341 -359.697 595.843 -265.187 542.252 -282.214C436.016 -315.966 413.016 -246.382 351.585 -53.0254Z" fill="#30DAFF"/>
</g>
<g filter="url(#filter19_f_176_438)">
<path d="M380.902 -203.823C327.149 -34.6359 420.87 155.493 527.105 189.245C633.341 222.997 776.274 171.083 830.026 1.89656C856.663 -81.9438 866.527 -15.0667 845.27 -131.484C823.632 -249.992 671.415 -272.969 617.824 -289.996C511.588 -323.748 434.654 -373.01 380.902 -203.823Z" fill="#30DAFF"/>
</g>
</g>
<g opacity="0.6" filter="url(#filter20_f_176_438)">
<path d="M789.425 -0.14288C780.461 -144.254 640.127 -302.481 566.825 -297.921C493.524 -293.362 319.99 -390.055 488.58 -42.8502C497.545 101.261 365.958 280.919 599.289 223.952C672.59 219.392 582.568 74.146 789.425 -0.14288Z" fill="#02FFF0"/>
</g>
<defs>
<filter id="filter0_f_176_438" x="283.177" y="-463.914" width="673.6" height="899.328" filterUnits="userSpaceOnUse" color-interpolation-filters="sRGB">
<feFlood flood-opacity="0" result="BackgroundImageFix"/>
<feBlend mode="normal" in="SourceGraphic" in2="BackgroundImageFix" result="shape"/>
<feGaussianBlur stdDeviation="58.7975" result="effect1_foregroundBlur_176_438"/>
</filter>
<filter id="filter1_f_176_438" x="584.961" y="-73.0161" width="377.012" height="458.633" filterUnits="userSpaceOnUse" color-interpolation-filters="sRGB">
<feFlood flood-opacity="0" result="BackgroundImageFix"/>
<feBlend mode="normal" in="SourceGraphic" in2="BackgroundImageFix" result="shape"/>
<feGaussianBlur stdDeviation="2.3519" result="effect1_foregroundBlur_176_438"/>
</filter>
<filter id="filter2_f_176_438" x="479.644" y="-112.291" width="493.856" height="537.3" filterUnits="userSpaceOnUse" color-interpolation-filters="sRGB">
<feFlood flood-opacity="0" result="BackgroundImageFix"/>
<feBlend mode="normal" in="SourceGraphic" in2="BackgroundImageFix" result="shape"/>
<feGaussianBlur stdDeviation="8.23164" result="effect1_foregroundBlur_176_438"/>
</filter>
<filter id="filter3_f_176_438" x="356.412" y="-207.533" width="616.41" height="683.008" filterUnits="userSpaceOnUse" color-interpolation-filters="sRGB">
<feFlood flood-opacity="0" result="BackgroundImageFix"/>
<feBlend mode="normal" in="SourceGraphic" in2="BackgroundImageFix" result="shape"/>
<feGaussianBlur stdDeviation="11.7595" result="effect1_foregroundBlur_176_438"/>
</filter>
<filter id="filter4_f_176_438" x="340.058" y="-324.067" width="619.524" height="799.61" filterUnits="userSpaceOnUse" color-interpolation-filters="sRGB">
<feFlood flood-opacity="0" result="BackgroundImageFix"/>
<feBlend mode="normal" in="SourceGraphic" in2="BackgroundImageFix" result="shape"/>
<feGaussianBlur stdDeviation="31.7506" result="effect1_foregroundBlur_176_438"/>
</filter>
<filter id="filter5_f_176_438" x="186.628" y="-497.087" width="818.867" height="1010.19" filterUnits="userSpaceOnUse" color-interpolation-filters="sRGB">
<feFlood flood-opacity="0" result="BackgroundImageFix"/>
<feBlend mode="normal" in="SourceGraphic" in2="BackgroundImageFix" result="shape"/>
<feGaussianBlur stdDeviation="78.7886" result="effect1_foregroundBlur_176_438"/>
</filter>
<filter id="filter6_f_176_438" x="302.804" y="-228.628" width="644.534" height="753.696" filterUnits="userSpaceOnUse" color-interpolation-filters="sRGB">
<feFlood flood-opacity="0" result="BackgroundImageFix"/>
<feBlend mode="normal" in="SourceGraphic" in2="BackgroundImageFix" result="shape"/>
<feGaussianBlur stdDeviation="36.4544" result="effect1_foregroundBlur_176_438"/>
</filter>
<filter id="filter7_f_176_438" x="352.367" y="-401.199" width="603.88" height="759.854" filterUnits="userSpaceOnUse" color-interpolation-filters="sRGB">
<feFlood flood-opacity="0" result="BackgroundImageFix"/>
<feBlend mode="normal" in="SourceGraphic" in2="BackgroundImageFix" result="shape"/>
<feGaussianBlur stdDeviation="39.9823" result="effect1_foregroundBlur_176_438"/>
</filter>
<filter id="filter8_f_176_438" x="292.039" y="14.2653" width="378.183" height="355.244" filterUnits="userSpaceOnUse" color-interpolation-filters="sRGB">
<feFlood flood-opacity="0" result="BackgroundImageFix"/>
<feBlend mode="normal" in="SourceGraphic" in2="BackgroundImageFix" result="shape"/>
<feGaussianBlur stdDeviation="2.3519" result="effect1_foregroundBlur_176_438"/>
</filter>
<filter id="filter9_f_176_438" x="263.63" y="-84.4537" width="446.34" height="466" filterUnits="userSpaceOnUse" color-interpolation-filters="sRGB">
<feFlood flood-opacity="0" result="BackgroundImageFix"/>
<feBlend mode="normal" in="SourceGraphic" in2="BackgroundImageFix" result="shape"/>
<feGaussianBlur stdDeviation="8.23164" result="effect1_foregroundBlur_176_438"/>
</filter>
<filter id="filter10_f_176_438" x="221.025" y="-272.662" width="581.787" height="634.113" filterUnits="userSpaceOnUse" color-interpolation-filters="sRGB">
<feFlood flood-opacity="0" result="BackgroundImageFix"/>
<feBlend mode="normal" in="SourceGraphic" in2="BackgroundImageFix" result="shape"/>
<feGaussianBlur stdDeviation="11.7595" result="effect1_foregroundBlur_176_438"/>
</filter>
<filter id="filter11_f_176_438" x="151.668" y="-257.1" width="758.676" height="633.399" filterUnits="userSpaceOnUse" color-interpolation-filters="sRGB">
<feFlood flood-opacity="0" result="BackgroundImageFix"/>
<feBlend mode="normal" in="SourceGraphic" in2="BackgroundImageFix" result="shape"/>
<feGaussianBlur stdDeviation="31.7506" result="effect1_foregroundBlur_176_438"/>
</filter>
<filter id="filter12_f_176_438" x="144.775" y="-372.293" width="932.084" height="819.643" filterUnits="userSpaceOnUse" color-interpolation-filters="sRGB">
<feFlood flood-opacity="0" result="BackgroundImageFix"/>
<feBlend mode="normal" in="SourceGraphic" in2="BackgroundImageFix" result="shape"/>
<feGaussianBlur stdDeviation="78.7886" result="effect1_foregroundBlur_176_438"/>
</filter>
<filter id="filter13_f_176_438" x="182.364" y="-298.499" width="654.506" height="654.106" filterUnits="userSpaceOnUse" color-interpolation-filters="sRGB">
<feFlood flood-opacity="0" result="BackgroundImageFix"/>
<feBlend mode="normal" in="SourceGraphic" in2="BackgroundImageFix" result="shape"/>
<feGaussianBlur stdDeviation="36.4544" result="effect1_foregroundBlur_176_438"/>
</filter>
<filter id="filter14_f_176_438" x="293.121" y="-349.151" width="388.734" height="396.842" filterUnits="userSpaceOnUse" color-interpolation-filters="sRGB">
<feFlood flood-opacity="0" result="BackgroundImageFix"/>
<feBlend mode="normal" in="SourceGraphic" in2="BackgroundImageFix" result="shape"/>
<feGaussianBlur stdDeviation="2.3519" result="effect1_foregroundBlur_176_438"/>
</filter>
<filter id="filter15_f_176_438" x="283.517" y="-356.421" width="487.762" height="535.304" filterUnits="userSpaceOnUse" color-interpolation-filters="sRGB">
<feFlood flood-opacity="0" result="BackgroundImageFix"/>
<feBlend mode="normal" in="SourceGraphic" in2="BackgroundImageFix" result="shape"/>
<feGaussianBlur stdDeviation="8.23164" result="effect1_foregroundBlur_176_438"/>
</filter>
<filter id="filter16_f_176_438" x="280.634" y="-372.589" width="617.283" height="657.464" filterUnits="userSpaceOnUse" color-interpolation-filters="sRGB">
<feFlood flood-opacity="0" result="BackgroundImageFix"/>
<feBlend mode="normal" in="SourceGraphic" in2="BackgroundImageFix" result="shape"/>
<feGaussianBlur stdDeviation="11.7595" result="effect1_foregroundBlur_176_438"/>
</filter>
<filter id="filter17_f_176_438" x="253.658" y="-414.701" width="598.095" height="778.907" filterUnits="userSpaceOnUse" color-interpolation-filters="sRGB">
<feFlood flood-opacity="0" result="BackgroundImageFix"/>
<feBlend mode="normal" in="SourceGraphic" in2="BackgroundImageFix" result="shape"/>
<feGaussianBlur stdDeviation="31.7506" result="effect1_foregroundBlur_176_438"/>
</filter>
<filter id="filter18_f_176_438" x="173.62" y="-456.602" width="854.412" height="1007.74" filterUnits="userSpaceOnUse" color-interpolation-filters="sRGB">
<feFlood flood-opacity="0" result="BackgroundImageFix"/>
<feBlend mode="normal" in="SourceGraphic" in2="BackgroundImageFix" result="shape"/>
<feGaussianBlur stdDeviation="78.7886" result="effect1_foregroundBlur_176_438"/>
</filter>
<filter id="filter19_f_176_438" x="292.358" y="-396.573" width="637.362" height="668.472" filterUnits="userSpaceOnUse" color-interpolation-filters="sRGB">
<feFlood flood-opacity="0" result="BackgroundImageFix"/>
<feBlend mode="normal" in="SourceGraphic" in2="BackgroundImageFix" result="shape"/>
<feGaussianBlur stdDeviation="36.4544" result="effect1_foregroundBlur_176_438"/>
</filter>
<filter id="filter20_f_176_438" x="318.464" y="-405.752" width="569.741" height="739.302" filterUnits="userSpaceOnUse" color-interpolation-filters="sRGB">
<feFlood flood-opacity="0" result="BackgroundImageFix"/>
<feBlend mode="normal" in="SourceGraphic" in2="BackgroundImageFix" result="shape"/>
<feGaussianBlur stdDeviation="49.3899" result="effect1_foregroundBlur_176_438"/>
</filter>
<linearGradient id="paint0_linear_176_438" x1="726.487" y1="152.595" x2="533.275" y2="420.593" gradientUnits="userSpaceOnUse">
<stop stop-color="#C4C4C4"/>
<stop offset="1" stop-color="#C4C4C4" stop-opacity="0"/>
</linearGradient>
<linearGradient id="paint1_linear_176_438" x1="950.36" y1="138.308" x2="485.177" y2="152.402" gradientUnits="userSpaceOnUse">
<stop stop-color="#C4C4C4"/>
<stop offset="1" stop-color="#C4C4C4" stop-opacity="0"/>
</linearGradient>
<linearGradient id="paint2_linear_176_438" x1="643.122" y1="240.015" x2="325.937" y2="187.035" gradientUnits="userSpaceOnUse">
<stop stop-color="#C4C4C4"/>
<stop offset="0.943414" stop-color="#C4C4C4" stop-opacity="0"/>
</linearGradient>
<linearGradient id="paint3_linear_176_438" x1="481.081" y1="266.382" x2="473.237" y2="-106.365" gradientUnits="userSpaceOnUse">
<stop stop-color="#C4C4C4"/>
<stop offset="1" stop-color="#C4C4C4" stop-opacity="0"/>
</linearGradient>
<linearGradient id="paint4_linear_176_438" x1="311.639" y1="-235.913" x2="775.697" y2="214.047" gradientUnits="userSpaceOnUse">
<stop stop-color="#C4C4C4"/>
<stop offset="1" stop-color="#C4C4C4" stop-opacity="0"/>
</linearGradient>
</defs>
</svg>
