<svg width="40" height="40" viewBox="0 0 40 40" fill="none" xmlns="http://www.w3.org/2000/svg">
<g filter="url(#filter0_b_1301_3)">
<circle r="20" transform="matrix(-1 0 0 1 20 20)" fill="#050925" fill-opacity="0.3"/>
</g>
<path fill-rule="evenodd" clip-rule="evenodd" d="M30.5 20C30.5 22.7848 29.3938 25.4555 27.4246 27.4246C25.4555 29.3938 22.7848 30.5 20 30.5C17.2152 30.5 14.5445 29.3938 12.5754 27.4246C10.6062 25.4555 9.5 22.7848 9.5 20C9.5 17.2152 10.6062 14.5445 12.5754 12.5754C14.5445 10.6062 17.2152 9.5 20 9.5C22.7848 9.5 25.4555 10.6062 27.4246 12.5754C29.3938 14.5445 30.5 17.2152 30.5 20V20ZM8 20C8 23.1826 9.26428 26.2348 11.5147 28.4853C13.7652 30.7357 16.8174 32 20 32C23.1826 32 26.2348 30.7357 28.4853 28.4853C30.7357 26.2348 32 23.1826 32 20C32 16.8174 30.7357 13.7652 28.4853 11.5147C26.2348 9.26428 23.1826 8 20 8C16.8174 8 13.7652 9.26428 11.5147 11.5147C9.26428 13.7652 8 16.8174 8 20V20ZM25.25 19.25C25.4489 19.25 25.6397 19.329 25.7803 19.4697C25.921 19.6103 26 19.8011 26 20C26 20.1989 25.921 20.3897 25.7803 20.5303C25.6397 20.671 25.4489 20.75 25.25 20.75H16.5605L19.781 23.969C19.8507 24.0387 19.906 24.1215 19.9438 24.2126C19.9815 24.3037 20.0009 24.4014 20.0009 24.5C20.0009 24.5986 19.9815 24.6963 19.9438 24.7874C19.906 24.8785 19.8507 24.9613 19.781 25.031C19.7113 25.1007 19.6285 25.156 19.5374 25.1938C19.4463 25.2315 19.3486 25.2509 19.25 25.2509C19.1514 25.2509 19.0537 25.2315 18.9626 25.1938C18.8715 25.156 18.7887 25.1007 18.719 25.031L14.219 20.531C14.1492 20.4613 14.0937 20.3786 14.0559 20.2874C14.0181 20.1963 13.9987 20.0987 13.9987 20C13.9987 19.9013 14.0181 19.8037 14.0559 19.7125C14.0937 19.6214 14.1492 19.5387 14.219 19.469L18.719 14.969C18.7887 14.8993 18.8715 14.844 18.9626 14.8062C19.0537 14.7685 19.1514 14.7491 19.25 14.7491C19.3486 14.7491 19.4463 14.7685 19.5374 14.8062C19.6285 14.844 19.7113 14.8993 19.781 14.969C19.8507 15.0387 19.906 15.1215 19.9438 15.2126C19.9815 15.3037 20.0009 15.4014 20.0009 15.5C20.0009 15.5986 19.9815 15.6963 19.9438 15.7874C19.906 15.8785 19.8507 15.9613 19.781 16.031L16.5605 19.25H25.25Z" fill="white"/>
<defs>
<filter id="filter0_b_1301_3" x="-20" y="-20" width="80" height="80" filterUnits="userSpaceOnUse" color-interpolation-filters="sRGB">
<feFlood flood-opacity="0" result="BackgroundImageFix"/>
<feGaussianBlur in="BackgroundImage" stdDeviation="10"/>
<feComposite in2="SourceAlpha" operator="in" result="effect1_backgroundBlur_1301_3"/>
<feBlend mode="normal" in="SourceGraphic" in2="effect1_backgroundBlur_1301_3" result="shape"/>
</filter>
</defs>
</svg>
