<svg width="32" height="32" viewBox="0 0 32 32" fill="none" xmlns="http://www.w3.org/2000/svg">
<path d="M11.75 14V22C11.75 22.1989 11.671 22.3897 11.5303 22.5303C11.3897 22.671 11.1989 22.75 11 22.75C10.8011 22.75 10.6103 22.671 10.4697 22.5303C10.329 22.3897 10.25 22.1989 10.25 22V14C10.25 13.8011 10.329 13.6103 10.4697 13.4697C10.6103 13.329 10.8011 13.25 11 13.25C11.1989 13.25 11.3897 13.329 11.5303 13.4697C11.671 13.6103 11.75 13.8011 11.75 14V14ZM11 8.75C10.7528 8.75 10.5111 8.82331 10.3055 8.96066C10.1 9.09801 9.93976 9.29324 9.84515 9.52165C9.75054 9.75005 9.72579 10.0014 9.77402 10.2439C9.82225 10.4863 9.9413 10.7091 10.1161 10.8839C10.2909 11.0587 10.5137 11.1778 10.7561 11.226C10.9986 11.2742 11.2499 11.2495 11.4784 11.1548C11.7068 11.0602 11.902 10.9 12.0393 10.6945C12.1767 10.4889 12.25 10.2472 12.25 10C12.25 9.66848 12.1183 9.35054 11.8839 9.11612C11.6495 8.8817 11.3315 8.75 11 8.75ZM28.25 5.5V26.5C28.25 26.9641 28.0656 27.4092 27.7374 27.7374C27.4092 28.0656 26.9641 28.25 26.5 28.25H5.5C5.03587 28.25 4.59075 28.0656 4.26256 27.7374C3.93437 27.4092 3.75 26.9641 3.75 26.5V5.5C3.75 5.03587 3.93437 4.59075 4.26256 4.26256C4.59075 3.93437 5.03587 3.75 5.5 3.75H26.5C26.9641 3.75 27.4092 3.93437 27.7374 4.26256C28.0656 4.59075 28.25 5.03587 28.25 5.5V5.5ZM26.75 5.5C26.75 5.4337 26.7237 5.37011 26.6768 5.32322C26.6299 5.27634 26.5663 5.25 26.5 5.25H5.5C5.4337 5.25 5.37011 5.27634 5.32322 5.32322C5.27634 5.37011 5.25 5.4337 5.25 5.5V26.5C5.25 26.5663 5.27634 26.6299 5.32322 26.6768C5.37011 26.7237 5.4337 26.75 5.5 26.75H26.5C26.5663 26.75 26.6299 26.7237 26.6768 26.6768C26.7237 26.6299 26.75 26.5663 26.75 26.5V5.5ZM18.5 13.25C17.4923 13.2508 16.5176 13.6096 15.75 14.2625V14C15.75 13.8011 15.671 13.6103 15.5303 13.4697C15.3897 13.329 15.1989 13.25 15 13.25C14.8011 13.25 14.6103 13.329 14.4697 13.4697C14.329 13.6103 14.25 13.8011 14.25 14V22C14.25 22.1989 14.329 22.3897 14.4697 22.5303C14.6103 22.671 14.8011 22.75 15 22.75C15.1989 22.75 15.3897 22.671 15.5303 22.5303C15.671 22.3897 15.75 22.1989 15.75 22V17.5C15.75 16.7707 16.0397 16.0712 16.5555 15.5555C17.0712 15.0397 17.7707 14.75 18.5 14.75C19.2293 14.75 19.9288 15.0397 20.4445 15.5555C20.9603 16.0712 21.25 16.7707 21.25 17.5V22C21.25 22.1989 21.329 22.3897 21.4697 22.5303C21.6103 22.671 21.8011 22.75 22 22.75C22.1989 22.75 22.3897 22.671 22.5303 22.5303C22.671 22.3897 22.75 22.1989 22.75 22V17.5C22.7467 16.3738 22.2979 15.2948 21.5016 14.4984C20.7052 13.7021 19.6262 13.2533 18.5 13.25V13.25Z" fill="white"/>
</svg>
