<svg width="32" height="32" viewBox="0 0 32 32" fill="none" xmlns="http://www.w3.org/2000/svg">
<g id="clarity:video-gallery-line" clip-path="url(#clip0_1701_2874)">
<path id="Vector" d="M28.5512 8.88867H3.44894C3.00574 8.88867 2.58068 9.06473 2.26729 9.37813C1.95389 9.69152 1.77783 10.1166 1.77783 10.5598V26.7731C1.77783 27.2163 1.95389 27.6414 2.26729 27.9548C2.58068 28.2682 3.00574 28.4442 3.44894 28.4442H28.5512C28.9944 28.4442 29.4194 28.2682 29.7328 27.9548C30.0462 27.6414 30.2223 27.2163 30.2223 26.7731V10.5598C30.2223 10.1166 30.0462 9.69152 29.7328 9.37813C29.4194 9.06473 28.9944 8.88867 28.5512 8.88867ZM28.4445 26.6665H3.55561V10.6664H28.4445V26.6665Z" fill="#C5C5C5"/>
<path id="Vector_2" d="M26.7913 2.66672C26.7913 2.43097 26.6977 2.20488 26.531 2.03818C26.3643 1.87148 26.1382 1.77783 25.9025 1.77783H6.3469C6.11115 1.77783 5.88506 1.87148 5.71836 2.03818C5.55166 2.20488 5.45801 2.43097 5.45801 2.66672V3.55561H26.7913V2.66672Z" fill="#C5C5C5"/>
<path id="Vector_3" d="M28.551 6.22238C28.551 5.98664 28.4573 5.76054 28.2906 5.59385C28.124 5.42715 27.8979 5.3335 27.6621 5.3335H4.551C4.31525 5.3335 4.08916 5.42715 3.92246 5.59385C3.75576 5.76054 3.66211 5.98664 3.66211 6.22238V7.11127H28.551V6.22238Z" fill="#C5C5C5"/>
<path id="Vector_4" d="M11.3954 23.8132C11.6417 23.9729 11.9285 24.0592 12.222 24.0621C12.4336 24.0616 12.6427 24.0161 12.8354 23.9287L21.5198 20.0532C21.7883 19.9365 22.0168 19.744 22.1773 19.4992C22.3379 19.2544 22.4234 18.9681 22.4234 18.6754C22.4234 18.3827 22.3379 18.0964 22.1773 17.8516C22.0168 17.6068 21.7883 17.4143 21.5198 17.2976L12.8354 13.4221C12.6056 13.32 12.3539 13.2769 12.1032 13.2967C11.8526 13.3164 11.6108 13.3985 11.3998 13.5353C11.1888 13.6721 11.0153 13.8594 10.8951 14.0802C10.7748 14.301 10.7115 14.5484 10.7109 14.7998V22.551C10.7114 22.8016 10.7742 23.0482 10.8937 23.2685C11.0131 23.4889 11.1856 23.6761 11.3954 23.8132ZM11.9554 14.7998C11.9551 14.7552 11.9664 14.7112 11.9882 14.6723C12.0101 14.6333 12.0416 14.6007 12.0798 14.5776C12.1264 14.5647 12.1755 14.5647 12.222 14.5776C12.2572 14.5696 12.2936 14.5696 12.3287 14.5776L21.0132 18.4443C21.0622 18.4643 21.1038 18.499 21.1324 18.5435C21.1611 18.588 21.1753 18.6403 21.1732 18.6932C21.1747 18.7448 21.1601 18.7957 21.1315 18.8387C21.1028 18.8817 21.0614 18.9147 21.0132 18.9332L12.3287 22.8087C12.2909 22.8306 12.248 22.8421 12.2043 22.8421C12.1606 22.8421 12.1177 22.8306 12.0798 22.8087C12.0427 22.7844 12.0121 22.7515 11.9904 22.7129C11.9687 22.6742 11.9567 22.6308 11.9554 22.5865V14.7998Z" fill="#C5C5C5"/>
</g>
<defs>
<clipPath id="clip0_1701_2874">
<rect width="32" height="32" fill="white"/>
</clipPath>
</defs>
</svg>
