<svg width="124" height="257" viewBox="0 0 124 257" fill="none" xmlns="http://www.w3.org/2000/svg">
<path d="M18.2945 192.944C18.8111 192.428 18.8111 191.59 18.2945 191.074C17.778 190.557 16.9405 190.557 16.4239 191.074C15.9073 191.59 15.9073 192.428 16.4239 192.944C16.9405 193.461 17.778 193.461 18.2945 192.944Z" fill="url(#paint0_linear_137_8191)"/>
<path d="M34.2844 208.934C34.8631 208.355 34.8631 207.417 34.2844 206.838C33.7056 206.26 32.7673 206.26 32.1886 206.838C31.6098 207.417 31.6098 208.355 32.1886 208.934C32.7673 209.513 33.7056 209.513 34.2844 208.934Z" fill="url(#paint1_linear_137_8191)"/>
<path d="M50.1616 224.811C50.7404 224.233 50.7404 223.294 50.1616 222.716C49.5829 222.137 48.6446 222.137 48.0658 222.716C47.4871 223.294 47.4871 224.233 48.0658 224.811C48.6446 225.39 49.5829 225.39 50.1616 224.811Z" fill="url(#paint2_linear_137_8191)"/>
<path d="M65.9263 240.576C66.4428 240.06 66.4428 239.222 65.9263 238.705C65.4097 238.189 64.5722 238.189 64.0557 238.705C63.5391 239.222 63.5391 240.06 64.0557 240.576C64.5722 241.093 65.4097 241.093 65.9263 240.576Z" fill="url(#paint3_linear_137_8191)"/>
<path d="M2.52985 145.425C3.10859 144.846 3.10859 143.908 2.52985 143.329C1.95111 142.751 1.01279 142.751 0.434054 143.329C-0.144685 143.908 -0.144685 144.846 0.434054 145.425C1.01279 146.004 1.95111 146.004 2.52985 145.425Z" fill="url(#paint4_linear_137_8191)"/>
<path d="M18.6236 161.519C19.3219 160.821 19.3219 159.688 18.6236 158.99C17.9253 158.292 16.7931 158.292 16.0948 158.99C15.3965 159.688 15.3965 160.821 16.0948 161.519C16.7931 162.217 17.9253 162.217 18.6236 161.519Z" fill="url(#paint5_linear_137_8191)"/>
<path d="M34.726 177.621C35.5487 176.799 35.5487 175.465 34.726 174.642C33.9034 173.82 32.5696 173.82 31.7469 174.642C30.9242 175.465 30.9242 176.799 31.7469 177.621C32.5696 178.444 33.9034 178.444 34.726 177.621Z" fill="url(#paint6_linear_137_8191)"/>
<path d="M50.8198 193.715C51.762 192.773 51.762 191.245 50.8198 190.303C49.8776 189.361 48.3499 189.361 47.4076 190.303C46.4654 191.245 46.4654 192.773 47.4076 193.715C48.3499 194.657 49.8776 194.657 50.8198 193.715Z" fill="url(#paint7_linear_137_8191)"/>
<path d="M66.6971 209.592C67.6393 208.65 67.6393 207.122 66.6971 206.18C65.7548 205.238 64.2271 205.238 63.2849 206.18C62.3426 207.122 62.3426 208.65 63.2849 209.592C64.2271 210.535 65.7548 210.535 66.6971 209.592Z" fill="url(#paint8_linear_137_8191)"/>
<path d="M82.3578 225.253C83.1805 224.43 83.1805 223.097 82.3578 222.274C81.5351 221.451 80.2013 221.451 79.3787 222.274C78.556 223.097 78.556 224.43 79.3787 225.253C80.2013 226.076 81.5351 226.076 82.3578 225.253Z" fill="url(#paint9_linear_137_8191)"/>
<path d="M98.0099 240.905C98.7082 240.207 98.7082 239.075 98.0099 238.376C97.3116 237.678 96.1794 237.678 95.4811 238.376C94.7828 239.075 94.7828 240.207 95.4811 240.905C96.1794 241.603 97.3116 241.604 98.0099 240.905Z" fill="url(#paint10_linear_137_8191)"/>
<path d="M113.671 256.566C114.249 255.987 114.249 255.049 113.671 254.47C113.092 253.891 112.154 253.891 111.575 254.47C110.996 255.049 110.996 255.987 111.575 256.566C112.154 257.145 113.092 257.145 113.671 256.566Z" fill="url(#paint11_linear_137_8191)"/>
<path d="M2.52985 113.671C3.10859 113.092 3.10859 112.154 2.52985 111.575C1.95111 110.996 1.01279 110.996 0.434054 111.575C-0.144685 112.154 -0.144685 113.092 0.434054 113.671C1.01279 114.249 1.95111 114.249 2.52985 113.671Z" fill="url(#paint12_linear_137_8191)"/>
<path d="M18.7362 129.877C19.4967 129.116 19.4967 127.883 18.7362 127.123C17.9757 126.363 16.7427 126.363 15.9822 127.123C15.2217 127.883 15.2217 129.116 15.9822 129.877C16.7427 130.637 17.9757 130.637 18.7362 129.877Z" fill="url(#paint13_linear_137_8191)"/>
<path d="M34.9425 146.083C35.8848 145.141 35.8848 143.613 34.9425 142.671C34.0003 141.729 32.4726 141.729 31.5304 142.671C30.5881 143.613 30.5881 145.141 31.5304 146.083C32.4726 147.026 34.0003 147.026 34.9425 146.083Z" fill="url(#paint14_linear_137_8191)"/>
<path d="M51.1576 162.298C52.2863 161.17 52.2863 159.339 51.1576 158.211C50.0288 157.082 48.1987 157.082 47.0699 158.211C45.9411 159.339 45.9411 161.17 47.0699 162.298C48.1987 163.427 50.0288 163.427 51.1576 162.298Z" fill="url(#paint15_linear_137_8191)"/>
<path d="M67.3639 178.505C68.6744 177.194 68.6744 175.069 67.3639 173.759C66.0534 172.448 63.9286 172.448 62.618 173.759C61.3075 175.069 61.3075 177.194 62.618 178.505C63.9286 179.815 66.0534 179.815 67.3639 178.505Z" fill="url(#paint16_linear_137_8191)"/>
<path d="M83.2412 194.382C84.5517 193.071 84.5517 190.947 83.2412 189.636C81.9306 188.326 79.8058 188.326 78.4953 189.636C77.1848 190.947 77.1848 193.071 78.4953 194.382C79.8058 195.692 81.9306 195.692 83.2412 194.382Z" fill="url(#paint17_linear_137_8191)"/>
<path d="M98.7893 209.93C99.9181 208.801 99.9181 206.971 98.7893 205.842C97.6605 204.714 95.8304 204.714 94.7017 205.842C93.5729 206.971 93.5729 208.801 94.7017 209.93C95.8304 211.059 97.6605 211.059 98.7893 209.93Z" fill="url(#paint18_linear_137_8191)"/>
<path d="M114.329 225.47C115.271 224.527 115.271 223 114.329 222.057C113.387 221.115 111.859 221.115 110.917 222.057C109.974 223 109.974 224.527 110.917 225.47C111.859 226.412 113.387 226.412 114.329 225.47Z" fill="url(#paint19_linear_137_8191)"/>
<path d="M129.877 241.018C130.637 240.257 130.637 239.024 129.877 238.264C129.116 237.503 127.883 237.503 127.123 238.264C126.363 239.024 126.363 240.257 127.123 241.018C127.883 241.778 129.116 241.778 129.877 241.018Z" fill="url(#paint20_linear_137_8191)"/>
<path d="M145.425 256.566C146.004 255.987 146.004 255.049 145.425 254.47C144.846 253.891 143.908 253.891 143.329 254.47C142.751 255.049 142.751 255.987 143.329 256.566C143.908 257.145 144.846 257.145 145.425 256.566Z" fill="url(#paint21_linear_137_8191)"/>
<path d="M18.6236 98.0099C19.3219 97.3116 19.3219 96.1794 18.6236 95.4811C17.9253 94.7828 16.7931 94.7828 16.0948 95.4811C15.3965 96.1794 15.3965 97.3116 16.0948 98.0099C16.7931 98.7082 17.9253 98.7082 18.6236 98.0099Z" fill="url(#paint22_linear_137_8191)"/>
<path d="M34.9425 114.329C35.8848 113.387 35.8848 111.859 34.9425 110.917C34.0003 109.974 32.4726 109.974 31.5304 110.917C30.5881 111.859 30.5881 113.387 31.5304 114.329C32.4726 115.271 34.0003 115.271 34.9425 114.329Z" fill="url(#paint23_linear_137_8191)"/>
<path d="M51.2615 130.648C52.4477 129.462 52.4477 127.538 51.2615 126.352C50.0753 125.166 48.1521 125.166 46.966 126.352C45.7798 127.538 45.7798 129.462 46.966 130.648C48.1521 131.834 50.0753 131.834 51.2615 130.648Z" fill="url(#paint24_linear_137_8191)"/>
<path d="M67.5804 146.967C69.0105 145.537 69.0105 143.218 67.5804 141.788C66.1503 140.358 63.8316 140.358 62.4015 141.788C60.9714 143.218 60.9714 145.537 62.4015 146.967C63.8316 148.397 66.1503 148.397 67.5804 146.967Z" fill="url(#paint25_linear_137_8191)"/>
<path d="M83.8993 163.286C85.5734 161.612 85.5734 158.897 83.8993 157.223C82.2253 155.549 79.5112 155.549 77.8371 157.223C76.1631 158.897 76.1631 161.612 77.8371 163.286C79.5112 164.96 82.2253 164.96 83.8993 163.286Z" fill="url(#paint26_linear_137_8191)"/>
<path d="M99.7766 179.163C101.451 177.489 101.451 174.775 99.7766 173.101C98.1026 171.427 95.3884 171.427 93.7144 173.101C92.0403 174.775 92.0403 177.489 93.7144 179.163C95.3884 180.837 98.1026 180.837 99.7766 179.163Z" fill="url(#paint27_linear_137_8191)"/>
<path d="M115.212 194.598C116.642 193.168 116.642 190.85 115.212 189.42C113.782 187.989 111.463 187.989 110.033 189.42C108.603 190.85 108.603 193.168 110.033 194.598C111.463 196.029 113.782 196.029 115.212 194.598Z" fill="url(#paint28_linear_137_8191)"/>
<path d="M130.648 210.034C131.834 208.848 131.834 206.925 130.648 205.739C129.462 204.552 127.538 204.552 126.352 205.739C125.166 206.925 125.166 208.848 126.352 210.034C127.538 211.22 129.462 211.22 130.648 210.034Z" fill="url(#paint29_linear_137_8191)"/>
<path d="M146.083 225.47C147.026 224.527 147.026 223 146.083 222.057C145.141 221.115 143.613 221.115 142.671 222.057C141.729 223 141.729 224.527 142.671 225.47C143.613 226.412 145.141 226.412 146.083 225.47Z" fill="url(#paint30_linear_137_8191)"/>
<path d="M161.519 240.905C162.217 240.207 162.217 239.075 161.519 238.376C160.821 237.678 159.688 237.678 158.99 238.376C158.292 239.075 158.292 240.207 158.99 240.905C159.688 241.604 160.821 241.604 161.519 240.905Z" fill="url(#paint31_linear_137_8191)"/>
<path d="M18.2945 65.9263C18.8111 65.4097 18.8111 64.5722 18.2945 64.0557C17.778 63.5391 16.9405 63.5391 16.4239 64.0557C15.9073 64.5722 15.9073 65.4097 16.4239 65.9263C16.9405 66.4428 17.778 66.4428 18.2945 65.9263Z" fill="url(#paint32_linear_137_8191)"/>
<path d="M34.726 82.3578C35.5487 81.5351 35.5487 80.2013 34.726 79.3787C33.9034 78.556 32.5696 78.556 31.7469 79.3787C30.9242 80.2013 30.9242 81.5351 31.7469 82.3578C32.5696 83.1805 33.9034 83.1805 34.726 82.3578Z" fill="url(#paint33_linear_137_8191)"/>
<path d="M51.1576 98.7893C52.2863 97.6605 52.2863 95.8304 51.1576 94.7017C50.0288 93.5729 48.1987 93.5729 47.0699 94.7017C45.9411 95.8304 45.9411 97.6605 47.0699 98.7893C48.1987 99.9181 50.0288 99.9181 51.1576 98.7893Z" fill="url(#paint34_linear_137_8191)"/>
<path d="M67.5804 115.212C69.0105 113.782 69.0105 111.463 67.5804 110.033C66.1503 108.603 63.8316 108.603 62.4015 110.033C60.9714 111.463 60.9714 113.782 62.4015 115.212C63.8316 116.642 66.1503 116.642 67.5804 115.212Z" fill="url(#paint35_linear_137_8191)"/>
<path d="M84.0119 131.644C85.7481 129.907 85.7481 127.093 84.0119 125.356C82.2757 123.62 79.4607 123.62 77.7245 125.356C75.9883 127.093 75.9883 129.907 77.7245 131.644C79.4607 133.38 82.2757 133.38 84.0119 131.644Z" fill="url(#paint36_linear_137_8191)"/>
<path d="M100.443 148.075C102.486 146.033 102.486 142.722 100.443 140.679C98.4011 138.637 95.0899 138.637 93.0475 140.679C91.0052 142.722 91.0052 146.033 93.0475 148.075C95.0899 150.118 98.4011 150.118 100.443 148.075Z" fill="url(#paint37_linear_137_8191)"/>
<path d="M116.321 163.952C118.363 161.91 118.363 158.599 116.321 156.557C114.278 154.514 110.967 154.514 108.925 156.557C106.882 158.599 106.882 161.91 108.925 163.952C110.967 165.995 114.278 165.995 116.321 163.952Z" fill="url(#paint38_linear_137_8191)"/>
<path d="M131.644 179.275C133.38 177.539 133.38 174.724 131.644 172.988C129.907 171.252 127.093 171.252 125.356 172.988C123.62 174.724 123.62 177.539 125.356 179.275C127.093 181.012 129.907 181.012 131.644 179.275Z" fill="url(#paint39_linear_137_8191)"/>
<path d="M146.967 194.598C148.397 193.168 148.397 190.85 146.967 189.42C145.537 187.989 143.218 187.989 141.788 189.42C140.358 190.85 140.358 193.168 141.788 194.598C143.218 196.029 145.537 196.029 146.967 194.598Z" fill="url(#paint40_linear_137_8191)"/>
<path d="M162.298 209.93C163.427 208.801 163.427 206.971 162.298 205.842C161.17 204.714 159.339 204.714 158.211 205.842C157.082 206.971 157.082 208.801 158.211 209.93C159.339 211.059 161.17 211.059 162.298 209.93Z" fill="url(#paint41_linear_137_8191)"/>
<path d="M177.621 225.253C178.444 224.43 178.444 223.097 177.621 222.274C176.799 221.451 175.465 221.451 174.642 222.274C173.82 223.097 173.82 224.43 174.642 225.253C175.465 226.076 176.799 226.076 177.621 225.253Z" fill="url(#paint42_linear_137_8191)"/>
<path d="M192.944 240.576C193.461 240.06 193.461 239.222 192.944 238.705C192.428 238.189 191.59 238.189 191.074 238.705C190.557 239.222 190.557 240.06 191.074 240.576C191.59 241.093 192.428 241.093 192.944 240.576Z" fill="url(#paint43_linear_137_8191)"/>
<path d="M34.2844 50.1616C34.8631 49.5829 34.8631 48.6446 34.2844 48.0658C33.7056 47.4871 32.7673 47.4871 32.1886 48.0658C31.6098 48.6446 31.6098 49.5829 32.1886 50.1616C32.7673 50.7404 33.7056 50.7404 34.2844 50.1616Z" fill="url(#paint44_linear_137_8191)"/>
<path d="M50.8198 66.6971C51.762 65.7548 51.762 64.2271 50.8198 63.2849C49.8776 62.3426 48.3499 62.3426 47.4076 63.2849C46.4654 64.2271 46.4654 65.7548 47.4076 66.6971C48.3499 67.6393 49.8776 67.6393 50.8198 66.6971Z" fill="url(#paint45_linear_137_8191)"/>
<path d="M67.3639 83.2412C68.6744 81.9306 68.6744 79.8058 67.3639 78.4953C66.0534 77.1848 63.9286 77.1848 62.618 78.4953C61.3075 79.8058 61.3075 81.9306 62.618 83.2412C63.9286 84.5517 66.0534 84.5517 67.3639 83.2412Z" fill="url(#paint46_linear_137_8191)"/>
<path d="M83.8993 99.7766C85.5734 98.1026 85.5734 95.3884 83.8993 93.7144C82.2253 92.0403 79.5112 92.0403 77.8371 93.7144C76.1631 95.3884 76.1631 98.1026 77.8371 99.7766C79.5112 101.451 82.2253 101.451 83.8993 99.7766Z" fill="url(#paint47_linear_137_8191)"/>
<path d="M100.443 116.321C102.486 114.278 102.486 110.967 100.443 108.925C98.4011 106.882 95.0899 106.882 93.0475 108.925C91.0052 110.967 91.0052 114.278 93.0475 116.321C95.0899 118.363 98.4011 118.363 100.443 116.321Z" fill="url(#paint48_linear_137_8191)"/>
<path d="M116.979 132.856C119.385 130.45 119.385 126.55 116.979 124.144C114.573 121.738 110.672 121.738 108.267 124.144C105.861 126.55 105.861 130.45 108.267 132.856C110.672 135.262 114.573 135.262 116.979 132.856Z" fill="url(#paint49_linear_137_8191)"/>
<path d="M132.856 148.733C135.262 146.328 135.262 142.427 132.856 140.021C130.45 137.615 126.55 137.615 124.144 140.021C121.738 142.427 121.738 146.328 124.144 148.733C126.55 151.139 130.45 151.139 132.856 148.733Z" fill="url(#paint50_linear_137_8191)"/>
<path d="M148.075 163.952C150.118 161.91 150.118 158.599 148.075 156.557C146.033 154.514 142.722 154.514 140.679 156.557C138.637 158.599 138.637 161.91 140.679 163.952C142.722 165.995 146.033 165.995 148.075 163.952Z" fill="url(#paint51_linear_137_8191)"/>
<path d="M163.286 179.163C164.96 177.489 164.96 174.775 163.286 173.101C161.612 171.427 158.897 171.427 157.223 173.101C155.549 174.775 155.549 177.489 157.223 179.163C158.897 180.837 161.612 180.837 163.286 179.163Z" fill="url(#paint52_linear_137_8191)"/>
<path d="M178.505 194.382C179.815 193.071 179.815 190.947 178.505 189.636C177.194 188.326 175.069 188.326 173.759 189.636C172.448 190.947 172.448 193.071 173.759 194.382C175.069 195.692 177.194 195.692 178.505 194.382Z" fill="url(#paint53_linear_137_8191)"/>
<path d="M193.715 209.592C194.657 208.65 194.657 207.122 193.715 206.18C192.773 205.238 191.245 205.238 190.303 206.18C189.361 207.122 189.361 208.65 190.303 209.592C191.245 210.535 192.773 210.535 193.715 209.592Z" fill="url(#paint54_linear_137_8191)"/>
<path d="M208.934 224.811C209.513 224.233 209.513 223.294 208.934 222.716C208.355 222.137 207.417 222.137 206.838 222.716C206.26 223.294 206.26 224.233 206.838 224.811C207.417 225.39 208.355 225.39 208.934 224.811Z" fill="url(#paint55_linear_137_8191)"/>
<path d="M50.1616 34.2844C50.7404 33.7056 50.7404 32.7673 50.1616 32.1886C49.5829 31.6098 48.6446 31.6098 48.0658 32.1886C47.4871 32.7673 47.4871 33.7056 48.0658 34.2844C48.6446 34.8631 49.5829 34.8631 50.1616 34.2844Z" fill="url(#paint56_linear_137_8191)"/>
<path d="M66.6971 50.8198C67.6393 49.8776 67.6393 48.3499 66.6971 47.4076C65.7548 46.4654 64.2271 46.4654 63.2849 47.4076C62.3426 48.3499 62.3426 49.8776 63.2849 50.8198C64.2271 51.7621 65.7548 51.762 66.6971 50.8198Z" fill="url(#paint57_linear_137_8191)"/>
<path d="M83.2412 67.3639C84.5517 66.0534 84.5517 63.9286 83.2412 62.618C81.9306 61.3075 79.8058 61.3075 78.4953 62.618C77.1848 63.9286 77.1848 66.0534 78.4953 67.3639C79.8058 68.6744 81.9306 68.6744 83.2412 67.3639Z" fill="url(#paint58_linear_137_8191)"/>
<path d="M99.7766 83.8993C101.451 82.2253 101.451 79.5112 99.7766 77.8371C98.1026 76.1631 95.3884 76.1631 93.7144 77.8371C92.0403 79.5112 92.0403 82.2253 93.7144 83.8993C95.3884 85.5734 98.1026 85.5734 99.7766 83.8993Z" fill="url(#paint59_linear_137_8191)"/>
<path d="M116.321 100.443C118.363 98.4011 118.363 95.0899 116.321 93.0475C114.278 91.0052 110.967 91.0052 108.925 93.0475C106.882 95.0899 106.882 98.4011 108.925 100.443C110.967 102.486 114.278 102.486 116.321 100.443Z" fill="url(#paint60_linear_137_8191)"/>
<path d="M132.856 116.979C135.262 114.573 135.262 110.672 132.856 108.267C130.45 105.861 126.55 105.861 124.144 108.267C121.738 110.672 121.738 114.573 124.144 116.979C126.55 119.385 130.45 119.385 132.856 116.979Z" fill="url(#paint61_linear_137_8191)"/>
<path d="M148.733 132.856C151.139 130.45 151.139 126.55 148.733 124.144C146.328 121.738 142.427 121.738 140.021 124.144C137.615 126.55 137.615 130.45 140.021 132.856C142.427 135.262 146.328 135.262 148.733 132.856Z" fill="url(#paint62_linear_137_8191)"/>
<path d="M163.952 148.075C165.995 146.033 165.995 142.722 163.952 140.679C161.91 138.637 158.599 138.637 156.557 140.679C154.514 142.722 154.514 146.033 156.557 148.075C158.599 150.118 161.91 150.118 163.952 148.075Z" fill="url(#paint63_linear_137_8191)"/>
<path d="M179.163 163.286C180.837 161.612 180.837 158.897 179.163 157.223C177.489 155.549 174.775 155.549 173.101 157.223C171.427 158.897 171.427 161.612 173.101 163.286C174.775 164.96 177.489 164.96 179.163 163.286Z" fill="url(#paint64_linear_137_8191)"/>
<path d="M194.382 178.505C195.692 177.194 195.692 175.069 194.382 173.759C193.071 172.448 190.947 172.448 189.636 173.759C188.326 175.069 188.326 177.194 189.636 178.505C190.947 179.815 193.071 179.815 194.382 178.505Z" fill="url(#paint65_linear_137_8191)"/>
<path d="M209.592 193.715C210.535 192.773 210.535 191.245 209.592 190.303C208.65 189.361 207.122 189.361 206.18 190.303C205.238 191.245 205.238 192.773 206.18 193.715C207.122 194.657 208.65 194.657 209.592 193.715Z" fill="url(#paint66_linear_137_8191)"/>
<path d="M224.811 208.934C225.39 208.355 225.39 207.417 224.811 206.838C224.233 206.26 223.294 206.26 222.716 206.838C222.137 207.417 222.137 208.355 222.716 208.934C223.294 209.513 224.233 209.513 224.811 208.934Z" fill="url(#paint67_linear_137_8191)"/>
<path d="M65.9263 18.2945C66.4428 17.778 66.4428 16.9405 65.9263 16.4239C65.4097 15.9073 64.5722 15.9073 64.0557 16.4239C63.5391 16.9405 63.5391 17.778 64.0557 18.2945C64.5722 18.8111 65.4097 18.8111 65.9263 18.2945Z" fill="url(#paint68_linear_137_8191)"/>
<path d="M82.3578 34.726C83.1805 33.9034 83.1805 32.5696 82.3578 31.7469C81.5351 30.9242 80.2013 30.9242 79.3787 31.7469C78.556 32.5696 78.556 33.9034 79.3787 34.726C80.2013 35.5487 81.5351 35.5487 82.3578 34.726Z" fill="url(#paint69_linear_137_8191)"/>
<path d="M98.7893 51.1576C99.9181 50.0288 99.9181 48.1987 98.7893 47.0699C97.6605 45.9411 95.8304 45.9411 94.7017 47.0699C93.5729 48.1987 93.5729 50.0288 94.7017 51.1576C95.8304 52.2863 97.6605 52.2863 98.7893 51.1576Z" fill="url(#paint70_linear_137_8191)"/>
<path d="M115.212 67.5804C116.642 66.1503 116.642 63.8316 115.212 62.4015C113.782 60.9714 111.463 60.9714 110.033 62.4015C108.603 63.8316 108.603 66.1503 110.033 67.5804C111.463 69.0105 113.782 69.0105 115.212 67.5804Z" fill="url(#paint71_linear_137_8191)"/>
<path d="M131.644 84.0119C133.38 82.2757 133.38 79.4607 131.644 77.7245C129.907 75.9883 127.093 75.9883 125.356 77.7245C123.62 79.4608 123.62 82.2757 125.356 84.0119C127.093 85.7481 129.907 85.7481 131.644 84.0119Z" fill="url(#paint72_linear_137_8191)"/>
<path d="M148.075 100.443C150.118 98.4011 150.118 95.0899 148.075 93.0475C146.033 91.0052 142.722 91.0052 140.679 93.0475C138.637 95.0899 138.637 98.4011 140.679 100.443C142.722 102.486 146.033 102.486 148.075 100.443Z" fill="url(#paint73_linear_137_8191)"/>
<path d="M163.952 116.321C165.995 114.278 165.995 110.967 163.952 108.925C161.91 106.882 158.599 106.882 156.557 108.925C154.514 110.967 154.514 114.278 156.557 116.321C158.599 118.363 161.91 118.363 163.952 116.321Z" fill="url(#paint74_linear_137_8191)"/>
<path d="M179.275 131.644C181.012 129.907 181.012 127.093 179.275 125.356C177.539 123.62 174.724 123.62 172.988 125.356C171.252 127.093 171.252 129.907 172.988 131.644C174.724 133.38 177.539 133.38 179.275 131.644Z" fill="url(#paint75_linear_137_8191)"/>
<path d="M194.598 146.967C196.029 145.537 196.029 143.218 194.598 141.788C193.168 140.358 190.85 140.358 189.42 141.788C187.989 143.218 187.989 145.537 189.42 146.967C190.85 148.397 193.168 148.397 194.598 146.967Z" fill="url(#paint76_linear_137_8191)"/>
<path d="M209.93 162.298C211.059 161.17 211.059 159.339 209.93 158.211C208.801 157.082 206.971 157.082 205.842 158.211C204.714 159.339 204.714 161.17 205.842 162.298C206.971 163.427 208.801 163.427 209.93 162.298Z" fill="url(#paint77_linear_137_8191)"/>
<path d="M225.253 177.621C226.076 176.799 226.076 175.465 225.253 174.642C224.43 173.82 223.097 173.82 222.274 174.642C221.451 175.465 221.451 176.799 222.274 177.621C223.097 178.444 224.43 178.444 225.253 177.621Z" fill="url(#paint78_linear_137_8191)"/>
<path d="M240.576 192.944C241.093 192.428 241.093 191.59 240.576 191.074C240.06 190.557 239.222 190.557 238.705 191.074C238.189 191.59 238.189 192.428 238.705 192.944C239.222 193.461 240.06 193.461 240.576 192.944Z" fill="url(#paint79_linear_137_8191)"/>
<path d="M98.0099 18.6236C98.7082 17.9253 98.7082 16.7931 98.0099 16.0948C97.3116 15.3965 96.1794 15.3965 95.4811 16.0948C94.7828 16.7931 94.7828 17.9253 95.4811 18.6236C96.1794 19.3219 97.3116 19.3219 98.0099 18.6236Z" fill="url(#paint80_linear_137_8191)"/>
<path d="M114.329 34.9426C115.271 34.0003 115.271 32.4726 114.329 31.5304C113.387 30.5881 111.859 30.5881 110.917 31.5304C109.974 32.4726 109.974 34.0003 110.917 34.9426C111.859 35.8848 113.387 35.8848 114.329 34.9426Z" fill="url(#paint81_linear_137_8191)"/>
<path d="M130.648 51.2615C131.834 50.0753 131.834 48.1521 130.648 46.966C129.462 45.7798 127.538 45.7798 126.352 46.966C125.166 48.1521 125.166 50.0753 126.352 51.2615C127.538 52.4477 129.462 52.4477 130.648 51.2615Z" fill="url(#paint82_linear_137_8191)"/>
<path d="M146.967 67.5804C148.397 66.1503 148.397 63.8316 146.967 62.4015C145.537 60.9714 143.218 60.9714 141.788 62.4015C140.358 63.8317 140.358 66.1503 141.788 67.5804C143.218 69.0105 145.537 69.0105 146.967 67.5804Z" fill="url(#paint83_linear_137_8191)"/>
<path d="M163.286 83.8993C164.96 82.2253 164.96 79.5112 163.286 77.8371C161.612 76.1631 158.897 76.1631 157.223 77.8371C155.549 79.5112 155.549 82.2253 157.223 83.8993C158.897 85.5734 161.612 85.5734 163.286 83.8993Z" fill="url(#paint84_linear_137_8191)"/>
<path d="M179.163 99.7766C180.837 98.1026 180.837 95.3884 179.163 93.7144C177.489 92.0403 174.775 92.0403 173.101 93.7144C171.427 95.3884 171.427 98.1026 173.101 99.7766C174.775 101.451 177.489 101.451 179.163 99.7766Z" fill="url(#paint85_linear_137_8191)"/>
<path d="M194.598 115.212C196.029 113.782 196.029 111.463 194.598 110.033C193.168 108.603 190.85 108.603 189.42 110.033C187.989 111.463 187.989 113.782 189.42 115.212C190.85 116.642 193.168 116.642 194.598 115.212Z" fill="url(#paint86_linear_137_8191)"/>
<path d="M210.034 130.648C211.22 129.462 211.22 127.538 210.034 126.352C208.848 125.166 206.925 125.166 205.739 126.352C204.552 127.538 204.552 129.462 205.739 130.648C206.925 131.834 208.848 131.834 210.034 130.648Z" fill="url(#paint87_linear_137_8191)"/>
<path d="M225.47 146.083C226.412 145.141 226.412 143.613 225.47 142.671C224.527 141.729 223 141.729 222.057 142.671C221.115 143.613 221.115 145.141 222.057 146.083C223 147.026 224.527 147.026 225.47 146.083Z" fill="url(#paint88_linear_137_8191)"/>
<path d="M240.905 161.519C241.604 160.821 241.604 159.688 240.905 158.99C240.207 158.292 239.075 158.292 238.376 158.99C237.678 159.688 237.678 160.821 238.376 161.519C239.075 162.217 240.207 162.217 240.905 161.519Z" fill="url(#paint89_linear_137_8191)"/>
<path d="M113.671 2.52985C114.249 1.95111 114.249 1.0128 113.671 0.434059C113.092 -0.14468 112.154 -0.144686 111.575 0.434052C110.996 1.01279 110.996 1.95112 111.575 2.52985C112.154 3.10859 113.092 3.10859 113.671 2.52985Z" fill="url(#paint90_linear_137_8191)"/>
<path d="M129.877 18.7362C130.637 17.9757 130.637 16.7427 129.877 15.9822C129.116 15.2217 127.883 15.2217 127.123 15.9822C126.363 16.7427 126.363 17.9757 127.123 18.7362C127.883 19.4967 129.116 19.4967 129.877 18.7362Z" fill="url(#paint91_linear_137_8191)"/>
<path d="M146.083 34.9425C147.026 34.0003 147.026 32.4726 146.083 31.5304C145.141 30.5881 143.613 30.5881 142.671 31.5304C141.729 32.4726 141.729 34.0003 142.671 34.9425C143.613 35.8848 145.141 35.8848 146.083 34.9425Z" fill="url(#paint92_linear_137_8191)"/>
<path d="M162.298 51.1576C163.427 50.0288 163.427 48.1987 162.298 47.0699C161.17 45.9411 159.339 45.9411 158.211 47.0699C157.082 48.1987 157.082 50.0288 158.211 51.1576C159.339 52.2863 161.17 52.2863 162.298 51.1576Z" fill="url(#paint93_linear_137_8191)"/>
<path d="M178.505 67.3639C179.815 66.0534 179.815 63.9286 178.505 62.6181C177.194 61.3075 175.069 61.3075 173.759 62.618C172.448 63.9286 172.448 66.0534 173.759 67.3639C175.069 68.6744 177.194 68.6744 178.505 67.3639Z" fill="url(#paint94_linear_137_8191)"/>
<path d="M194.382 83.2412C195.692 81.9306 195.692 79.8058 194.382 78.4953C193.071 77.1848 190.947 77.1848 189.636 78.4953C188.326 79.8058 188.326 81.9306 189.636 83.2412C190.947 84.5517 193.071 84.5517 194.382 83.2412Z" fill="url(#paint95_linear_137_8191)"/>
<path d="M209.93 98.7893C211.059 97.6605 211.059 95.8304 209.93 94.7016C208.801 93.5729 206.971 93.5729 205.842 94.7016C204.714 95.8304 204.714 97.6605 205.842 98.7893C206.971 99.9181 208.801 99.9181 209.93 98.7893Z" fill="url(#paint96_linear_137_8191)"/>
<path d="M225.47 114.329C226.412 113.387 226.412 111.859 225.47 110.917C224.527 109.974 223 109.974 222.057 110.917C221.115 111.859 221.115 113.387 222.057 114.329C223 115.271 224.527 115.271 225.47 114.329Z" fill="url(#paint97_linear_137_8191)"/>
<path d="M241.018 129.877C241.778 129.116 241.778 127.883 241.018 127.123C240.257 126.363 239.024 126.362 238.264 127.123C237.503 127.883 237.503 129.117 238.264 129.877C239.024 130.637 240.257 130.637 241.018 129.877Z" fill="url(#paint98_linear_137_8191)"/>
<path d="M256.566 145.425C257.145 144.846 257.145 143.908 256.566 143.329C255.987 142.751 255.049 142.751 254.47 143.329C253.891 143.908 253.891 144.846 254.47 145.425C255.049 146.004 255.987 146.004 256.566 145.425Z" fill="url(#paint99_linear_137_8191)"/>
<path d="M145.425 2.52986C146.004 1.95112 146.004 1.01279 145.425 0.434051C144.846 -0.144688 143.908 -0.144681 143.329 0.434057C142.751 1.0128 142.751 1.95112 143.329 2.52986C143.908 3.1086 144.846 3.1086 145.425 2.52986Z" fill="url(#paint100_linear_137_8191)"/>
<path d="M161.519 18.6236C162.217 17.9253 162.217 16.7931 161.519 16.0948C160.821 15.3965 159.688 15.3965 158.99 16.0948C158.292 16.7931 158.292 17.9253 158.99 18.6236C159.688 19.3219 160.821 19.3219 161.519 18.6236Z" fill="url(#paint101_linear_137_8191)"/>
<path d="M177.621 34.726C178.444 33.9034 178.444 32.5696 177.621 31.7469C176.799 30.9242 175.465 30.9242 174.642 31.7469C173.82 32.5696 173.82 33.9034 174.642 34.726C175.465 35.5487 176.799 35.5487 177.621 34.726Z" fill="url(#paint102_linear_137_8191)"/>
<path d="M193.715 50.8198C194.657 49.8776 194.657 48.3499 193.715 47.4076C192.773 46.4654 191.245 46.4654 190.303 47.4076C189.361 48.3499 189.361 49.8776 190.303 50.8198C191.245 51.7621 192.773 51.7621 193.715 50.8198Z" fill="url(#paint103_linear_137_8191)"/>
<path d="M209.592 66.6971C210.535 65.7548 210.535 64.2271 209.592 63.2849C208.65 62.3426 207.122 62.3426 206.18 63.2849C205.238 64.2271 205.238 65.7548 206.18 66.6971C207.122 67.6393 208.65 67.6393 209.592 66.6971Z" fill="url(#paint104_linear_137_8191)"/>
<path d="M225.253 82.3578C226.076 81.5351 226.076 80.2013 225.253 79.3787C224.43 78.556 223.097 78.556 222.274 79.3787C221.451 80.2013 221.451 81.5351 222.274 82.3578C223.097 83.1805 224.43 83.1805 225.253 82.3578Z" fill="url(#paint105_linear_137_8191)"/>
<path d="M240.905 98.0099C241.604 97.3116 241.604 96.1794 240.905 95.4811C240.207 94.7828 239.075 94.7828 238.376 95.4811C237.678 96.1794 237.678 97.3116 238.376 98.0099C239.075 98.7082 240.207 98.7082 240.905 98.0099Z" fill="url(#paint106_linear_137_8191)"/>
<path d="M256.566 113.671C257.145 113.092 257.145 112.154 256.566 111.575C255.987 110.996 255.049 110.996 254.47 111.575C253.891 112.154 253.891 113.092 254.47 113.671C255.049 114.249 255.987 114.249 256.566 113.671Z" fill="url(#paint107_linear_137_8191)"/>
<path d="M192.944 18.2945C193.461 17.778 193.461 16.9405 192.944 16.4239C192.428 15.9073 191.59 15.9073 191.074 16.4239C190.557 16.9405 190.557 17.778 191.074 18.2945C191.59 18.8111 192.428 18.8111 192.944 18.2945Z" fill="url(#paint108_linear_137_8191)"/>
<path d="M208.934 34.2844C209.513 33.7056 209.513 32.7673 208.934 32.1886C208.355 31.6098 207.417 31.6098 206.838 32.1886C206.26 32.7673 206.26 33.7056 206.838 34.2844C207.417 34.8631 208.355 34.8631 208.934 34.2844Z" fill="url(#paint109_linear_137_8191)"/>
<path d="M224.811 50.1616C225.39 49.5829 225.39 48.6446 224.811 48.0658C224.233 47.4871 223.294 47.4871 222.716 48.0658C222.137 48.6446 222.137 49.5829 222.716 50.1616C223.294 50.7404 224.233 50.7404 224.811 50.1616Z" fill="url(#paint110_linear_137_8191)"/>
<path d="M240.576 65.9263C241.093 65.4097 241.093 64.5722 240.576 64.0557C240.06 63.5391 239.222 63.5391 238.705 64.0557C238.189 64.5722 238.189 65.4097 238.705 65.9263C239.222 66.4429 240.06 66.4429 240.576 65.9263Z" fill="url(#paint111_linear_137_8191)"/>
<defs>
<linearGradient id="paint0_linear_137_8191" x1="128.5" y1="0" x2="128.5" y2="257" gradientUnits="userSpaceOnUse">
<stop stop-color="#02D1FE"/>
<stop offset="1" stop-color="#BB43CD"/>
</linearGradient>
<linearGradient id="paint1_linear_137_8191" x1="128.5" y1="0" x2="128.5" y2="257" gradientUnits="userSpaceOnUse">
<stop stop-color="#02D1FE"/>
<stop offset="1" stop-color="#BB43CD"/>
</linearGradient>
<linearGradient id="paint2_linear_137_8191" x1="128.5" y1="0" x2="128.5" y2="257" gradientUnits="userSpaceOnUse">
<stop stop-color="#02D1FE"/>
<stop offset="1" stop-color="#BB43CD"/>
</linearGradient>
<linearGradient id="paint3_linear_137_8191" x1="128.5" y1="0" x2="128.5" y2="257" gradientUnits="userSpaceOnUse">
<stop stop-color="#02D1FE"/>
<stop offset="1" stop-color="#BB43CD"/>
</linearGradient>
<linearGradient id="paint4_linear_137_8191" x1="128.5" y1="0" x2="128.5" y2="257" gradientUnits="userSpaceOnUse">
<stop stop-color="#02D1FE"/>
<stop offset="1" stop-color="#BB43CD"/>
</linearGradient>
<linearGradient id="paint5_linear_137_8191" x1="128.5" y1="0" x2="128.5" y2="257" gradientUnits="userSpaceOnUse">
<stop stop-color="#02D1FE"/>
<stop offset="1" stop-color="#BB43CD"/>
</linearGradient>
<linearGradient id="paint6_linear_137_8191" x1="128.5" y1="0" x2="128.5" y2="257" gradientUnits="userSpaceOnUse">
<stop stop-color="#02D1FE"/>
<stop offset="1" stop-color="#BB43CD"/>
</linearGradient>
<linearGradient id="paint7_linear_137_8191" x1="128.5" y1="0" x2="128.5" y2="257" gradientUnits="userSpaceOnUse">
<stop stop-color="#02D1FE"/>
<stop offset="1" stop-color="#BB43CD"/>
</linearGradient>
<linearGradient id="paint8_linear_137_8191" x1="128.5" y1="0" x2="128.5" y2="257" gradientUnits="userSpaceOnUse">
<stop stop-color="#02D1FE"/>
<stop offset="1" stop-color="#BB43CD"/>
</linearGradient>
<linearGradient id="paint9_linear_137_8191" x1="128.5" y1="0" x2="128.5" y2="257" gradientUnits="userSpaceOnUse">
<stop stop-color="#02D1FE"/>
<stop offset="1" stop-color="#BB43CD"/>
</linearGradient>
<linearGradient id="paint10_linear_137_8191" x1="128.5" y1="0" x2="128.5" y2="257" gradientUnits="userSpaceOnUse">
<stop stop-color="#02D1FE"/>
<stop offset="1" stop-color="#BB43CD"/>
</linearGradient>
<linearGradient id="paint11_linear_137_8191" x1="128.5" y1="0" x2="128.5" y2="257" gradientUnits="userSpaceOnUse">
<stop stop-color="#02D1FE"/>
<stop offset="1" stop-color="#BB43CD"/>
</linearGradient>
<linearGradient id="paint12_linear_137_8191" x1="128.5" y1="0" x2="128.5" y2="257" gradientUnits="userSpaceOnUse">
<stop stop-color="#02D1FE"/>
<stop offset="1" stop-color="#BB43CD"/>
</linearGradient>
<linearGradient id="paint13_linear_137_8191" x1="128.5" y1="0" x2="128.5" y2="257" gradientUnits="userSpaceOnUse">
<stop stop-color="#02D1FE"/>
<stop offset="1" stop-color="#BB43CD"/>
</linearGradient>
<linearGradient id="paint14_linear_137_8191" x1="128.5" y1="0" x2="128.5" y2="257" gradientUnits="userSpaceOnUse">
<stop stop-color="#02D1FE"/>
<stop offset="1" stop-color="#BB43CD"/>
</linearGradient>
<linearGradient id="paint15_linear_137_8191" x1="128.5" y1="0" x2="128.5" y2="257" gradientUnits="userSpaceOnUse">
<stop stop-color="#02D1FE"/>
<stop offset="1" stop-color="#BB43CD"/>
</linearGradient>
<linearGradient id="paint16_linear_137_8191" x1="128.5" y1="0" x2="128.5" y2="257" gradientUnits="userSpaceOnUse">
<stop stop-color="#02D1FE"/>
<stop offset="1" stop-color="#BB43CD"/>
</linearGradient>
<linearGradient id="paint17_linear_137_8191" x1="128.5" y1="0" x2="128.5" y2="257" gradientUnits="userSpaceOnUse">
<stop stop-color="#02D1FE"/>
<stop offset="1" stop-color="#BB43CD"/>
</linearGradient>
<linearGradient id="paint18_linear_137_8191" x1="128.5" y1="0" x2="128.5" y2="257" gradientUnits="userSpaceOnUse">
<stop stop-color="#02D1FE"/>
<stop offset="1" stop-color="#BB43CD"/>
</linearGradient>
<linearGradient id="paint19_linear_137_8191" x1="128.5" y1="0" x2="128.5" y2="257" gradientUnits="userSpaceOnUse">
<stop stop-color="#02D1FE"/>
<stop offset="1" stop-color="#BB43CD"/>
</linearGradient>
<linearGradient id="paint20_linear_137_8191" x1="128.5" y1="0" x2="128.5" y2="257" gradientUnits="userSpaceOnUse">
<stop stop-color="#02D1FE"/>
<stop offset="1" stop-color="#BB43CD"/>
</linearGradient>
<linearGradient id="paint21_linear_137_8191" x1="128.5" y1="0" x2="128.5" y2="257" gradientUnits="userSpaceOnUse">
<stop stop-color="#02D1FE"/>
<stop offset="1" stop-color="#BB43CD"/>
</linearGradient>
<linearGradient id="paint22_linear_137_8191" x1="128.5" y1="0" x2="128.5" y2="257" gradientUnits="userSpaceOnUse">
<stop stop-color="#02D1FE"/>
<stop offset="1" stop-color="#BB43CD"/>
</linearGradient>
<linearGradient id="paint23_linear_137_8191" x1="128.5" y1="0" x2="128.5" y2="257" gradientUnits="userSpaceOnUse">
<stop stop-color="#02D1FE"/>
<stop offset="1" stop-color="#BB43CD"/>
</linearGradient>
<linearGradient id="paint24_linear_137_8191" x1="128.5" y1="0" x2="128.5" y2="257" gradientUnits="userSpaceOnUse">
<stop stop-color="#02D1FE"/>
<stop offset="1" stop-color="#BB43CD"/>
</linearGradient>
<linearGradient id="paint25_linear_137_8191" x1="128.5" y1="0" x2="128.5" y2="257" gradientUnits="userSpaceOnUse">
<stop stop-color="#02D1FE"/>
<stop offset="1" stop-color="#BB43CD"/>
</linearGradient>
<linearGradient id="paint26_linear_137_8191" x1="128.5" y1="0" x2="128.5" y2="257" gradientUnits="userSpaceOnUse">
<stop stop-color="#02D1FE"/>
<stop offset="1" stop-color="#BB43CD"/>
</linearGradient>
<linearGradient id="paint27_linear_137_8191" x1="128.5" y1="0" x2="128.5" y2="257" gradientUnits="userSpaceOnUse">
<stop stop-color="#02D1FE"/>
<stop offset="1" stop-color="#BB43CD"/>
</linearGradient>
<linearGradient id="paint28_linear_137_8191" x1="128.5" y1="0" x2="128.5" y2="257" gradientUnits="userSpaceOnUse">
<stop stop-color="#02D1FE"/>
<stop offset="1" stop-color="#BB43CD"/>
</linearGradient>
<linearGradient id="paint29_linear_137_8191" x1="128.5" y1="0" x2="128.5" y2="257" gradientUnits="userSpaceOnUse">
<stop stop-color="#02D1FE"/>
<stop offset="1" stop-color="#BB43CD"/>
</linearGradient>
<linearGradient id="paint30_linear_137_8191" x1="128.5" y1="0" x2="128.5" y2="257" gradientUnits="userSpaceOnUse">
<stop stop-color="#02D1FE"/>
<stop offset="1" stop-color="#BB43CD"/>
</linearGradient>
<linearGradient id="paint31_linear_137_8191" x1="128.5" y1="0" x2="128.5" y2="257" gradientUnits="userSpaceOnUse">
<stop stop-color="#02D1FE"/>
<stop offset="1" stop-color="#BB43CD"/>
</linearGradient>
<linearGradient id="paint32_linear_137_8191" x1="128.5" y1="0" x2="128.5" y2="257" gradientUnits="userSpaceOnUse">
<stop stop-color="#02D1FE"/>
<stop offset="1" stop-color="#BB43CD"/>
</linearGradient>
<linearGradient id="paint33_linear_137_8191" x1="128.5" y1="0" x2="128.5" y2="257" gradientUnits="userSpaceOnUse">
<stop stop-color="#02D1FE"/>
<stop offset="1" stop-color="#BB43CD"/>
</linearGradient>
<linearGradient id="paint34_linear_137_8191" x1="128.5" y1="0" x2="128.5" y2="257" gradientUnits="userSpaceOnUse">
<stop stop-color="#02D1FE"/>
<stop offset="1" stop-color="#BB43CD"/>
</linearGradient>
<linearGradient id="paint35_linear_137_8191" x1="128.5" y1="0" x2="128.5" y2="257" gradientUnits="userSpaceOnUse">
<stop stop-color="#02D1FE"/>
<stop offset="1" stop-color="#BB43CD"/>
</linearGradient>
<linearGradient id="paint36_linear_137_8191" x1="128.5" y1="0" x2="128.5" y2="257" gradientUnits="userSpaceOnUse">
<stop stop-color="#02D1FE"/>
<stop offset="1" stop-color="#BB43CD"/>
</linearGradient>
<linearGradient id="paint37_linear_137_8191" x1="128.5" y1="0" x2="128.5" y2="257" gradientUnits="userSpaceOnUse">
<stop stop-color="#02D1FE"/>
<stop offset="1" stop-color="#BB43CD"/>
</linearGradient>
<linearGradient id="paint38_linear_137_8191" x1="128.5" y1="0" x2="128.5" y2="257" gradientUnits="userSpaceOnUse">
<stop stop-color="#02D1FE"/>
<stop offset="1" stop-color="#BB43CD"/>
</linearGradient>
<linearGradient id="paint39_linear_137_8191" x1="128.5" y1="0" x2="128.5" y2="257" gradientUnits="userSpaceOnUse">
<stop stop-color="#02D1FE"/>
<stop offset="1" stop-color="#BB43CD"/>
</linearGradient>
<linearGradient id="paint40_linear_137_8191" x1="128.5" y1="0" x2="128.5" y2="257" gradientUnits="userSpaceOnUse">
<stop stop-color="#02D1FE"/>
<stop offset="1" stop-color="#BB43CD"/>
</linearGradient>
<linearGradient id="paint41_linear_137_8191" x1="128.5" y1="0" x2="128.5" y2="257" gradientUnits="userSpaceOnUse">
<stop stop-color="#02D1FE"/>
<stop offset="1" stop-color="#BB43CD"/>
</linearGradient>
<linearGradient id="paint42_linear_137_8191" x1="128.5" y1="0" x2="128.5" y2="257" gradientUnits="userSpaceOnUse">
<stop stop-color="#02D1FE"/>
<stop offset="1" stop-color="#BB43CD"/>
</linearGradient>
<linearGradient id="paint43_linear_137_8191" x1="128.5" y1="0" x2="128.5" y2="257" gradientUnits="userSpaceOnUse">
<stop stop-color="#02D1FE"/>
<stop offset="1" stop-color="#BB43CD"/>
</linearGradient>
<linearGradient id="paint44_linear_137_8191" x1="128.5" y1="0" x2="128.5" y2="257" gradientUnits="userSpaceOnUse">
<stop stop-color="#02D1FE"/>
<stop offset="1" stop-color="#BB43CD"/>
</linearGradient>
<linearGradient id="paint45_linear_137_8191" x1="128.5" y1="0" x2="128.5" y2="257" gradientUnits="userSpaceOnUse">
<stop stop-color="#02D1FE"/>
<stop offset="1" stop-color="#BB43CD"/>
</linearGradient>
<linearGradient id="paint46_linear_137_8191" x1="128.5" y1="0" x2="128.5" y2="257" gradientUnits="userSpaceOnUse">
<stop stop-color="#02D1FE"/>
<stop offset="1" stop-color="#BB43CD"/>
</linearGradient>
<linearGradient id="paint47_linear_137_8191" x1="128.5" y1="0" x2="128.5" y2="257" gradientUnits="userSpaceOnUse">
<stop stop-color="#02D1FE"/>
<stop offset="1" stop-color="#BB43CD"/>
</linearGradient>
<linearGradient id="paint48_linear_137_8191" x1="128.5" y1="0" x2="128.5" y2="257" gradientUnits="userSpaceOnUse">
<stop stop-color="#02D1FE"/>
<stop offset="1" stop-color="#BB43CD"/>
</linearGradient>
<linearGradient id="paint49_linear_137_8191" x1="128.5" y1="0" x2="128.5" y2="257" gradientUnits="userSpaceOnUse">
<stop stop-color="#02D1FE"/>
<stop offset="1" stop-color="#BB43CD"/>
</linearGradient>
<linearGradient id="paint50_linear_137_8191" x1="128.5" y1="0" x2="128.5" y2="257" gradientUnits="userSpaceOnUse">
<stop stop-color="#02D1FE"/>
<stop offset="1" stop-color="#BB43CD"/>
</linearGradient>
<linearGradient id="paint51_linear_137_8191" x1="128.5" y1="0" x2="128.5" y2="257" gradientUnits="userSpaceOnUse">
<stop stop-color="#02D1FE"/>
<stop offset="1" stop-color="#BB43CD"/>
</linearGradient>
<linearGradient id="paint52_linear_137_8191" x1="128.5" y1="0" x2="128.5" y2="257" gradientUnits="userSpaceOnUse">
<stop stop-color="#02D1FE"/>
<stop offset="1" stop-color="#BB43CD"/>
</linearGradient>
<linearGradient id="paint53_linear_137_8191" x1="128.5" y1="0" x2="128.5" y2="257" gradientUnits="userSpaceOnUse">
<stop stop-color="#02D1FE"/>
<stop offset="1" stop-color="#BB43CD"/>
</linearGradient>
<linearGradient id="paint54_linear_137_8191" x1="128.5" y1="0" x2="128.5" y2="257" gradientUnits="userSpaceOnUse">
<stop stop-color="#02D1FE"/>
<stop offset="1" stop-color="#BB43CD"/>
</linearGradient>
<linearGradient id="paint55_linear_137_8191" x1="128.5" y1="0" x2="128.5" y2="257" gradientUnits="userSpaceOnUse">
<stop stop-color="#02D1FE"/>
<stop offset="1" stop-color="#BB43CD"/>
</linearGradient>
<linearGradient id="paint56_linear_137_8191" x1="128.5" y1="0" x2="128.5" y2="257" gradientUnits="userSpaceOnUse">
<stop stop-color="#02D1FE"/>
<stop offset="1" stop-color="#BB43CD"/>
</linearGradient>
<linearGradient id="paint57_linear_137_8191" x1="128.5" y1="0" x2="128.5" y2="257" gradientUnits="userSpaceOnUse">
<stop stop-color="#02D1FE"/>
<stop offset="1" stop-color="#BB43CD"/>
</linearGradient>
<linearGradient id="paint58_linear_137_8191" x1="128.5" y1="0" x2="128.5" y2="257" gradientUnits="userSpaceOnUse">
<stop stop-color="#02D1FE"/>
<stop offset="1" stop-color="#BB43CD"/>
</linearGradient>
<linearGradient id="paint59_linear_137_8191" x1="128.5" y1="0" x2="128.5" y2="257" gradientUnits="userSpaceOnUse">
<stop stop-color="#02D1FE"/>
<stop offset="1" stop-color="#BB43CD"/>
</linearGradient>
<linearGradient id="paint60_linear_137_8191" x1="128.5" y1="0" x2="128.5" y2="257" gradientUnits="userSpaceOnUse">
<stop stop-color="#02D1FE"/>
<stop offset="1" stop-color="#BB43CD"/>
</linearGradient>
<linearGradient id="paint61_linear_137_8191" x1="128.5" y1="0" x2="128.5" y2="257" gradientUnits="userSpaceOnUse">
<stop stop-color="#02D1FE"/>
<stop offset="1" stop-color="#BB43CD"/>
</linearGradient>
<linearGradient id="paint62_linear_137_8191" x1="128.5" y1="0" x2="128.5" y2="257" gradientUnits="userSpaceOnUse">
<stop stop-color="#02D1FE"/>
<stop offset="1" stop-color="#BB43CD"/>
</linearGradient>
<linearGradient id="paint63_linear_137_8191" x1="128.5" y1="0" x2="128.5" y2="257" gradientUnits="userSpaceOnUse">
<stop stop-color="#02D1FE"/>
<stop offset="1" stop-color="#BB43CD"/>
</linearGradient>
<linearGradient id="paint64_linear_137_8191" x1="128.5" y1="0" x2="128.5" y2="257" gradientUnits="userSpaceOnUse">
<stop stop-color="#02D1FE"/>
<stop offset="1" stop-color="#BB43CD"/>
</linearGradient>
<linearGradient id="paint65_linear_137_8191" x1="128.5" y1="0" x2="128.5" y2="257" gradientUnits="userSpaceOnUse">
<stop stop-color="#02D1FE"/>
<stop offset="1" stop-color="#BB43CD"/>
</linearGradient>
<linearGradient id="paint66_linear_137_8191" x1="128.5" y1="0" x2="128.5" y2="257" gradientUnits="userSpaceOnUse">
<stop stop-color="#02D1FE"/>
<stop offset="1" stop-color="#BB43CD"/>
</linearGradient>
<linearGradient id="paint67_linear_137_8191" x1="128.5" y1="0" x2="128.5" y2="257" gradientUnits="userSpaceOnUse">
<stop stop-color="#02D1FE"/>
<stop offset="1" stop-color="#BB43CD"/>
</linearGradient>
<linearGradient id="paint68_linear_137_8191" x1="128.5" y1="0" x2="128.5" y2="257" gradientUnits="userSpaceOnUse">
<stop stop-color="#02D1FE"/>
<stop offset="1" stop-color="#BB43CD"/>
</linearGradient>
<linearGradient id="paint69_linear_137_8191" x1="128.5" y1="0" x2="128.5" y2="257" gradientUnits="userSpaceOnUse">
<stop stop-color="#02D1FE"/>
<stop offset="1" stop-color="#BB43CD"/>
</linearGradient>
<linearGradient id="paint70_linear_137_8191" x1="128.5" y1="0" x2="128.5" y2="257" gradientUnits="userSpaceOnUse">
<stop stop-color="#02D1FE"/>
<stop offset="1" stop-color="#BB43CD"/>
</linearGradient>
<linearGradient id="paint71_linear_137_8191" x1="128.5" y1="0" x2="128.5" y2="257" gradientUnits="userSpaceOnUse">
<stop stop-color="#02D1FE"/>
<stop offset="1" stop-color="#BB43CD"/>
</linearGradient>
<linearGradient id="paint72_linear_137_8191" x1="128.5" y1="0" x2="128.5" y2="257" gradientUnits="userSpaceOnUse">
<stop stop-color="#02D1FE"/>
<stop offset="1" stop-color="#BB43CD"/>
</linearGradient>
<linearGradient id="paint73_linear_137_8191" x1="128.5" y1="0" x2="128.5" y2="257" gradientUnits="userSpaceOnUse">
<stop stop-color="#02D1FE"/>
<stop offset="1" stop-color="#BB43CD"/>
</linearGradient>
<linearGradient id="paint74_linear_137_8191" x1="128.5" y1="0" x2="128.5" y2="257" gradientUnits="userSpaceOnUse">
<stop stop-color="#02D1FE"/>
<stop offset="1" stop-color="#BB43CD"/>
</linearGradient>
<linearGradient id="paint75_linear_137_8191" x1="128.5" y1="0" x2="128.5" y2="257" gradientUnits="userSpaceOnUse">
<stop stop-color="#02D1FE"/>
<stop offset="1" stop-color="#BB43CD"/>
</linearGradient>
<linearGradient id="paint76_linear_137_8191" x1="128.5" y1="0" x2="128.5" y2="257" gradientUnits="userSpaceOnUse">
<stop stop-color="#02D1FE"/>
<stop offset="1" stop-color="#BB43CD"/>
</linearGradient>
<linearGradient id="paint77_linear_137_8191" x1="128.5" y1="0" x2="128.5" y2="257" gradientUnits="userSpaceOnUse">
<stop stop-color="#02D1FE"/>
<stop offset="1" stop-color="#BB43CD"/>
</linearGradient>
<linearGradient id="paint78_linear_137_8191" x1="128.5" y1="0" x2="128.5" y2="257" gradientUnits="userSpaceOnUse">
<stop stop-color="#02D1FE"/>
<stop offset="1" stop-color="#BB43CD"/>
</linearGradient>
<linearGradient id="paint79_linear_137_8191" x1="128.5" y1="0" x2="128.5" y2="257" gradientUnits="userSpaceOnUse">
<stop stop-color="#02D1FE"/>
<stop offset="1" stop-color="#BB43CD"/>
</linearGradient>
<linearGradient id="paint80_linear_137_8191" x1="128.5" y1="0" x2="128.5" y2="257" gradientUnits="userSpaceOnUse">
<stop stop-color="#02D1FE"/>
<stop offset="1" stop-color="#BB43CD"/>
</linearGradient>
<linearGradient id="paint81_linear_137_8191" x1="128.5" y1="0" x2="128.5" y2="257" gradientUnits="userSpaceOnUse">
<stop stop-color="#02D1FE"/>
<stop offset="1" stop-color="#BB43CD"/>
</linearGradient>
<linearGradient id="paint82_linear_137_8191" x1="128.5" y1="0" x2="128.5" y2="257" gradientUnits="userSpaceOnUse">
<stop stop-color="#02D1FE"/>
<stop offset="1" stop-color="#BB43CD"/>
</linearGradient>
<linearGradient id="paint83_linear_137_8191" x1="128.5" y1="0" x2="128.5" y2="257" gradientUnits="userSpaceOnUse">
<stop stop-color="#02D1FE"/>
<stop offset="1" stop-color="#BB43CD"/>
</linearGradient>
<linearGradient id="paint84_linear_137_8191" x1="128.5" y1="0" x2="128.5" y2="257" gradientUnits="userSpaceOnUse">
<stop stop-color="#02D1FE"/>
<stop offset="1" stop-color="#BB43CD"/>
</linearGradient>
<linearGradient id="paint85_linear_137_8191" x1="128.5" y1="0" x2="128.5" y2="257" gradientUnits="userSpaceOnUse">
<stop stop-color="#02D1FE"/>
<stop offset="1" stop-color="#BB43CD"/>
</linearGradient>
<linearGradient id="paint86_linear_137_8191" x1="128.5" y1="0" x2="128.5" y2="257" gradientUnits="userSpaceOnUse">
<stop stop-color="#02D1FE"/>
<stop offset="1" stop-color="#BB43CD"/>
</linearGradient>
<linearGradient id="paint87_linear_137_8191" x1="128.5" y1="0" x2="128.5" y2="257" gradientUnits="userSpaceOnUse">
<stop stop-color="#02D1FE"/>
<stop offset="1" stop-color="#BB43CD"/>
</linearGradient>
<linearGradient id="paint88_linear_137_8191" x1="128.5" y1="0" x2="128.5" y2="257" gradientUnits="userSpaceOnUse">
<stop stop-color="#02D1FE"/>
<stop offset="1" stop-color="#BB43CD"/>
</linearGradient>
<linearGradient id="paint89_linear_137_8191" x1="128.5" y1="0" x2="128.5" y2="257" gradientUnits="userSpaceOnUse">
<stop stop-color="#02D1FE"/>
<stop offset="1" stop-color="#BB43CD"/>
</linearGradient>
<linearGradient id="paint90_linear_137_8191" x1="128.5" y1="0" x2="128.5" y2="257" gradientUnits="userSpaceOnUse">
<stop stop-color="#02D1FE"/>
<stop offset="1" stop-color="#BB43CD"/>
</linearGradient>
<linearGradient id="paint91_linear_137_8191" x1="128.5" y1="0" x2="128.5" y2="257" gradientUnits="userSpaceOnUse">
<stop stop-color="#02D1FE"/>
<stop offset="1" stop-color="#BB43CD"/>
</linearGradient>
<linearGradient id="paint92_linear_137_8191" x1="128.5" y1="0" x2="128.5" y2="257" gradientUnits="userSpaceOnUse">
<stop stop-color="#02D1FE"/>
<stop offset="1" stop-color="#BB43CD"/>
</linearGradient>
<linearGradient id="paint93_linear_137_8191" x1="128.5" y1="0" x2="128.5" y2="257" gradientUnits="userSpaceOnUse">
<stop stop-color="#02D1FE"/>
<stop offset="1" stop-color="#BB43CD"/>
</linearGradient>
<linearGradient id="paint94_linear_137_8191" x1="128.5" y1="0" x2="128.5" y2="257" gradientUnits="userSpaceOnUse">
<stop stop-color="#02D1FE"/>
<stop offset="1" stop-color="#BB43CD"/>
</linearGradient>
<linearGradient id="paint95_linear_137_8191" x1="128.5" y1="0" x2="128.5" y2="257" gradientUnits="userSpaceOnUse">
<stop stop-color="#02D1FE"/>
<stop offset="1" stop-color="#BB43CD"/>
</linearGradient>
<linearGradient id="paint96_linear_137_8191" x1="128.5" y1="0" x2="128.5" y2="257" gradientUnits="userSpaceOnUse">
<stop stop-color="#02D1FE"/>
<stop offset="1" stop-color="#BB43CD"/>
</linearGradient>
<linearGradient id="paint97_linear_137_8191" x1="128.5" y1="0" x2="128.5" y2="257" gradientUnits="userSpaceOnUse">
<stop stop-color="#02D1FE"/>
<stop offset="1" stop-color="#BB43CD"/>
</linearGradient>
<linearGradient id="paint98_linear_137_8191" x1="128.5" y1="0" x2="128.5" y2="257" gradientUnits="userSpaceOnUse">
<stop stop-color="#02D1FE"/>
<stop offset="1" stop-color="#BB43CD"/>
</linearGradient>
<linearGradient id="paint99_linear_137_8191" x1="128.5" y1="0" x2="128.5" y2="257" gradientUnits="userSpaceOnUse">
<stop stop-color="#02D1FE"/>
<stop offset="1" stop-color="#BB43CD"/>
</linearGradient>
<linearGradient id="paint100_linear_137_8191" x1="128.5" y1="0" x2="128.5" y2="257" gradientUnits="userSpaceOnUse">
<stop stop-color="#02D1FE"/>
<stop offset="1" stop-color="#BB43CD"/>
</linearGradient>
<linearGradient id="paint101_linear_137_8191" x1="128.5" y1="0" x2="128.5" y2="257" gradientUnits="userSpaceOnUse">
<stop stop-color="#02D1FE"/>
<stop offset="1" stop-color="#BB43CD"/>
</linearGradient>
<linearGradient id="paint102_linear_137_8191" x1="128.5" y1="0" x2="128.5" y2="257" gradientUnits="userSpaceOnUse">
<stop stop-color="#02D1FE"/>
<stop offset="1" stop-color="#BB43CD"/>
</linearGradient>
<linearGradient id="paint103_linear_137_8191" x1="128.5" y1="0" x2="128.5" y2="257" gradientUnits="userSpaceOnUse">
<stop stop-color="#02D1FE"/>
<stop offset="1" stop-color="#BB43CD"/>
</linearGradient>
<linearGradient id="paint104_linear_137_8191" x1="128.5" y1="0" x2="128.5" y2="257" gradientUnits="userSpaceOnUse">
<stop stop-color="#02D1FE"/>
<stop offset="1" stop-color="#BB43CD"/>
</linearGradient>
<linearGradient id="paint105_linear_137_8191" x1="128.5" y1="0" x2="128.5" y2="257" gradientUnits="userSpaceOnUse">
<stop stop-color="#02D1FE"/>
<stop offset="1" stop-color="#BB43CD"/>
</linearGradient>
<linearGradient id="paint106_linear_137_8191" x1="128.5" y1="0" x2="128.5" y2="257" gradientUnits="userSpaceOnUse">
<stop stop-color="#02D1FE"/>
<stop offset="1" stop-color="#BB43CD"/>
</linearGradient>
<linearGradient id="paint107_linear_137_8191" x1="128.5" y1="0" x2="128.5" y2="257" gradientUnits="userSpaceOnUse">
<stop stop-color="#02D1FE"/>
<stop offset="1" stop-color="#BB43CD"/>
</linearGradient>
<linearGradient id="paint108_linear_137_8191" x1="128.5" y1="0" x2="128.5" y2="257" gradientUnits="userSpaceOnUse">
<stop stop-color="#02D1FE"/>
<stop offset="1" stop-color="#BB43CD"/>
</linearGradient>
<linearGradient id="paint109_linear_137_8191" x1="128.5" y1="0" x2="128.5" y2="257" gradientUnits="userSpaceOnUse">
<stop stop-color="#02D1FE"/>
<stop offset="1" stop-color="#BB43CD"/>
</linearGradient>
<linearGradient id="paint110_linear_137_8191" x1="128.5" y1="0" x2="128.5" y2="257" gradientUnits="userSpaceOnUse">
<stop stop-color="#02D1FE"/>
<stop offset="1" stop-color="#BB43CD"/>
</linearGradient>
<linearGradient id="paint111_linear_137_8191" x1="128.5" y1="0" x2="128.5" y2="257" gradientUnits="userSpaceOnUse">
<stop stop-color="#02D1FE"/>
<stop offset="1" stop-color="#BB43CD"/>
</linearGradient>
</defs>
</svg>
