<svg width="40" height="40" viewBox="0 0 40 40" fill="none" xmlns="http://www.w3.org/2000/svg">
<g filter="url(#filter0_b_1302_4)">
<circle cx="20" cy="20" r="20" fill="#050925" fill-opacity="0.3"/>
</g>
<path fill-rule="evenodd" clip-rule="evenodd" d="M9.5 20C9.5 22.7848 10.6062 25.4555 12.5754 27.4246C14.5445 29.3938 17.2152 30.5 20 30.5C22.7848 30.5 25.4555 29.3938 27.4246 27.4246C29.3938 25.4555 30.5 22.7848 30.5 20C30.5 17.2152 29.3938 14.5445 27.4246 12.5754C25.4555 10.6062 22.7848 9.5 20 9.5C17.2152 9.5 14.5445 10.6062 12.5754 12.5754C10.6062 14.5445 9.5 17.2152 9.5 20ZM32 20C32 23.1826 30.7357 26.2348 28.4853 28.4853C26.2348 30.7357 23.1826 32 20 32C16.8174 32 13.7652 30.7357 11.5147 28.4853C9.26428 26.2348 8 23.1826 8 20C8 16.8174 9.26428 13.7652 11.5147 11.5147C13.7652 9.26428 16.8174 8 20 8C23.1826 8 26.2348 9.26428 28.4853 11.5147C30.7357 13.7652 32 16.8174 32 20ZM14.75 19.25C14.5511 19.25 14.3603 19.329 14.2197 19.4697C14.079 19.6103 14 19.8011 14 20C14 20.1989 14.079 20.3897 14.2197 20.5303C14.3603 20.671 14.5511 20.75 14.75 20.75H23.4395L20.219 23.969C20.1493 24.0387 20.094 24.1215 20.0562 24.2126C20.0185 24.3037 19.9991 24.4014 19.9991 24.5C19.9991 24.5986 20.0185 24.6963 20.0562 24.7874C20.094 24.8785 20.1493 24.9613 20.219 25.031C20.2887 25.1007 20.3715 25.156 20.4626 25.1938C20.5537 25.2315 20.6514 25.2509 20.75 25.2509C20.8486 25.2509 20.9463 25.2315 21.0374 25.1938C21.1285 25.156 21.2113 25.1007 21.281 25.031L25.781 20.531C25.8508 20.4613 25.9063 20.3786 25.9441 20.2874C25.9819 20.1963 26.0013 20.0987 26.0013 20C26.0013 19.9013 25.9819 19.8037 25.9441 19.7125C25.9063 19.6214 25.8508 19.5387 25.781 19.469L21.281 14.969C21.2113 14.8993 21.1285 14.844 21.0374 14.8062C20.9463 14.7685 20.8486 14.7491 20.75 14.7491C20.6514 14.7491 20.5537 14.7685 20.4626 14.8062C20.3715 14.844 20.2887 14.8993 20.219 14.969C20.1493 15.0387 20.094 15.1215 20.0562 15.2126C20.0185 15.3037 19.9991 15.4014 19.9991 15.5C19.9991 15.5986 20.0185 15.6963 20.0562 15.7874C20.094 15.8785 20.1493 15.9613 20.219 16.031L23.4395 19.25H14.75Z" fill="white"/>
<defs>
<filter id="filter0_b_1302_4" x="-20" y="-20" width="80" height="80" filterUnits="userSpaceOnUse" color-interpolation-filters="sRGB">
<feFlood flood-opacity="0" result="BackgroundImageFix"/>
<feGaussianBlur in="BackgroundImage" stdDeviation="10"/>
<feComposite in2="SourceAlpha" operator="in" result="effect1_backgroundBlur_1302_4"/>
<feBlend mode="normal" in="SourceGraphic" in2="effect1_backgroundBlur_1302_4" result="shape"/>
</filter>
</defs>
</svg>
