<svg width="867" height="472" viewBox="0 0 867 472" fill="none" xmlns="http://www.w3.org/2000/svg">
<g id="Something Something Something Blockchain" filter="url(#filter0_d_1701_2807)">
<path d="M208.683 86.56C204.789 86.56 201.269 85.8933 198.123 84.56C195.029 83.2267 192.576 81.3067 190.763 78.8C188.949 76.2933 188.016 73.3333 187.963 69.92H199.963C200.123 72.2133 200.923 74.0267 202.363 75.36C203.856 76.6933 205.883 77.36 208.443 77.36C211.056 77.36 213.109 76.7467 214.603 75.52C216.096 74.24 216.843 72.5867 216.843 70.56C216.843 68.9067 216.336 67.5467 215.323 66.48C214.309 65.4133 213.029 64.5867 211.483 64C209.989 63.36 207.909 62.6667 205.243 61.92C201.616 60.8533 198.656 59.8133 196.363 58.8C194.123 57.7333 192.176 56.16 190.523 54.08C188.923 51.9467 188.123 49.12 188.123 45.6C188.123 42.2933 188.949 39.4133 190.603 36.96C192.256 34.5067 194.576 32.64 197.563 31.36C200.549 30.0267 203.963 29.36 207.803 29.36C213.563 29.36 218.229 30.7733 221.803 33.6C225.429 36.3733 227.429 40.2667 227.803 45.28H215.483C215.376 43.36 214.549 41.7867 213.003 40.56C211.509 39.28 209.509 38.64 207.003 38.64C204.816 38.64 203.056 39.2 201.723 40.32C200.443 41.44 199.803 43.0667 199.803 45.2C199.803 46.6933 200.283 47.9467 201.243 48.96C202.256 49.92 203.483 50.72 204.923 51.36C206.416 51.9467 208.496 52.64 211.163 53.44C214.789 54.5067 217.749 55.5733 220.043 56.64C222.336 57.7067 224.309 59.3067 225.963 61.44C227.616 63.5733 228.443 66.3733 228.443 69.84C228.443 72.8267 227.669 75.6 226.123 78.16C224.576 80.72 222.309 82.7733 219.323 84.32C216.336 85.8133 212.789 86.56 208.683 86.56ZM264.073 86.56C258.846 86.56 254.046 85.3333 249.673 82.88C245.299 80.4267 241.833 77.04 239.273 72.72C236.713 68.3467 235.433 63.4133 235.433 57.92C235.433 52.48 236.713 47.6 239.273 43.28C241.833 38.9067 245.299 35.4933 249.673 33.04C254.046 30.5867 258.846 29.36 264.073 29.36C269.353 29.36 274.153 30.5867 278.473 33.04C282.846 35.4933 286.286 38.9067 288.793 43.28C291.353 47.6 292.633 52.48 292.633 57.92C292.633 63.4133 291.353 68.3467 288.793 72.72C286.286 77.04 282.846 80.4267 278.473 82.88C274.099 85.3333 269.299 86.56 264.073 86.56ZM264.073 76.56C267.433 76.56 270.393 75.8133 272.953 74.32C275.513 72.7733 277.513 70.5867 278.953 67.76C280.393 64.9333 281.113 61.6533 281.113 57.92C281.113 54.1867 280.393 50.9333 278.953 48.16C277.513 45.3333 275.513 43.1733 272.953 41.68C270.393 40.1867 267.433 39.44 264.073 39.44C260.713 39.44 257.726 40.1867 255.113 41.68C252.553 43.1733 250.553 45.3333 249.113 48.16C247.673 50.9333 246.953 54.1867 246.953 57.92C246.953 61.6533 247.673 64.9333 249.113 67.76C250.553 70.5867 252.553 72.7733 255.113 74.32C257.726 75.8133 260.713 76.56 264.073 76.56ZM361.845 30.16V86H350.645V49.68L335.685 86H327.205L312.165 49.68V86H300.965V30.16H313.685L331.445 71.68L349.205 30.16H361.845ZM384.118 39.2V53.2H402.918V62.08H384.118V76.88H405.318V86H372.918V30.08H405.318V39.2H384.118ZM453.497 30.16V39.2H438.617V86H427.417V39.2H412.537V30.16H453.497ZM507.988 30.16V86H496.788V62.24H472.868V86H461.668V30.16H472.868V53.12H496.788V30.16H507.988ZM530.212 30.16V86H519.012V30.16H530.212ZM589.038 86H577.838L552.478 47.68V86H541.278V30.08H552.478L577.838 68.48V30.08H589.038V86ZM638.986 46.96C637.706 44.6133 635.946 42.8267 633.706 41.6C631.466 40.3733 628.853 39.76 625.866 39.76C622.559 39.76 619.626 40.5067 617.066 42C614.506 43.4933 612.506 45.6267 611.066 48.4C609.626 51.1733 608.906 54.3733 608.906 58C608.906 61.7333 609.626 64.9867 611.066 67.76C612.559 70.5333 614.613 72.6667 617.226 74.16C619.839 75.6533 622.879 76.4 626.346 76.4C630.613 76.4 634.106 75.28 636.826 73.04C639.546 70.7467 641.333 67.5733 642.186 63.52H622.986V54.96H653.226V64.72C652.479 68.6133 650.879 72.2133 648.426 75.52C645.973 78.8267 642.799 81.4933 638.906 83.52C635.066 85.4933 630.746 86.48 625.946 86.48C620.559 86.48 615.679 85.28 611.306 82.88C606.986 80.4267 603.573 77.04 601.066 72.72C598.613 68.4 597.386 63.4933 597.386 58C597.386 52.5067 598.613 47.6 601.066 43.28C603.573 38.9067 606.986 35.52 611.306 33.12C615.679 30.6667 620.533 29.44 625.866 29.44C632.159 29.44 637.626 30.9867 642.266 34.08C646.906 37.12 650.106 41.4133 651.866 46.96H638.986ZM155.869 214.7C151.002 214.7 146.602 213.867 142.669 212.2C138.802 210.533 135.736 208.133 133.469 205C131.202 201.867 130.036 198.167 129.969 193.9H144.969C145.169 196.767 146.169 199.033 147.969 200.7C149.836 202.367 152.369 203.2 155.569 203.2C158.836 203.2 161.402 202.433 163.269 200.9C165.136 199.3 166.069 197.233 166.069 194.7C166.069 192.633 165.436 190.933 164.169 189.6C162.902 188.267 161.302 187.233 159.369 186.5C157.502 185.7 154.902 184.833 151.569 183.9C147.036 182.567 143.336 181.267 140.469 180C137.669 178.667 135.236 176.7 133.169 174.1C131.169 171.433 130.169 167.9 130.169 163.5C130.169 159.367 131.202 155.767 133.269 152.7C135.336 149.633 138.236 147.3 141.969 145.7C145.702 144.033 149.969 143.2 154.769 143.2C161.969 143.2 167.802 144.967 172.269 148.5C176.802 151.967 179.302 156.833 179.769 163.1H164.369C164.236 160.7 163.202 158.733 161.269 157.2C159.402 155.6 156.902 154.8 153.769 154.8C151.036 154.8 148.836 155.5 147.169 156.9C145.569 158.3 144.769 160.333 144.769 163C144.769 164.867 145.369 166.433 146.569 167.7C147.836 168.9 149.369 169.9 151.169 170.7C153.036 171.433 155.636 172.3 158.969 173.3C163.502 174.633 167.202 175.967 170.069 177.3C172.936 178.633 175.402 180.633 177.469 183.3C179.536 185.967 180.569 189.467 180.569 193.8C180.569 197.533 179.602 201 177.669 204.2C175.736 207.4 172.902 209.967 169.169 211.9C165.436 213.767 161.002 214.7 155.869 214.7ZM225.107 214.7C218.573 214.7 212.573 213.167 207.107 210.1C201.64 207.033 197.307 202.8 194.107 197.4C190.907 191.933 189.307 185.767 189.307 178.9C189.307 172.1 190.907 166 194.107 160.6C197.307 155.133 201.64 150.867 207.107 147.8C212.573 144.733 218.573 143.2 225.107 143.2C231.707 143.2 237.707 144.733 243.107 147.8C248.573 150.867 252.873 155.133 256.007 160.6C259.207 166 260.807 172.1 260.807 178.9C260.807 185.767 259.207 191.933 256.007 197.4C252.873 202.8 248.573 207.033 243.107 210.1C237.64 213.167 231.64 214.7 225.107 214.7ZM225.107 202.2C229.307 202.2 233.007 201.267 236.207 199.4C239.407 197.467 241.907 194.733 243.707 191.2C245.507 187.667 246.407 183.567 246.407 178.9C246.407 174.233 245.507 170.167 243.707 166.7C241.907 163.167 239.407 160.467 236.207 158.6C233.007 156.733 229.307 155.8 225.107 155.8C220.907 155.8 217.173 156.733 213.907 158.6C210.707 160.467 208.207 163.167 206.407 166.7C204.607 170.167 203.707 174.233 203.707 178.9C203.707 183.567 204.607 187.667 206.407 191.2C208.207 194.733 210.707 197.467 213.907 199.4C217.173 201.267 220.907 202.2 225.107 202.2ZM347.322 144.2V214H333.322V168.6L314.622 214H304.022L285.222 168.6V214H271.222V144.2H287.122L309.322 196.1L331.522 144.2H347.322ZM375.164 155.5V173H398.664V184.1H375.164V202.6H401.664V214H361.164V144.1H401.664V155.5H375.164ZM461.886 144.2V155.5H443.286V214H429.286V155.5H410.686V144.2H461.886ZM530.001 144.2V214H516.001V184.3H486.101V214H472.101V144.2H486.101V172.9H516.001V144.2H530.001ZM557.781 144.2V214H543.781V144.2H557.781ZM631.313 214H617.313L585.613 166.1V214H571.613V144.1H585.613L617.313 192.1V144.1H631.313V214ZM693.748 165.2C692.148 162.267 689.948 160.033 687.148 158.5C684.348 156.967 681.081 156.2 677.348 156.2C673.215 156.2 669.548 157.133 666.348 159C663.148 160.867 660.648 163.533 658.848 167C657.048 170.467 656.148 174.467 656.148 179C656.148 183.667 657.048 187.733 658.848 191.2C660.715 194.667 663.281 197.333 666.548 199.2C669.815 201.067 673.615 202 677.948 202C683.281 202 687.648 200.6 691.048 197.8C694.448 194.933 696.681 190.967 697.748 185.9H673.748V175.2H711.548V187.4C710.615 192.267 708.615 196.767 705.548 200.9C702.481 205.033 698.515 208.367 693.648 210.9C688.848 213.367 683.448 214.6 677.448 214.6C670.715 214.6 664.615 213.1 659.148 210.1C653.748 207.033 649.481 202.8 646.348 197.4C643.281 192 641.748 185.867 641.748 179C641.748 172.133 643.281 166 646.348 160.6C649.481 155.133 653.748 150.9 659.148 147.9C664.615 144.833 670.681 143.3 677.348 143.3C685.215 143.3 692.048 145.233 697.848 149.1C703.648 152.9 707.648 158.267 709.848 165.2H693.748ZM98.3848 342.84C92.2248 342.84 86.7048 341.84 81.8248 339.84C76.9448 337.84 73.0248 334.88 70.0648 330.96C67.1848 327.04 65.6648 322.32 65.5048 316.8H87.3448C87.6648 319.92 88.7448 322.32 90.5848 324C92.4248 325.6 94.8248 326.4 97.7848 326.4C100.825 326.4 103.225 325.72 104.985 324.36C106.745 322.92 107.625 320.96 107.625 318.48C107.625 316.4 106.905 314.68 105.465 313.32C104.105 311.96 102.385 310.84 100.305 309.96C98.3048 309.08 95.4248 308.08 91.6648 306.96C86.2248 305.28 81.7848 303.6 78.3448 301.92C74.9048 300.24 71.9448 297.76 69.4648 294.48C66.9848 291.2 65.7448 286.92 65.7448 281.64C65.7448 273.8 68.5848 267.68 74.2648 263.28C79.9448 258.8 87.3448 256.56 96.4648 256.56C105.745 256.56 113.225 258.8 118.905 263.28C124.585 267.68 127.625 273.84 128.025 281.76H105.825C105.665 279.04 104.665 276.92 102.825 275.4C100.985 273.8 98.6248 273 95.7448 273C93.2648 273 91.2648 273.68 89.7448 275.04C88.2248 276.32 87.4648 278.2 87.4648 280.68C87.4648 283.4 88.7448 285.52 91.3048 287.04C93.8648 288.56 97.8648 290.2 103.305 291.96C108.745 293.8 113.145 295.56 116.505 297.24C119.945 298.92 122.905 301.36 125.385 304.56C127.865 307.76 129.105 311.88 129.105 316.92C129.105 321.72 127.865 326.08 125.385 330C122.985 333.92 119.465 337.04 114.825 339.36C110.185 341.68 104.705 342.84 98.3848 342.84ZM181.573 342.84C173.653 342.84 166.373 341 159.733 337.32C153.173 333.64 147.933 328.52 144.013 321.96C140.173 315.32 138.253 307.88 138.253 299.64C138.253 291.4 140.173 284 144.013 277.44C147.933 270.88 153.173 265.76 159.733 262.08C166.373 258.4 173.653 256.56 181.573 256.56C189.493 256.56 196.733 258.4 203.293 262.08C209.933 265.76 215.133 270.88 218.893 277.44C222.733 284 224.653 291.4 224.653 299.64C224.653 307.88 222.733 315.32 218.893 321.96C215.053 328.52 209.853 333.64 203.293 337.32C196.733 341 189.493 342.84 181.573 342.84ZM181.573 324.12C188.293 324.12 193.653 321.88 197.653 317.4C201.733 312.92 203.773 307 203.773 299.64C203.773 292.2 201.733 286.28 197.653 281.88C193.653 277.4 188.293 275.16 181.573 275.16C174.773 275.16 169.333 277.36 165.253 281.76C161.253 286.16 159.253 292.12 159.253 299.64C159.253 307.08 161.253 313.04 165.253 317.52C169.333 321.92 174.773 324.12 181.573 324.12ZM331.469 257.76V342H310.949V291.48L292.109 342H275.549L256.589 291.36V342H236.069V257.76H260.309L283.949 316.08L307.349 257.76H331.469ZM366.745 274.2V291.24H394.225V307.08H366.745V325.56H397.825V342H346.225V257.76H397.825V274.2H366.745ZM471.747 257.76V274.2H449.427V342H428.907V274.2H406.587V257.76H471.747ZM555.005 257.76V342H534.485V307.32H502.565V342H482.045V257.76H502.565V290.76H534.485V257.76H555.005ZM590.339 257.76V342H569.819V257.76H590.339ZM680.57 342H660.05L625.73 290.04V342H605.21V257.76H625.73L660.05 309.96V257.76H680.57V342ZM751.364 284.4C749.844 281.6 747.644 279.48 744.764 278.04C741.964 276.52 738.644 275.76 734.804 275.76C728.164 275.76 722.844 277.96 718.844 282.36C714.844 286.68 712.844 292.48 712.844 299.76C712.844 307.52 714.924 313.6 719.084 318C723.324 322.32 729.124 324.48 736.484 324.48C741.524 324.48 745.764 323.2 749.204 320.64C752.724 318.08 755.284 314.4 756.884 309.6H730.844V294.48H775.484V313.56C773.964 318.68 771.364 323.44 767.684 327.84C764.084 332.24 759.484 335.8 753.884 338.52C748.284 341.24 741.964 342.6 734.924 342.6C726.604 342.6 719.164 340.8 712.604 337.2C706.124 333.52 701.044 328.44 697.364 321.96C693.764 315.48 691.964 308.08 691.964 299.76C691.964 291.44 693.764 284.04 697.364 277.56C701.044 271 706.124 265.92 712.604 262.32C719.084 258.64 726.484 256.8 734.804 256.8C744.884 256.8 753.364 259.24 760.244 264.12C767.204 269 771.804 275.76 774.044 284.4H751.364ZM65.5805 423.664C70.8712 424.859 75.0525 427.504 78.1245 431.6C81.2818 435.611 82.8605 440.219 82.8605 445.424C82.8605 453.104 80.2152 459.12 74.9245 463.472C69.6338 467.824 62.2098 470 52.6525 470H7.9805V379.76H51.2445C60.4605 379.76 67.6712 381.808 72.8765 385.904C78.1672 390 80.8125 395.76 80.8125 403.184C80.8125 408.475 79.4045 412.912 76.5885 416.496C73.8578 419.995 70.1885 422.384 65.5805 423.664ZM33.0685 415.6H45.7405C52.0552 415.6 55.2125 412.997 55.2125 407.792C55.2125 402.416 52.0552 399.728 45.7405 399.728H33.0685V415.6ZM47.6605 449.776C53.9752 449.776 57.1325 447.131 57.1325 441.84C57.1325 439.109 56.2792 437.019 54.5725 435.568C52.9512 434.117 50.6045 433.392 47.5325 433.392H33.0685V449.776H47.6605ZM118.944 450.8H146.976V470H93.8555V379.76H118.944V450.8ZM199.995 470.896C191.547 470.896 183.781 468.933 176.699 465.008C169.616 460.997 163.984 455.493 159.803 448.496C155.707 441.413 153.659 433.435 153.659 424.56C153.659 415.685 155.707 407.749 159.803 400.752C163.984 393.669 169.616 388.165 176.699 384.24C183.781 380.315 191.547 378.352 199.995 378.352C208.528 378.352 216.293 380.315 223.291 384.24C230.373 388.165 235.963 393.669 240.059 400.752C244.155 407.749 246.203 415.685 246.203 424.56C246.203 433.435 244.155 441.413 240.059 448.496C235.963 455.493 230.373 460.997 223.291 465.008C216.208 468.933 208.443 470.896 199.995 470.896ZM199.995 447.6C206.395 447.6 211.429 445.509 215.099 441.328C218.853 437.147 220.731 431.557 220.731 424.56C220.731 417.392 218.853 411.76 215.099 407.664C211.429 403.483 206.395 401.392 199.995 401.392C193.509 401.392 188.432 403.483 184.763 407.664C181.093 411.76 179.259 417.392 179.259 424.56C179.259 431.643 181.093 437.275 184.763 441.456C188.432 445.552 193.509 447.6 199.995 447.6ZM254.409 424.688C254.409 415.813 256.243 407.92 259.913 401.008C263.667 394.011 268.958 388.592 275.785 384.752C282.611 380.827 290.462 378.864 299.337 378.864C310.601 378.864 320.073 381.893 327.753 387.952C335.433 393.925 340.382 402.075 342.601 412.4H315.593C313.971 408.987 311.71 406.384 308.809 404.592C305.993 402.8 302.707 401.904 298.953 401.904C293.15 401.904 288.499 403.995 285.001 408.176C281.587 412.272 279.881 417.776 279.881 424.688C279.881 431.685 281.587 437.275 285.001 441.456C288.499 445.552 293.15 447.6 298.953 447.6C302.707 447.6 305.993 446.704 308.809 444.912C311.71 443.12 313.971 440.517 315.593 437.104H342.601C340.382 447.429 335.433 455.621 327.753 461.68C320.073 467.653 310.601 470.64 299.337 470.64C290.462 470.64 282.611 468.72 275.785 464.88C268.958 460.955 263.667 455.536 259.913 448.624C256.243 441.627 254.409 433.648 254.409 424.688ZM407.857 470L379.569 430.448V470H354.481V379.76H379.569V418.672L407.601 379.76H436.529L403.377 423.536L438.193 470H407.857ZM444.284 424.688C444.284 415.813 446.118 407.92 449.788 401.008C453.542 394.011 458.833 388.592 465.66 384.752C472.486 380.827 480.337 378.864 489.212 378.864C500.476 378.864 509.948 381.893 517.628 387.952C525.308 393.925 530.257 402.075 532.476 412.4H505.468C503.846 408.987 501.585 406.384 498.684 404.592C495.868 402.8 492.582 401.904 488.828 401.904C483.025 401.904 478.374 403.995 474.876 408.176C471.462 412.272 469.756 417.776 469.756 424.688C469.756 431.685 471.462 437.275 474.876 441.456C478.374 445.552 483.025 447.6 488.828 447.6C492.582 447.6 495.868 446.704 498.684 444.912C501.585 443.12 503.846 440.517 505.468 437.104H532.476C530.257 447.429 525.308 455.621 517.628 461.68C509.948 467.653 500.476 470.64 489.212 470.64C480.337 470.64 472.486 468.72 465.66 464.88C458.833 460.955 453.542 455.536 449.788 448.624C446.118 441.627 444.284 433.648 444.284 424.688ZM625.124 379.76V470H600.036V433.776H569.444V470H544.356V379.76H569.444V413.68H600.036V379.76H625.124ZM696.569 455.28H664.569L659.705 470H633.337L666.233 379.76H695.161L727.929 470H701.433L696.569 455.28ZM690.297 436.08L680.569 406.896L670.969 436.08H690.297ZM761.194 379.76V470H736.106V379.76H761.194ZM859.065 470H833.977L800.569 419.568V470H775.481V379.76H800.569L833.977 430.832V379.76H859.065V470Z" fill="url(#paint0_linear_1701_2807)"/>
</g>
<defs>
<filter id="filter0_d_1701_2807" x="-22.0195" y="9.35986" width="951.084" height="541.536" filterUnits="userSpaceOnUse" color-interpolation-filters="sRGB">
<feFlood flood-opacity="0" result="BackgroundImageFix"/>
<feColorMatrix in="SourceAlpha" type="matrix" values="0 0 0 0 0 0 0 0 0 0 0 0 0 0 0 0 0 0 127 0" result="hardAlpha"/>
<feOffset dx="20" dy="30"/>
<feGaussianBlur stdDeviation="25"/>
<feComposite in2="hardAlpha" operator="out"/>
<feColorMatrix type="matrix" values="0 0 0 0 0.00784314 0 0 0 0 0.521725 0 0 0 0 0.996078 0 0 0 0.25 0"/>
<feBlend mode="normal" in2="BackgroundImageFix" result="effect1_dropShadow_1701_2807"/>
<feBlend mode="normal" in="SourceGraphic" in2="effect1_dropShadow_1701_2807" result="shape"/>
</filter>
<linearGradient id="paint0_linear_1701_2807" x1="433.5" y1="0" x2="433.5" y2="472" gradientUnits="userSpaceOnUse">
<stop stop-color="#E21EFF"/>
<stop offset="1" stop-color="#0285FE"/>
</linearGradient>
</defs>
</svg>
